ZillaSlab-SemiBoldItalic.ufo
<glyph name="exclam" format="1">
  <advance width="249"/>
  <unicode hex="0021"/>
  <outline>
    <contour>
      <point x="226" y="650" type="line"/>
      <point x="156" y="217" type="line"/>
      <point x="79" y="217" type="line"/>
      <point x="101" y="650" type="line"/>
    </contour>
    <contour>
      <point x="37" y="0" type="line"/>
      <point x="162" y="0" type="line"/>
      <point x="175" y="127" type="line"/>
      <point x="50" y="127" type="line"/>
    </contour>
  </outline>
</glyph>
<glyph name="dollar" format="1">
  <advance width="476"/>
  <unicode hex="0024"/>
  <outline>
    <contour>
      <point x="430" y="167" type="curve" smooth="yes"/>
      <point x="430" y="64"/>
      <point x="352" y="1"/>
      <point x="236" y="-7" type="curve"/>
      <point x="230" y="-65" type="line"/>
      <point x="176" y="-65" type="line"/>
      <point x="182" y="-7" type="line"/>
      <point x="114" y="-2"/>
      <point x="51" y="20"/>
      <point x="18" y="45" type="curve"/>
      <point x="47" y="170" type="line"/>
      <point x="134" y="163" type="line"/>
      <point x="124" y="98" type="line"/>
      <point x="143" y="88"/>
      <point x="168" y="81"/>
      <point x="191" y="78" type="curve"/>
      <point x="207" y="233" type="line"/>
      <point x="123" y="251"/>
      <point x="56" y="278"/>
      <point x="56" y="364" type="curve" smooth="yes"/>
      <point x="56" y="475"/>
      <point x="147" y="520"/>
      <point x="238" y="528" type="curve"/>
      <point x="245" y="593" type="line"/>
      <point x="299" y="593" type="line"/>
      <point x="292" y="528" type="line"/>
      <point x="351" y="523"/>
      <point x="403" y="504"/>
      <point x="436" y="480" type="curve"/>
      <point x="434" y="357" type="line"/>
      <point x="345" y="350" type="line"/>
      <point x="341" y="425" type="line"/>
      <point x="322" y="436"/>
      <point x="301" y="442"/>
      <point x="283" y="444" type="curve"/>
      <point x="269" y="316" type="line"/>
      <point x="335" y="302"/>
      <point x="430" y="278"/>
    </contour>
    <contour>
      <point x="316" y="150" type="curve" smooth="yes"/>
      <point x="316" y="188"/>
      <point x="292" y="207"/>
      <point x="259" y="219" type="curve"/>
      <point x="245" y="79" type="line"/>
      <point x="293" y="86"/>
      <point x="316" y="112"/>
    </contour>
    <contour>
      <point x="170" y="383" type="curve" smooth="yes"/>
      <point x="170" y="353"/>
      <point x="189" y="338"/>
      <point x="217" y="328" type="curve"/>
      <point x="229" y="442" type="line"/>
      <point x="195" y="435"/>
      <point x="170" y="416"/>
    </contour>
  </outline>
</glyph>
<glyph name="percent" format="1">
  <advance width="705"/>
  <unicode hex="0025"/>
  <outline>
    <contour>
      <point x="628" y="521" type="line"/>
      <point x="400" y="262" type="line"/>
      <point x="178" y="0" type="line"/>
      <point x="69" y="0" type="line"/>
      <point x="327" y="286" type="line"/>
      <point x="519" y="521" type="line"/>
    </contour>
    <contour>
      <point x="175" y="241" type="curve" smooth="yes"/>
      <point x="279" y="241"/>
      <point x="341" y="312"/>
      <point x="341" y="403" type="curve" smooth="yes"/>
      <point x="341" y="479"/>
      <point x="296" y="531"/>
      <point x="209" y="531" type="curve" smooth="yes"/>
      <point x="108" y="531"/>
      <point x="42" y="462"/>
      <point x="42" y="369" type="curve" smooth="yes"/>
      <point x="42" y="292"/>
      <point x="88" y="241"/>
    </contour>
    <contour>
      <point x="181" y="311" type="curve" smooth="yes"/>
      <point x="148" y="311"/>
      <point x="126" y="328"/>
      <point x="126" y="375" type="curve" smooth="yes"/>
      <point x="126" y="435"/>
      <point x="159" y="460"/>
      <point x="201" y="460" type="curve" smooth="yes"/>
      <point x="236" y="460"/>
      <point x="256" y="442"/>
      <point x="256" y="397" type="curve" smooth="yes"/>
      <point x="256" y="341"/>
      <point x="227" y="311"/>
    </contour>
    <contour>
      <point x="496" y="-10" type="curve" smooth="yes"/>
      <point x="601" y="-10"/>
      <point x="662" y="61"/>
      <point x="662" y="151" type="curve" smooth="yes"/>
      <point x="662" y="228"/>
      <point x="616" y="280"/>
      <point x="530" y="280" type="curve" smooth="yes"/>
      <point x="430" y="280"/>
      <point x="362" y="212"/>
      <point x="362" y="118" type="curve" smooth="yes"/>
      <point x="362" y="39"/>
      <point x="410" y="-10"/>
    </contour>
    <contour>
      <point x="503" y="60" type="curve" smooth="yes"/>
      <point x="469" y="60"/>
      <point x="448" y="77"/>
      <point x="448" y="125" type="curve" smooth="yes"/>
      <point x="448" y="184"/>
      <point x="480" y="210"/>
      <point x="522" y="210" type="curve" smooth="yes"/>
      <point x="557" y="210"/>
      <point x="577" y="191"/>
      <point x="577" y="146" type="curve" smooth="yes"/>
      <point x="577" y="90"/>
      <point x="548" y="60"/>
    </contour>
  </outline>
</glyph>
<glyph name="quotesingle" format="1">
  <advance width="198"/>
  <unicode hex="0027"/>
  <outline>
    <contour>
      <point x="153" y="377" type="line"/>
      <point x="190" y="650" type="line"/>
      <point x="85" y="650" type="line"/>
      <point x="64" y="377" type="line"/>
    </contour>
  </outline>
</glyph>
<glyph name="comma" format="1">
  <advance width="213"/>
  <unicode hex="002C"/>
  <outline>
    <contour>
      <point x="-27" y="-92" type="line"/>
      <point x="76" y="-92" type="line"/>
      <point x="156" y="136" type="line"/>
      <point x="54" y="136" type="line"/>
    </contour>
  </outline>
</glyph>
<glyph name="hyphen" format="1">
  <advance width="325"/>
  <unicode hex="002D"/>
  <unicode hex="00AD"/>
  <outline>
    <contour>
      <point x="47" y="278" type="line"/>
      <point x="279" y="278" type="line"/>
      <point x="270" y="188" type="line"/>
      <point x="38" y="188" type="line"/>
    </contour>
  </outline>
</glyph>
<glyph name="period" format="1">
  <advance width="218"/>
  <unicode hex="002E"/>
  <outline>
    <contour>
      <point x="18" y="0" type="line"/>
      <point x="146" y="0" type="line"/>
      <point x="160" y="139" type="line"/>
      <point x="32" y="139" type="line"/>
    </contour>
  </outline>
</glyph>
<glyph name="four" format="1">
  <advance width="547"/>
  <unicode hex="0034"/>
  <outline>
    <contour>
      <point x="385" y="-130" type="line"/>
      <point x="403" y="39" type="line"/>
      <point x="493" y="39" type="line"/>
      <point x="512" y="132" type="line"/>
      <point x="412" y="132" type="line"/>
      <point x="453" y="521" type="line"/>
      <point x="251" y="521" type="line"/>
      <point x="4" y="132" type="line"/>
      <point x="5" y="39" type="line"/>
      <point x="294" y="39" type="line"/>
      <point x="276" y="-130" type="line"/>
    </contour>
    <contour>
      <point x="304" y="132" type="line"/>
      <point x="105" y="132" type="line"/>
      <point x="287" y="426" type="line"/>
      <point x="335" y="426" type="line"/>
    </contour>
  </outline>
</glyph>
<glyph name="six" format="1">
  <advance width="527"/>
  <unicode hex="0036"/>
  <outline>
    <contour>
      <point x="484" y="235" type="curve" smooth="yes"/>
      <point x="484" y="330"/>
      <point x="442" y="413"/>
      <point x="324" y="413" type="curve" smooth="yes"/>
      <point x="237" y="413"/>
      <point x="182" y="367"/>
      <point x="156" y="321" type="curve"/>
      <point x="169" y="481"/>
      <point x="218" y="565"/>
      <point x="317" y="565" type="curve" smooth="yes"/>
      <point x="370" y="565"/>
      <point x="414" y="541"/>
      <point x="437" y="506" type="curve"/>
      <point x="507" y="571" type="line"/>
      <point x="468" y="634"/>
      <point x="401" y="660"/>
      <point x="325" y="660" type="curve" smooth="yes"/>
      <point x="108" y="660"/>
      <point x="38" y="448"/>
      <point x="38" y="263" type="curve" smooth="yes"/>
      <point x="38" y="92"/>
      <point x="98" y="-10"/>
      <point x="246" y="-10" type="curve" smooth="yes"/>
      <point x="400" y="-10"/>
      <point x="484" y="102"/>
    </contour>
    <contour>
      <point x="372" y="222" type="curve" smooth="yes"/>
      <point x="372" y="147"/>
      <point x="338" y="88"/>
      <point x="252" y="88" type="curve" smooth="yes"/>
      <point x="175" y="88"/>
      <point x="152" y="134"/>
      <point x="152" y="213" type="curve"/>
      <point x="162" y="268"/>
      <point x="201" y="322"/>
      <point x="281" y="322" type="curve" smooth="yes"/>
      <point x="348" y="322"/>
      <point x="372" y="286"/>
    </contour>
  </outline>
</glyph>
<glyph name="eight" format="1">
  <advance width="528"/>
  <unicode hex="0038"/>
  <outline>
    <contour>
      <point x="228" y="-10" type="curve" smooth="yes"/>
      <point x="374" y="-10"/>
      <point x="485" y="64"/>
      <point x="485" y="184" type="curve" smooth="yes"/>
      <point x="485" y="270"/>
      <point x="426" y="317"/>
      <point x="361" y="352" type="curve"/>
      <point x="435" y="384"/>
      <point x="498" y="425"/>
      <point x="498" y="509" type="curve" smooth="yes"/>
      <point x="498" y="604"/>
      <point x="419" y="660"/>
      <point x="305" y="660" type="curve" smooth="yes"/>
      <point x="170" y="660"/>
      <point x="72" y="582"/>
      <point x="72" y="476" type="curve" smooth="yes"/>
      <point x="72" y="401"/>
      <point x="119" y="358"/>
      <point x="177" y="324" type="curve"/>
      <point x="96" y="290"/>
      <point x="22" y="247"/>
      <point x="22" y="148" type="curve" smooth="yes"/>
      <point x="22" y="42"/>
      <point x="106" y="-10"/>
    </contour>
    <contour>
      <point x="189" y="491" type="curve" smooth="yes"/>
      <point x="189" y="538"/>
      <point x="233" y="569"/>
      <point x="296" y="569" type="curve" smooth="yes"/>
      <point x="346" y="569"/>
      <point x="387" y="550"/>
      <point x="387" y="490" type="curve" smooth="yes"/>
      <point x="387" y="437"/>
      <point x="351" y="406"/>
      <point x="306" y="381" type="curve"/>
      <point x="244" y="411"/>
      <point x="189" y="439"/>
    </contour>
    <contour>
      <point x="245" y="81" type="curve" smooth="yes"/>
      <point x="176" y="81"/>
      <point x="134" y="114"/>
      <point x="134" y="175" type="curve" smooth="yes"/>
      <point x="134" y="235"/>
      <point x="178" y="268"/>
      <point x="230" y="295" type="curve"/>
      <point x="301" y="261"/>
      <point x="368" y="231"/>
      <point x="368" y="171" type="curve" smooth="yes"/>
      <point x="368" y="118"/>
      <point x="317" y="81"/>
    </contour>
  </outline>
</glyph>
<glyph name="colon" format="1">
  <advance width="234"/>
  <unicode hex="003A"/>
  <outline>
    <contour>
      <point x="88" y="449" type="line"/>
      <point x="205" y="449" type="line"/>
      <point x="189" y="310" type="line"/>
      <point x="72" y="310" type="line"/>
    </contour>
    <contour>
      <point x="53" y="139" type="line"/>
      <point x="170" y="139" type="line"/>
      <point x="153" y="0" type="line"/>
      <point x="36" y="0" type="line"/>
    </contour>
  </outline>
</glyph>
<glyph name="semicolon" format="1">
  <advance width="240"/>
  <unicode hex="003B"/>
  <outline>
    <contour>
      <point x="-22" y="-92" type="line"/>
      <point x="81" y="-92" type="line"/>
      <point x="161" y="136" type="line"/>
      <point x="59" y="136" type="line"/>
    </contour>
    <contour>
      <point x="72" y="307" type="line"/>
      <point x="200" y="307" type="line"/>
      <point x="214" y="446" type="line"/>
      <point x="86" y="446" type="line"/>
    </contour>
  </outline>
</glyph>
<glyph name="equal" format="1">
  <advance width="545"/>
  <unicode hex="003D"/>
  <outline>
    <contour>
      <point x="56" y="354" type="line"/>
      <point x="504" y="354" type="line"/>
      <point x="513" y="428" type="line"/>
      <point x="65" y="428" type="line"/>
    </contour>
    <contour>
      <point x="33" y="132" type="line"/>
      <point x="481" y="132" type="line"/>
      <point x="489" y="207" type="line"/>
      <point x="41" y="207" type="line"/>
    </contour>
  </outline>
</glyph>
<glyph name="greater" format="1">
  <advance width="392"/>
  <unicode hex="003E"/>
  <outline>
    <contour>
      <point x="364" y="262" type="line"/>
      <point x="368" y="296" type="line"/>
      <point x="82" y="549" type="line"/>
      <point x="71" y="447" type="line"/>
      <point x="258" y="281" type="line"/>
      <point x="37" y="116" type="line"/>
      <point x="26" y="14" type="line"/>
    </contour>
  </outline>
</glyph>
<glyph name="H" format="1">
  <advance width="732"/>
  <unicode hex="0048"/>
  <outline>
    <contour>
      <point x="20" y="95" type="line"/>
      <point x="92" y="95" type="line"/>
      <point x="140" y="555" type="line"/>
      <point x="68" y="555" type="line"/>
      <point x="78" y="650" type="line"/>
      <point x="329" y="650" type="line"/>
      <point x="318" y="555" type="line"/>
      <point x="246" y="555" type="line"/>
      <point x="227" y="377" type="line"/>
      <point x="524" y="377" type="line"/>
      <point x="543" y="555" type="line"/>
      <point x="471" y="555" type="line"/>
      <point x="482" y="650" type="line"/>
      <point x="732" y="650" type="line"/>
      <point x="722" y="555" type="line"/>
      <point x="650" y="555" type="line"/>
      <point x="602" y="95" type="line"/>
      <point x="674" y="95" type="line"/>
      <point x="664" y="0" type="line"/>
      <point x="414" y="0" type="line"/>
      <point x="424" y="95" type="line"/>
      <point x="495" y="95" type="line"/>
      <point x="514" y="283" type="line"/>
      <point x="217" y="283" type="line"/>
      <point x="198" y="95" type="line"/>
      <point x="270" y="95" type="line"/>
      <point x="261" y="0" type="line"/>
      <point x="10" y="0" type="line"/>
    </contour>
  </outline>
</glyph>
<glyph name="M" format="1">
  <advance width="862"/>
  <unicode hex="004D"/>
  <outline>
    <contour>
      <point x="22" y="95" type="line"/>
      <point x="93" y="95" type="line"/>
      <point x="141" y="555" type="line"/>
      <point x="62" y="555" type="line"/>
      <point x="72" y="650" type="line"/>
      <point x="241" y="650" type="line"/>
      <point x="426" y="208" type="line"/>
      <point x="430" y="208" type="line"/>
      <point x="696" y="650" type="line"/>
      <point x="867" y="650" type="line"/>
      <point x="857" y="555" type="line"/>
      <point x="778" y="555" type="line"/>
      <point x="730" y="95" type="line"/>
      <point x="802" y="95" type="line"/>
      <point x="792" y="0" type="line"/>
      <point x="551" y="0" type="line"/>
      <point x="561" y="95" type="line"/>
      <point x="623" y="95" type="line"/>
      <point x="656" y="406" type="line"/>
      <point x="652" y="406" type="line"/>
      <point x="432" y="46" type="line"/>
      <point x="384" y="46" type="line"/>
      <point x="231" y="414" type="line"/>
      <point x="227" y="414" type="line"/>
      <point x="193" y="95" type="line"/>
      <point x="259" y="95" type="line"/>
      <point x="249" y="0" type="line"/>
      <point x="12" y="0" type="line"/>
    </contour>
  </outline>
</glyph>
<glyph name="N" format="1">
  <advance width="725"/>
  <unicode hex="004E"/>
  <outline>
    <contour>
      <point x="24" y="95" type="line"/>
      <point x="94" y="95" type="line"/>
      <point x="142" y="555" type="line"/>
      <point x="62" y="555" type="line"/>
      <point x="72" y="650" type="line"/>
      <point x="228" y="650" type="line"/>
      <point x="516" y="220" type="line"/>
      <point x="519" y="220" type="line"/>
      <point x="554" y="555" type="line"/>
      <point x="462" y="555" type="line"/>
      <point x="472" y="650" type="line"/>
      <point x="736" y="650" type="line"/>
      <point x="726" y="555" type="line"/>
      <point x="654" y="555" type="line"/>
      <point x="596" y="0" type="line"/>
      <point x="534" y="-1" type="line"/>
      <point x="234" y="450" type="line"/>
      <point x="231" y="450" type="line"/>
      <point x="194" y="95" type="line"/>
      <point x="286" y="95" type="line"/>
      <point x="276" y="0" type="line"/>
      <point x="14" y="0" type="line"/>
    </contour>
    <contour>
      <point x="318" y="727" type="move" name="top"/>
    </contour>
  </outline>
</glyph>
<glyph name="O" format="1">
  <advance width="695"/>
  <unicode hex="004F"/>
  <outline>
    <contour>
      <point x="386" y="660" type="curve" smooth="yes"/>
      <point x="185" y="660"/>
      <point x="32" y="495"/>
      <point x="32" y="290" type="curve" smooth="yes"/>
      <point x="32" y="126"/>
      <point x="133" y="-10"/>
      <point x="316" y="-10" type="curve" smooth="yes"/>
      <point x="523" y="-10"/>
      <point x="673" y="160"/>
      <point x="673" y="360" type="curve" smooth="yes"/>
      <point x="673" y="526"/>
      <point x="565" y="660"/>
    </contour>
    <contour>
      <point x="332" y="88" type="curve" smooth="yes"/>
      <point x="201" y="88"/>
      <point x="148" y="190"/>
      <point x="148" y="300" type="curve" smooth="yes"/>
      <point x="148" y="443"/>
      <point x="236" y="562"/>
      <point x="374" y="562" type="curve" smooth="yes"/>
      <point x="488" y="562"/>
      <point x="557" y="481"/>
      <point x="557" y="352" type="curve" smooth="yes"/>
      <point x="557" y="215"/>
      <point x="478" y="88"/>
    </contour>
  </outline>
</glyph>
<glyph name="P" format="1">
  <advance width="571"/>
  <unicode hex="0050"/>
  <outline>
    <contour>
      <point x="20" y="95" type="line"/>
      <point x="92" y="95" type="line"/>
      <point x="140" y="555" type="line"/>
      <point x="68" y="555" type="line"/>
      <point x="78" y="650" type="line"/>
      <point x="355" y="650" type="line" smooth="yes"/>
      <point x="498" y="650"/>
      <point x="568" y="571"/>
      <point x="568" y="459" type="curve" smooth="yes"/>
      <point x="568" y="306"/>
      <point x="454" y="227"/>
      <point x="319" y="227" type="curve" smooth="yes"/>
      <point x="213" y="227" type="line"/>
      <point x="199" y="95" type="line"/>
      <point x="300" y="95" type="line"/>
      <point x="290" y="0" type="line"/>
      <point x="10" y="0" type="line"/>
    </contour>
    <contour>
      <point x="310" y="321" type="line" smooth="yes"/>
      <point x="412" y="321"/>
      <point x="453" y="376"/>
      <point x="453" y="454" type="curve" smooth="yes"/>
      <point x="453" y="518"/>
      <point x="419" y="555"/>
      <point x="333" y="555" type="curve" smooth="yes"/>
      <point x="247" y="555" type="line"/>
      <point x="223" y="321" type="line"/>
    </contour>
  </outline>
</glyph>
<glyph name="S" format="1">
  <advance width="532"/>
  <unicode hex="0053"/>
  <outline>
    <contour>
      <point x="488" y="200" type="curve" smooth="yes"/>
      <point x="488" y="65"/>
      <point x="395" y="-10"/>
      <point x="236" y="-10" type="curve" smooth="yes"/>
      <point x="149" y="-10"/>
      <point x="61" y="12"/>
      <point x="18" y="52" type="curve"/>
      <point x="51" y="201" type="line"/>
      <point x="137" y="192" type="line"/>
      <point x="128" y="112" type="line"/>
      <point x="168" y="89"/>
      <point x="207" y="86"/>
      <point x="233" y="86" type="curve" smooth="yes"/>
      <point x="316" y="86"/>
      <point x="371" y="111"/>
      <point x="371" y="191" type="curve" smooth="yes"/>
      <point x="371" y="267"/>
      <point x="322" y="276"/>
      <point x="247" y="292" type="curve" smooth="yes"/>
      <point x="161" y="310"/>
      <point x="67" y="339"/>
      <point x="67" y="463" type="curve" smooth="yes"/>
      <point x="67" y="606"/>
      <point x="190" y="660"/>
      <point x="306" y="660" type="curve" smooth="yes"/>
      <point x="387" y="660"/>
      <point x="465" y="634"/>
      <point x="502" y="595" type="curve"/>
      <point x="493" y="458" type="line"/>
      <point x="405" y="450" type="line"/>
      <point x="404" y="534" type="line"/>
      <point x="371" y="556"/>
      <point x="334" y="562"/>
      <point x="302" y="562" type="curve" smooth="yes"/>
      <point x="233" y="562"/>
      <point x="182" y="534"/>
      <point x="182" y="476" type="curve" smooth="yes"/>
      <point x="182" y="416"/>
      <point x="236" y="401"/>
      <point x="298" y="387" type="curve" smooth="yes"/>
      <point x="388" y="367"/>
      <point x="488" y="341"/>
    </contour>
  </outline>
</glyph>
<glyph name="T" format="1">
  <advance width="618"/>
  <unicode hex="0054"/>
  <outline>
    <contour>
      <point x="616" y="438" type="line"/>
      <point x="619" y="650" type="line"/>
      <point x="77" y="650" type="line"/>
      <point x="37" y="438" type="line"/>
      <point x="129" y="430" type="line"/>
      <point x="161" y="555" type="line"/>
      <point x="285" y="555" type="line"/>
      <point x="237" y="95" type="line"/>
      <point x="135" y="95" type="line"/>
      <point x="125" y="0" type="line"/>
      <point x="440" y="0" type="line"/>
      <point x="450" y="95" type="line"/>
      <point x="343" y="95" type="line"/>
      <point x="391" y="555" type="line"/>
      <point x="515" y="555" type="line"/>
      <point x="522" y="430" type="line"/>
    </contour>
  </outline>
</glyph>
<glyph name="V" format="1">
  <advance width="648"/>
  <unicode hex="0056"/>
  <outline>
    <contour>
      <point x="673" y="555" type="line"/>
      <point x="616" y="555" type="line"/>
      <point x="334" y="0" type="line"/>
      <point x="257" y="0" type="line"/>
      <point x="92" y="555" type="line"/>
      <point x="31" y="555" type="line"/>
      <point x="41" y="650" type="line"/>
      <point x="288" y="650" type="line"/>
      <point x="278" y="555" type="line"/>
      <point x="209" y="555" type="line"/>
      <point x="317" y="170" type="line"/>
      <point x="322" y="170" type="line"/>
      <point x="507" y="555" type="line"/>
      <point x="437" y="555" type="line"/>
      <point x="447" y="650" type="line"/>
      <point x="684" y="650" type="line"/>
    </contour>
  </outline>
</glyph>
<glyph name="X" format="1">
  <advance width="631"/>
  <unicode hex="0058"/>
  <outline>
    <contour>
      <point x="595" y="0" type="line"/>
      <point x="353" y="0" type="line"/>
      <point x="363" y="95" type="line"/>
      <point x="420" y="95" type="line"/>
      <point x="310" y="261" type="line"/>
      <point x="173" y="95" type="line"/>
      <point x="232" y="95" type="line"/>
      <point x="222" y="0" type="line"/>
      <point x="-22" y="0" type="line"/>
      <point x="-12" y="95" type="line"/>
      <point x="54" y="95" type="line"/>
      <point x="263" y="334" type="line"/>
      <point x="109" y="555" type="line"/>
      <point x="49" y="555" type="line"/>
      <point x="59" y="650" type="line"/>
      <point x="296" y="650" type="line"/>
      <point x="286" y="555" type="line"/>
      <point x="232" y="555" type="line"/>
      <point x="334" y="407" type="line"/>
      <point x="459" y="555" type="line"/>
      <point x="407" y="555" type="line"/>
      <point x="417" y="650" type="line"/>
      <point x="650" y="650" type="line"/>
      <point x="640" y="555" type="line"/>
      <point x="578" y="555" type="line"/>
      <point x="381" y="336" type="line"/>
      <point x="548" y="95" type="line"/>
      <point x="605" y="95" type="line"/>
    </contour>
  </outline>
</glyph>
<glyph name="bracketleft" format="1">
  <advance width="288"/>
  <unicode hex="005B"/>
  <outline>
    <contour>
      <point x="19" y="-235" type="line"/>
      <point x="220" y="-235" type="line"/>
      <point x="228" y="-161" type="line"/>
      <point x="116" y="-161" type="line"/>
      <point x="206" y="698" type="line"/>
      <point x="318" y="698" type="line"/>
      <point x="326" y="772" type="line"/>
      <point x="125" y="772" type="line"/>
    </contour>
  </outline>
</glyph>
<glyph name="backslash" format="1">
  <advance width="470"/>
  <unicode hex="005C"/>
  <outline>
    <contour>
      <point x="41" y="688" type="line"/>
      <point x="323" y="0" type="line"/>
      <point x="421" y="0" type="line"/>
      <point x="140" y="688" type="line"/>
    </contour>
  </outline>
</glyph>
<glyph name="asciicircum" format="1">
  <advance width="455"/>
  <unicode hex="005E"/>
  <outline>
    <contour>
      <point x="232" y="652" type="line"/>
      <point x="44" y="369" type="line"/>
      <point x="140" y="369" type="line"/>
      <point x="254" y="548" type="line"/>
      <point x="337" y="369" type="line"/>
      <point x="434" y="369" type="line"/>
      <point x="298" y="652" type="line"/>
    </contour>
  </outline>
</glyph>
<glyph name="grave" format="1">
  <advance width="431"/>
  <unicode hex="0060"/>
  <outline>
    <contour>
      <point x="400" y="512" type="line"/>
      <point x="425" y="555" type="line"/>
      <point x="254" y="693" type="line"/>
      <point x="204" y="609" type="line"/>
    </contour>
  </outline>
</glyph>
<glyph name="g" format="1">
  <advance width="521"/>
  <unicode hex="0067"/>
  <outline>
    <contour>
      <point x="381" y="449" type="line"/>
      <point x="531" y="449" type="line"/>
      <point x="524" y="388" type="line"/>
      <point x="497" y="366" type="line"/>
      <point x="457" y="366" type="line"/>
      <point x="414" y="17" type="line" smooth="yes"/>
      <point x="398" y="-113"/>
      <point x="335" y="-222"/>
      <point x="180" y="-222" type="curve" smooth="yes"/>
      <point x="94" y="-222"/>
      <point x="13" y="-182"/>
      <point x="-6" y="-84" type="curve"/>
      <point x="68" y="-44" type="line"/>
      <point x="87" y="-106"/>
      <point x="134" y="-133"/>
      <point x="187" y="-133" type="curve" smooth="yes"/>
      <point x="261" y="-133"/>
      <point x="300" y="-82"/>
      <point x="312" y="18" type="curve" smooth="yes"/>
      <point x="320" y="88" type="line"/>
      <point x="289" y="34"/>
      <point x="240" y="-10"/>
      <point x="167" y="-10" type="curve" smooth="yes"/>
      <point x="69" y="-10"/>
      <point x="21" y="72"/>
      <point x="21" y="178" type="curve" smooth="yes"/>
      <point x="21" y="301"/>
      <point x="85" y="458"/>
      <point x="233" y="458" type="curve" smooth="yes"/>
      <point x="298" y="458"/>
      <point x="342" y="428"/>
      <point x="361" y="378" type="curve"/>
    </contour>
    <contour>
      <point x="248" y="375" type="curve" smooth="yes"/>
      <point x="167" y="375"/>
      <point x="132" y="282"/>
      <point x="132" y="190" type="curve" smooth="yes"/>
      <point x="132" y="118"/>
      <point x="155" y="72"/>
      <point x="206" y="72" type="curve" smooth="yes"/>
      <point x="269" y="72"/>
      <point x="320" y="140"/>
      <point x="334" y="199" type="curve"/>
      <point x="340" y="252" type="line" smooth="yes"/>
      <point x="348" y="327"/>
      <point x="305" y="375"/>
    </contour>
    <contour>
      <point x="167" y="566" type="move" name="top"/>
    </contour>
  </outline>
</glyph>
<glyph name="m" format="1">
  <advance width="797"/>
  <unicode hex="006D"/>
  <outline>
    <contour>
      <point x="59" y="449" type="line"/>
      <point x="188" y="449" type="line"/>
      <point x="190" y="362" type="line"/>
      <point x="221" y="419"/>
      <point x="267" y="458"/>
      <point x="336" y="458" type="curve" smooth="yes"/>
      <point x="402" y="458"/>
      <point x="449" y="425"/>
      <point x="458" y="357" type="curve"/>
      <point x="489" y="417"/>
      <point x="536" y="458"/>
      <point x="607" y="458" type="curve" smooth="yes"/>
      <point x="689" y="458"/>
      <point x="743" y="407"/>
      <point x="730" y="297" type="curve" smooth="yes"/>
      <point x="704" y="82" type="line"/>
      <point x="768" y="82" type="line"/>
      <point x="761" y="22" type="line"/>
      <point x="734" y="0" type="line"/>
      <point x="592" y="0" type="line"/>
      <point x="623" y="258" type="line"/>
      <point x="634" y="343"/>
      <point x="610" y="375"/>
      <point x="556" y="375" type="curve" smooth="yes"/>
      <point x="492" y="375"/>
      <point x="464" y="328"/>
      <point x="454" y="269" type="curve"/>
      <point x="422" y="0" type="line"/>
      <point x="320" y="0" type="line"/>
      <point x="352" y="258" type="line" smooth="yes"/>
      <point x="362" y="343"/>
      <point x="338" y="375"/>
      <point x="285" y="375" type="curve" smooth="yes"/>
      <point x="217" y="375"/>
      <point x="190" y="323"/>
      <point x="182" y="257" type="curve"/>
      <point x="181" y="259" type="line"/>
      <point x="150" y="0" type="line"/>
      <point x="48" y="0" type="line"/>
      <point x="93" y="366" type="line"/>
      <point x="24" y="366" type="line"/>
      <point x="31" y="425" type="line"/>
    </contour>
    <contour>
      <point x="248" y="566" type="move" name="top"/>
    </contour>
  </outline>
</glyph>
<glyph name="q" format="1">
  <advance width="507"/>
  <unicode hex="0071"/>
  <outline>
    <contour>
      <point x="447" y="-189" type="line"/>
      <point x="419" y="-213" type="line"/>
      <point x="192" y="-213" type="line"/>
      <point x="199" y="-155" type="line"/>
      <point x="227" y="-131" type="line"/>
      <point x="292" y="-131" type="line"/>
      <point x="320" y="88" type="line"/>
      <point x="289" y="35"/>
      <point x="239" y="-10"/>
      <point x="166" y="-10" type="curve" smooth="yes"/>
      <point x="68" y="-10"/>
      <point x="20" y="72"/>
      <point x="20" y="178" type="curve" smooth="yes"/>
      <point x="20" y="301"/>
      <point x="84" y="458"/>
      <point x="232" y="458" type="curve" smooth="yes"/>
      <point x="299" y="458"/>
      <point x="344" y="426"/>
      <point x="362" y="374" type="curve"/>
      <point x="368" y="399"/>
      <point x="374" y="424"/>
      <point x="383" y="449" type="curve"/>
      <point x="483" y="449" type="line"/>
      <point x="467" y="398"/>
      <point x="455" y="348"/>
      <point x="448" y="297" type="curve"/>
      <point x="396" y="-131" type="line"/>
      <point x="454" y="-131" type="line"/>
    </contour>
    <contour>
      <point x="248" y="375" type="curve" smooth="yes"/>
      <point x="166" y="375"/>
      <point x="131" y="282"/>
      <point x="131" y="191" type="curve" smooth="yes"/>
      <point x="131" y="118"/>
      <point x="154" y="72"/>
      <point x="206" y="72" type="curve" smooth="yes"/>
      <point x="269" y="72"/>
      <point x="320" y="142"/>
      <point x="334" y="203" type="curve"/>
      <point x="341" y="258" type="line"/>
      <point x="345" y="330"/>
      <point x="301" y="375"/>
    </contour>
  </outline>
</glyph>
<glyph name="t" format="1">
  <advance width="353"/>
  <unicode hex="0074"/>
  <outline>
    <contour>
      <point x="26" y="422" type="line"/>
      <point x="55" y="449" type="line"/>
      <point x="94" y="449" type="line"/>
      <point x="107" y="554" type="line"/>
      <point x="140" y="588" type="line"/>
      <point x="214" y="588" type="line"/>
      <point x="197" y="449" type="line"/>
      <point x="338" y="449" type="line"/>
      <point x="330" y="394" type="line"/>
      <point x="301" y="366" type="line"/>
      <point x="187" y="366" type="line"/>
      <point x="160" y="143" type="line" smooth="yes"/>
      <point x="154" y="93"/>
      <point x="166" y="72"/>
      <point x="199" y="72" type="curve" smooth="yes"/>
      <point x="223" y="72"/>
      <point x="246" y="84"/>
      <point x="265" y="155" type="curve"/>
      <point x="338" y="130" type="line"/>
      <point x="313" y="33"/>
      <point x="271" y="-10"/>
      <point x="188" y="-10" type="curve" smooth="yes"/>
      <point x="97" y="-10"/>
      <point x="44" y="43"/>
      <point x="56" y="134" type="curve"/>
      <point x="84" y="366" type="line"/>
      <point x="18" y="366" type="line"/>
    </contour>
  </outline>
</glyph>
<glyph name="w" format="1">
  <advance width="726"/>
  <unicode hex="0077"/>
  <outline>
    <contour>
      <point x="502" y="123" type="line"/>
      <point x="507" y="123" type="line"/>
      <point x="576" y="213"/>
      <point x="603" y="278"/>
      <point x="603" y="354" type="curve" smooth="yes"/>
      <point x="603" y="387"/>
      <point x="598" y="416"/>
      <point x="585" y="449" type="curve"/>
      <point x="701" y="449" type="line"/>
      <point x="717" y="364"/>
      <point x="703" y="276"/>
      <point x="638" y="183" type="curve" smooth="yes"/>
      <point x="605" y="135"/>
      <point x="538" y="54"/>
      <point x="482" y="0" type="curve"/>
      <point x="436" y="0" type="line"/>
      <point x="367" y="288" type="line"/>
      <point x="362" y="288" type="line"/>
      <point x="211" y="0" type="line"/>
      <point x="155" y="0" type="line"/>
      <point x="57" y="366" type="line"/>
      <point x="10" y="366" type="line"/>
      <point x="18" y="425" type="line"/>
      <point x="45" y="449" type="line"/>
      <point x="243" y="449" type="line"/>
      <point x="236" y="390" type="line"/>
      <point x="208" y="366" type="line"/>
      <point x="164" y="366" type="line"/>
      <point x="210" y="150" type="line"/>
      <point x="215" y="150" type="line"/>
      <point x="364" y="449" type="line"/>
      <point x="427" y="449" type="line"/>
    </contour>
  </outline>
</glyph>
<glyph name="x" format="1">
  <advance width="497"/>
  <unicode hex="0078"/>
  <outline>
    <contour>
      <point x="472" y="24" type="line"/>
      <point x="444" y="0" type="line"/>
      <point x="229" y="0" type="line"/>
      <point x="236" y="58" type="line"/>
      <point x="263" y="82" type="line"/>
      <point x="299" y="82" type="line"/>
      <point x="223" y="186" type="line"/>
      <point x="136" y="130"/>
      <point x="117" y="67"/>
      <point x="135" y="0" type="curve"/>
      <point x="19" y="0" type="line"/>
      <point x="-11" y="94"/>
      <point x="83" y="156"/>
      <point x="186" y="225" type="curve"/>
      <point x="74" y="366" type="line"/>
      <point x="17" y="366" type="line"/>
      <point x="25" y="425" type="line"/>
      <point x="52" y="449" type="line"/>
      <point x="263" y="449" type="line"/>
      <point x="255" y="390" type="line"/>
      <point x="228" y="366" type="line"/>
      <point x="191" y="366" type="line"/>
      <point x="258" y="274" type="line"/>
      <point x="335" y="334"/>
      <point x="357" y="390"/>
      <point x="341" y="449" type="curve"/>
      <point x="457" y="449" type="line"/>
      <point x="489" y="361"/>
      <point x="373" y="290"/>
      <point x="298" y="235" type="curve"/>
      <point x="416" y="82" type="line"/>
      <point x="479" y="82" type="line"/>
    </contour>
  </outline>
</glyph>
<glyph name="y" format="1">
  <advance width="476"/>
  <unicode hex="0079"/>
  <outline>
    <contour>
      <point x="245" y="123" type="line"/>
      <point x="251" y="123" type="line"/>
      <point x="322" y="212"/>
      <point x="354" y="278"/>
      <point x="354" y="356" type="curve" smooth="yes"/>
      <point x="354" y="384"/>
      <point x="349" y="416"/>
      <point x="335" y="449" type="curve"/>
      <point x="452" y="449" type="line"/>
      <point x="468" y="370"/>
      <point x="458" y="283"/>
      <point x="390" y="188" type="curve" smooth="yes"/>
      <point x="363" y="150"/>
      <point x="314" y="91"/>
      <point x="266" y="40" type="curve"/>
      <point x="241" y="-131" type="line"/>
      <point x="310" y="-131" type="line"/>
      <point x="302" y="-189" type="line"/>
      <point x="275" y="-213" type="line"/>
      <point x="55" y="-213" type="line"/>
      <point x="63" y="-155" type="line"/>
      <point x="90" y="-131" type="line"/>
      <point x="138" y="-131" type="line"/>
      <point x="164" y="43" type="line"/>
      <point x="60" y="366" type="line"/>
      <point x="9" y="366" type="line"/>
      <point x="17" y="425" type="line"/>
      <point x="44" y="449" type="line"/>
      <point x="245" y="449" type="line"/>
      <point x="238" y="390" type="line"/>
      <point x="210" y="366" type="line"/>
      <point x="170" y="366" type="line"/>
    </contour>
  </outline>
</glyph>
<glyph name="bar" format="1">
  <advance width="235"/>
  <unicode hex="007C"/>
  <outline>
    <contour>
      <point x="210" y="730" type="line"/>
      <point x="125" y="-80" type="line"/>
      <point x="35" y="-80" type="line"/>
      <point x="120" y="730" type="line"/>
    </contour>
  </outline>
</glyph>
<glyph name="braceright" format="1">
  <advance width="288"/>
  <unicode hex="007D"/>
  <outline>
    <contour>
      <point x="173" y="271" type="curve"/>
      <point x="85" y="260"/>
      <point x="53" y="215"/>
      <point x="53" y="174" type="curve" smooth="yes"/>
      <point x="53" y="113"/>
      <point x="110" y="-1"/>
      <point x="110" y="-83" type="curve" smooth="yes"/>
      <point x="110" y="-136"/>
      <point x="86" y="-160"/>
      <point x="40" y="-160" type="curve" smooth="yes"/>
      <point x="-23" y="-160" type="line"/>
      <point x="-30" y="-234" type="line"/>
      <point x="33" y="-234" type="line" smooth="yes"/>
      <point x="149" y="-234"/>
      <point x="196" y="-166"/>
      <point x="196" y="-80" type="curve" smooth="yes"/>
      <point x="196" y="15"/>
      <point x="142" y="128"/>
      <point x="142" y="182" type="curve" smooth="yes"/>
      <point x="142" y="237"/>
      <point x="214" y="246"/>
      <point x="245" y="246" type="curve" smooth="yes"/>
      <point x="263" y="246" type="line"/>
      <point x="269" y="296" type="line"/>
      <point x="250" y="296" type="line" smooth="yes"/>
      <point x="221" y="296"/>
      <point x="160" y="304"/>
      <point x="160" y="350" type="curve" smooth="yes"/>
      <point x="160" y="409"/>
      <point x="274" y="542"/>
      <point x="274" y="653" type="curve" smooth="yes"/>
      <point x="274" y="716"/>
      <point x="237" y="772"/>
      <point x="138" y="772" type="curve" smooth="yes"/>
      <point x="75" y="772" type="line"/>
      <point x="67" y="699" type="line"/>
      <point x="130" y="699" type="line" smooth="yes"/>
      <point x="167" y="699"/>
      <point x="186" y="682"/>
      <point x="186" y="645" type="curve" smooth="yes"/>
      <point x="186" y="553"/>
      <point x="72" y="423"/>
      <point x="72" y="355" type="curve" smooth="yes"/>
      <point x="72" y="319"/>
      <point x="99" y="281"/>
    </contour>
  </outline>
</glyph>
<glyph name="exclamdown" format="1">
  <advance width="233"/>
  <unicode hex="00A1"/>
  <outline>
    <contour>
      <point x="5" y="-198" type="line"/>
      <point x="75" y="235" type="line"/>
      <point x="152" y="235" type="line"/>
      <point x="130" y="-198" type="line"/>
    </contour>
    <contour>
      <point x="194" y="452" type="line"/>
      <point x="69" y="452" type="line"/>
      <point x="56" y="325" type="line"/>
      <point x="181" y="325" type="line"/>
    </contour>
  </outline>
</glyph>
<glyph name="yen" format="1">
  <advance width="581"/>
  <unicode hex="00A5"/>
  <outline>
    <contour>
      <point x="137" y="82" type="line"/>
      <point x="221" y="82" type="line"/>
      <point x="225" y="118" type="line"/>
      <point x="95" y="118" type="line"/>
      <point x="101" y="176" type="line"/>
      <point x="231" y="176" type="line"/>
      <point x="234" y="204" type="line"/>
      <point x="228" y="214" type="line"/>
      <point x="105" y="214" type="line"/>
      <point x="111" y="272" type="line"/>
      <point x="193" y="272" type="line"/>
      <point x="94" y="439" type="line"/>
      <point x="48" y="439" type="line"/>
      <point x="56" y="521" type="line"/>
      <point x="275" y="521" type="line"/>
      <point x="266" y="439" type="line"/>
      <point x="214" y="439" type="line"/>
      <point x="298" y="288" type="line"/>
      <point x="303" y="288" type="line"/>
      <point x="414" y="439" type="line"/>
      <point x="358" y="439" type="line"/>
      <point x="367" y="521" type="line"/>
      <point x="575" y="521" type="line"/>
      <point x="566" y="439" type="line"/>
      <point x="522" y="439" type="line"/>
      <point x="392" y="272" type="line"/>
      <point x="474" y="272" type="line"/>
      <point x="468" y="214" type="line"/>
      <point x="347" y="214" type="line"/>
      <point x="337" y="201" type="line"/>
      <point x="335" y="176" type="line"/>
      <point x="464" y="176" type="line"/>
      <point x="458" y="118" type="line"/>
      <point x="329" y="118" type="line"/>
      <point x="325" y="82" type="line"/>
      <point x="414" y="82" type="line"/>
      <point x="406" y="0" type="line"/>
      <point x="129" y="0" type="line"/>
    </contour>
  </outline>
</glyph>
<glyph name="brokenbar" format="1">
  <advance width="225"/>
  <unicode hex="00A6"/>
  <outline>
    <contour>
      <point x="205" y="730" type="line"/>
      <point x="173" y="426" type="line"/>
      <point x="84" y="426" type="line"/>
      <point x="116" y="730" type="line"/>
    </contour>
    <contour>
      <point x="152" y="224" type="line"/>
      <point x="120" y="-80" type="line"/>
      <point x="30" y="-80" type="line"/>
      <point x="62" y="224" type="line"/>
    </contour>
  </outline>
</glyph>
<glyph name="section" format="1">
  <advance width="604"/>
  <unicode hex="00A7"/>
  <outline>
    <contour>
      <point x="498" y="156" type="curve" smooth="yes"/>
      <point x="498" y="169"/>
      <point x="496" y="180"/>
      <point x="491" y="189" type="curve"/>
      <point x="537" y="214"/>
      <point x="578" y="250"/>
      <point x="578" y="309" type="curve" smooth="yes"/>
      <point x="578" y="424"/>
      <point x="420" y="426"/>
      <point x="325" y="443" type="curve" smooth="yes"/>
      <point x="265" y="453"/>
      <point x="218" y="470"/>
      <point x="218" y="518" type="curve" smooth="yes"/>
      <point x="218" y="566"/>
      <point x="267" y="584"/>
      <point x="324" y="584" type="curve" smooth="yes"/>
      <point x="364" y="584"/>
      <point x="409" y="574"/>
      <point x="433" y="561" type="curve"/>
      <point x="435" y="482" type="line"/>
      <point x="519" y="491" type="line"/>
      <point x="522" y="619" type="line"/>
      <point x="461" y="649"/>
      <point x="392" y="660"/>
      <point x="335" y="660" type="curve" smooth="yes"/>
      <point x="197" y="660"/>
      <point x="112" y="598"/>
      <point x="112" y="504" type="curve" smooth="yes"/>
      <point x="112" y="477"/>
      <point x="119" y="457"/>
      <point x="130" y="440" type="curve"/>
      <point x="81" y="419"/>
      <point x="40" y="384"/>
      <point x="40" y="330" type="curve" smooth="yes"/>
      <point x="40" y="237"/>
      <point x="164" y="220"/>
      <point x="263" y="209" type="curve"/>
      <point x="336" y="200"/>
      <point x="394" y="195"/>
      <point x="394" y="143" type="curve" smooth="yes"/>
      <point x="394" y="96"/>
      <point x="347" y="66"/>
      <point x="281" y="66" type="curve" smooth="yes"/>
      <point x="247" y="66"/>
      <point x="181" y="73"/>
      <point x="151" y="87" type="curve"/>
      <point x="162" y="156" type="line"/>
      <point x="82" y="165" type="line"/>
      <point x="51" y="39" type="line"/>
      <point x="113" y="5"/>
      <point x="217" y="-10"/>
      <point x="279" y="-10" type="curve" smooth="yes"/>
      <point x="411" y="-10"/>
      <point x="498" y="59"/>
    </contour>
    <contour>
      <point x="480" y="289" type="curve" smooth="yes"/>
      <point x="480" y="268"/>
      <point x="466" y="256"/>
      <point x="448" y="248" type="curve"/>
      <point x="412" y="270"/>
      <point x="361" y="278"/>
      <point x="308" y="285" type="curve" smooth="yes"/>
      <point x="191" y="301"/>
      <point x="138" y="307"/>
      <point x="138" y="348" type="curve" smooth="yes"/>
      <point x="138" y="372"/>
      <point x="156" y="387"/>
      <point x="177" y="397" type="curve"/>
      <point x="208" y="381"/>
      <point x="245" y="373"/>
      <point x="279" y="368" type="curve" smooth="yes"/>
      <point x="362" y="355"/>
      <point x="480" y="351"/>
    </contour>
  </outline>
</glyph>
<glyph name="dieresis" format="1">
  <advance width="398"/>
  <unicode hex="00A8"/>
  <outline>
    <contour>
      <point x="115" y="540" type="line"/>
      <point x="223" y="540" type="line"/>
      <point x="235" y="655" type="line"/>
      <point x="127" y="655" type="line"/>
    </contour>
    <contour>
      <point x="291" y="540" type="line"/>
      <point x="400" y="540" type="line"/>
      <point x="412" y="655" type="line"/>
      <point x="302" y="655" type="line"/>
    </contour>
  </outline>
</glyph>
<glyph name="ordfeminine" format="1">
  <advance width="380"/>
  <unicode hex="00AA"/>
  <outline>
    <contour>
      <point x="369" y="697" type="line"/>
      <point x="358" y="663"/>
      <point x="350" y="630"/>
      <point x="345" y="595" type="curve" smooth="yes"/>
      <point x="328" y="467" type="line"/>
      <point x="368" y="467" type="line"/>
      <point x="363" y="421" type="line"/>
      <point x="344" y="405" type="line"/>
      <point x="257" y="405" type="line"/>
      <point x="255" y="466" type="line"/>
      <point x="236" y="429"/>
      <point x="206" y="398"/>
      <point x="156" y="398" type="curve" smooth="yes"/>
      <point x="89" y="398"/>
      <point x="56" y="453"/>
      <point x="56" y="523" type="curve" smooth="yes"/>
      <point x="56" y="603"/>
      <point x="97" y="703"/>
      <point x="195" y="703" type="curve" smooth="yes"/>
      <point x="240" y="703"/>
      <point x="270" y="682"/>
      <point x="282" y="649" type="curve"/>
      <point x="286" y="665"/>
      <point x="290" y="681"/>
      <point x="296" y="697" type="curve"/>
    </contour>
    <contour>
      <point x="207" y="642" type="curve" smooth="yes"/>
      <point x="158" y="642"/>
      <point x="138" y="589"/>
      <point x="138" y="533" type="curve" smooth="yes"/>
      <point x="138" y="487"/>
      <point x="153" y="460"/>
      <point x="185" y="460" type="curve" smooth="yes"/>
      <point x="223" y="460"/>
      <point x="251" y="499"/>
      <point x="261" y="535" type="curve"/>
      <point x="267" y="578" type="line"/>
      <point x="265" y="619"/>
      <point x="238" y="642"/>
    </contour>
  </outline>
</glyph>
<glyph name="macron" format="1">
  <advance width="328"/>
  <unicode hex="00AF"/>
  <outline>
    <contour>
      <point x="107" y="629" type="line"/>
      <point x="361" y="629" type="line"/>
      <point x="352" y="547" type="line"/>
      <point x="98" y="547" type="line"/>
    </contour>
  </outline>
</glyph>
<glyph name="plusminus" format="1">
  <advance width="422"/>
  <unicode hex="00B1"/>
  <outline>
    <contour>
      <point x="40" y="253" type="line"/>
      <point x="177" y="253" type="line"/>
      <point x="163" y="117" type="line"/>
      <point x="236" y="117" type="line"/>
      <point x="250" y="253" type="line"/>
      <point x="380" y="253" type="line"/>
      <point x="388" y="328" type="line"/>
      <point x="258" y="328" type="line"/>
      <point x="272" y="464" type="line"/>
      <point x="199" y="464" type="line"/>
      <point x="185" y="328" type="line"/>
      <point x="48" y="328" type="line"/>
    </contour>
    <contour>
      <point x="14" y="0" type="line"/>
      <point x="354" y="0" type="line"/>
      <point x="361" y="75" type="line"/>
      <point x="21" y="75" type="line"/>
    </contour>
  </outline>
</glyph>
<glyph name="twosuperior" format="1">
  <advance width="353"/>
  <unicode hex="00B2"/>
  <outline>
    <contour>
      <point x="140" y="659" type="line"/>
      <point x="156" y="708" type="line"/>
      <point x="172" y="718"/>
      <point x="190" y="721"/>
      <point x="206" y="721" type="curve" smooth="yes"/>
      <point x="242" y="721"/>
      <point x="258" y="704"/>
      <point x="258" y="682" type="curve" smooth="yes"/>
      <point x="258" y="621"/>
      <point x="139" y="541"/>
      <point x="49" y="474" type="curve"/>
      <point x="50" y="415" type="line"/>
      <point x="338" y="415" type="line"/>
      <point x="354" y="521" type="line"/>
      <point x="284" y="529" type="line"/>
      <point x="276" y="479" type="line"/>
      <point x="153" y="479" type="line"/>
      <point x="211" y="519"/>
      <point x="351" y="605"/>
      <point x="351" y="695" type="curve" smooth="yes"/>
      <point x="351" y="740"/>
      <point x="316" y="785"/>
      <point x="226" y="785" type="curve" smooth="yes"/>
      <point x="181" y="785"/>
      <point x="133" y="774"/>
      <point x="99" y="755" type="curve"/>
      <point x="76" y="665" type="line"/>
    </contour>
  </outline>
</glyph>
<glyph name="threesuperior" format="1">
  <advance width="340"/>
  <unicode hex="00B3"/>
  <outline>
    <contour>
      <point x="144" y="664" type="line"/>
      <point x="158" y="708" type="line"/>
      <point x="175" y="717"/>
      <point x="190" y="720"/>
      <point x="205" y="720" type="curve" smooth="yes"/>
      <point x="237" y="720"/>
      <point x="251" y="708"/>
      <point x="251" y="683" type="curve" smooth="yes"/>
      <point x="251" y="644"/>
      <point x="219" y="631"/>
      <point x="171" y="628" type="curve"/>
      <point x="166" y="580" type="line"/>
      <point x="219" y="577"/>
      <point x="248" y="566"/>
      <point x="248" y="529" type="curve" smooth="yes"/>
      <point x="248" y="496"/>
      <point x="226" y="472"/>
      <point x="184" y="472" type="curve" smooth="yes"/>
      <point x="142" y="472"/>
      <point x="124" y="496"/>
      <point x="118" y="526" type="curve"/>
      <point x="55" y="506" type="line"/>
      <point x="60" y="438"/>
      <point x="116" y="408"/>
      <point x="187" y="408" type="curve" smooth="yes"/>
      <point x="275" y="408"/>
      <point x="337" y="453"/>
      <point x="337" y="524" type="curve" smooth="yes"/>
      <point x="337" y="564"/>
      <point x="318" y="597"/>
      <point x="268" y="608" type="curve"/>
      <point x="268" y="610" type="line"/>
      <point x="319" y="629"/>
      <point x="342" y="662"/>
      <point x="342" y="699" type="curve" smooth="yes"/>
      <point x="342" y="749"/>
      <point x="299" y="784"/>
      <point x="226" y="784" type="curve" smooth="yes"/>
      <point x="187" y="784"/>
      <point x="136" y="774"/>
      <point x="101" y="755" type="curve"/>
      <point x="81" y="669" type="line"/>
    </contour>
  </outline>
</glyph>
<glyph name="acute" format="1">
  <advance width="431"/>
  <unicode hex="00B4"/>
  <outline>
    <contour>
      <point x="448" y="609" type="line"/>
      <point x="398" y="693" type="line"/>
      <point x="228" y="555" type="line"/>
      <point x="253" y="512" type="line"/>
    </contour>
  </outline>
</glyph>
<glyph name="paragraph" format="1">
  <advance width="630"/>
  <unicode hex="00B6"/>
  <outline>
    <contour>
      <point x="631" y="650" type="line"/>
      <point x="622" y="559" type="line"/>
      <point x="554" y="559" type="line"/>
      <point x="496" y="0" type="line"/>
      <point x="398" y="0" type="line"/>
      <point x="457" y="559" type="line"/>
      <point x="409" y="559" type="line"/>
      <point x="350" y="0" type="line"/>
      <point x="252" y="0" type="line"/>
      <point x="284" y="310" type="line"/>
      <point x="235" y="310" type="line" smooth="yes"/>
      <point x="128" y="310"/>
      <point x="47" y="352"/>
      <point x="47" y="463" type="curve" smooth="yes"/>
      <point x="47" y="567"/>
      <point x="128" y="650"/>
      <point x="277" y="650" type="curve" smooth="yes"/>
    </contour>
  </outline>
</glyph>
<glyph name="periodcentered" format="1">
  <advance width="223"/>
  <unicode hex="00B7"/>
  <outline>
    <contour>
      <point x="46" y="253" type="line"/>
      <point x="174" y="253" type="line"/>
      <point x="188" y="392" type="line"/>
      <point x="60" y="392" type="line"/>
    </contour>
  </outline>
</glyph>
<glyph name="onesuperior" format="1">
  <advance width="266"/>
  <unicode hex="00B9"/>
  <outline>
    <contour>
      <point x="52" y="479" type="line"/>
      <point x="123" y="479" type="line"/>
      <point x="148" y="715" type="line"/>
      <point x="76" y="715" type="line"/>
      <point x="83" y="779" type="line"/>
      <point x="238" y="779" type="line"/>
      <point x="206" y="479" type="line"/>
      <point x="273" y="479" type="line"/>
      <point x="266" y="415" type="line"/>
      <point x="45" y="415" type="line"/>
    </contour>
  </outline>
</glyph>
<glyph name="ordmasculine" format="1">
  <advance width="346"/>
  <unicode hex="00BA"/>
  <outline>
    <contour>
      <point x="55" y="531" type="curve" smooth="yes"/>
      <point x="55" y="620"/>
      <point x="107" y="703"/>
      <point x="217" y="703" type="curve" smooth="yes"/>
      <point x="308" y="703"/>
      <point x="348" y="647"/>
      <point x="348" y="568" type="curve" smooth="yes"/>
      <point x="348" y="467"/>
      <point x="283" y="398"/>
      <point x="184" y="398" type="curve" smooth="yes"/>
      <point x="102" y="398"/>
      <point x="55" y="445"/>
    </contour>
    <contour>
      <point x="138" y="538" type="curve" smooth="yes"/>
      <point x="138" y="490"/>
      <point x="149" y="460"/>
      <point x="191" y="460" type="curve" smooth="yes"/>
      <point x="246" y="460"/>
      <point x="267" y="509"/>
      <point x="267" y="566" type="curve" smooth="yes"/>
      <point x="267" y="618"/>
      <point x="250" y="642"/>
      <point x="209" y="642" type="curve" smooth="yes"/>
      <point x="160" y="642"/>
      <point x="138" y="608"/>
    </contour>
    <contour>
      <point x="170" y="338" type="move" name="top"/>
    </contour>
  </outline>
</glyph>
<glyph name="guillemotright" format="1">
  <advance width="454"/>
  <unicode hex="00BB"/>
  <outline>
    <contour>
      <point x="261" y="25" type="line"/>
      <point x="423" y="271" type="line"/>
      <point x="312" y="511" type="line"/>
      <point x="226" y="511" type="line"/>
      <point x="319" y="271" type="line"/>
      <point x="174" y="25" type="line"/>
    </contour>
    <contour>
      <point x="97" y="25" type="line"/>
      <point x="258" y="271" type="line"/>
      <point x="148" y="511" type="line"/>
      <point x="61" y="511" type="line"/>
      <point x="155" y="271" type="line"/>
      <point x="10" y="25" type="line"/>
    </contour>
  </outline>
</glyph>
<glyph name="onequarter" format="1">
  <advance width="714"/>
  <unicode hex="00BC"/>
  <outline>
    <contour>
      <point x="518" y="0" type="line"/>
      <point x="600" y="0" type="line"/>
      <point x="609" y="92" type="line"/>
      <point x="662" y="92" type="line"/>
      <point x="675" y="150" type="line"/>
      <point x="615" y="150" type="line"/>
      <point x="638" y="364" type="line"/>
      <point x="493" y="364" type="line"/>
      <point x="358" y="153" type="line"/>
      <point x="360" y="92" type="line"/>
      <point x="527" y="92" type="line"/>
    </contour>
    <contour>
      <point x="609" y="650" type="line"/>
      <point x="389" y="325" type="line"/>
      <point x="176" y="0" type="line"/>
      <point x="103" y="0" type="line"/>
      <point x="332" y="337" type="line"/>
      <point x="536" y="650" type="line"/>
    </contour>
    <contour>
      <point x="45" y="350" type="line"/>
      <point x="116" y="350" type="line"/>
      <point x="141" y="586" type="line"/>
      <point x="69" y="586" type="line"/>
      <point x="76" y="650" type="line"/>
      <point x="231" y="650" type="line"/>
      <point x="199" y="350" type="line"/>
      <point x="266" y="350" type="line"/>
      <point x="259" y="286" type="line"/>
      <point x="38" y="286" type="line"/>
    </contour>
    <contour>
      <point x="523" y="300" type="line"/>
      <point x="549" y="300" type="line"/>
      <point x="533" y="150" type="line"/>
      <point x="428" y="150" type="line"/>
    </contour>
  </outline>
</glyph>
<glyph name="onehalf" format="1">
  <advance width="754"/>
  <unicode hex="00BD"/>
  <outline>
    <contour>
      <point x="499" y="244" type="line"/>
      <point x="515" y="293" type="line"/>
      <point x="531" y="303"/>
      <point x="549" y="306"/>
      <point x="565" y="306" type="curve" smooth="yes"/>
      <point x="601" y="306"/>
      <point x="617" y="289"/>
      <point x="617" y="267" type="curve" smooth="yes"/>
      <point x="617" y="206"/>
      <point x="498" y="126"/>
      <point x="408" y="59" type="curve"/>
      <point x="409" y="0" type="line"/>
      <point x="697" y="0" type="line"/>
      <point x="713" y="106" type="line"/>
      <point x="643" y="114" type="line"/>
      <point x="635" y="64" type="line"/>
      <point x="512" y="64" type="line"/>
      <point x="570" y="104"/>
      <point x="710" y="190"/>
      <point x="710" y="280" type="curve" smooth="yes"/>
      <point x="710" y="325"/>
      <point x="675" y="370"/>
      <point x="585" y="370" type="curve" smooth="yes"/>
      <point x="540" y="370"/>
      <point x="492" y="359"/>
      <point x="458" y="340" type="curve"/>
      <point x="435" y="250" type="line"/>
    </contour>
    <contour>
      <point x="607" y="650" type="line"/>
      <point x="387" y="325" type="line"/>
      <point x="174" y="0" type="line"/>
      <point x="101" y="0" type="line"/>
      <point x="330" y="337" type="line"/>
      <point x="534" y="650" type="line"/>
    </contour>
    <contour>
      <point x="43" y="350" type="line"/>
      <point x="114" y="350" type="line"/>
      <point x="139" y="586" type="line"/>
      <point x="67" y="586" type="line"/>
      <point x="74" y="650" type="line"/>
      <point x="229" y="650" type="line"/>
      <point x="197" y="350" type="line"/>
      <point x="264" y="350" type="line"/>
      <point x="257" y="286" type="line"/>
      <point x="36" y="286" type="line"/>
    </contour>
  </outline>
</glyph>
<glyph name="Atilde" format="1">
  <advance width="650"/>
  <unicode hex="00C3"/>
  <outline>
    <contour>
      <point x="-10" y="95" type="line"/>
      <point x="48" y="95" type="line"/>
      <point x="286" y="555" type="line"/>
      <point x="194" y="555" type="line"/>
      <point x="204" y="650" type="line"/>
      <point x="404" y="650" type="line"/>
      <point x="573" y="95" type="line"/>
      <point x="633" y="95" type="line"/>
      <point x="623" y="0" type="line"/>
      <point x="384" y="0" type="line"/>
      <point x="394" y="95" type="line"/>
      <point x="457" y="95" type="line"/>
      <point x="435" y="184" type="line"/>
      <point x="200" y="184" type="line"/>
      <point x="157" y="95" type="line"/>
      <point x="228" y="95" type="line"/>
      <point x="218" y="0" type="line"/>
      <point x="-19" y="0" type="line"/>
    </contour>
    <contour>
      <point x="253" y="701" type="line"/>
      <point x="265" y="729"/>
      <point x="281" y="736"/>
      <point x="301" y="736" type="curve" smooth="yes"/>
      <point x="344" y="736"/>
      <point x="373" y="704"/>
      <point x="421" y="704" type="curve" smooth="yes"/>
      <point x="480" y="704"/>
      <point x="503" y="755"/>
      <point x="512" y="812" type="curve"/>
      <point x="467" y="822" type="line"/>
      <point x="454" y="790"/>
      <point x="435" y="782"/>
      <point x="416" y="782" type="curve" smooth="yes"/>
      <point x="378" y="782"/>
      <point x="349" y="815"/>
      <point x="305" y="815" type="curve" smooth="yes"/>
      <point x="246" y="815"/>
      <point x="216" y="751"/>
      <point x="212" y="716" type="curve"/>
    </contour>
    <contour>
      <point x="350" y="491" type="line"/>
      <point x="240" y="265" type="line"/>
      <point x="414" y="265" type="line"/>
      <point x="356" y="491" type="line"/>
    </contour>
  </outline>
</glyph>
<glyph name="AE" format="1">
  <advance width="912"/>
  <unicode hex="00C6"/>
  <outline>
    <contour>
      <point x="830" y="0" type="line"/>
      <point x="869" y="188" type="line"/>
      <point x="779" y="196" type="line"/>
      <point x="748" y="95" type="line"/>
      <point x="534" y="95" type="line"/>
      <point x="554" y="280" type="line"/>
      <point x="834" y="280" type="line"/>
      <point x="844" y="375" type="line"/>
      <point x="563" y="375" type="line"/>
      <point x="582" y="555" type="line"/>
      <point x="790" y="555" type="line"/>
      <point x="799" y="454" type="line"/>
      <point x="890" y="463" type="line"/>
      <point x="891" y="650" type="line"/>
      <point x="243" y="650" type="line"/>
      <point x="234" y="555" type="line"/>
      <point x="319" y="555" type="line"/>
      <point x="45" y="95" type="line"/>
      <point x="-18" y="95" type="line"/>
      <point x="-28" y="0" type="line"/>
      <point x="214" y="0" type="line"/>
      <point x="223" y="95" type="line"/>
      <point x="156" y="95" type="line"/>
      <point x="207" y="184" type="line"/>
      <point x="435" y="184" type="line"/>
      <point x="425" y="95" type="line"/>
      <point x="352" y="95" type="line"/>
      <point x="343" y="0" type="line"/>
    </contour>
    <contour>
      <point x="443" y="265" type="line"/>
      <point x="253" y="265" type="line"/>
      <point x="420" y="555" type="line"/>
      <point x="474" y="555" type="line"/>
    </contour>
  </outline>
</glyph>
<glyph name="Ccedilla" format="1">
  <advance width="621"/>
  <unicode hex="00C7"/>
  <outline>
    <contour>
      <point x="552" y="62" type="line"/>
      <point x="505" y="19"/>
      <point x="411" y="-8"/>
      <point x="328" y="-10" type="curve"/>
      <point x="324" y="-43" type="line"/>
      <point x="332" y="-43" type="line" smooth="yes"/>
      <point x="390" y="-43"/>
      <point x="411" y="-76"/>
      <point x="411" y="-116" type="curve" smooth="yes"/>
      <point x="411" y="-184"/>
      <point x="345" y="-209"/>
      <point x="282" y="-209" type="curve" smooth="yes"/>
      <point x="239" y="-209"/>
      <point x="199" y="-198"/>
      <point x="179" y="-179" type="curve"/>
      <point x="205" y="-120" type="line"/>
      <point x="219" y="-131"/>
      <point x="245" y="-143"/>
      <point x="278" y="-143" type="curve" smooth="yes"/>
      <point x="308" y="-143"/>
      <point x="322" y="-133"/>
      <point x="322" y="-112" type="curve" smooth="yes"/>
      <point x="322" y="-92"/>
      <point x="310" y="-84"/>
      <point x="280" y="-84" type="curve" smooth="yes"/>
      <point x="247" y="-84" type="line"/>
      <point x="257" y="-4" type="line"/>
      <point x="113" y="21"/>
      <point x="34" y="137"/>
      <point x="34" y="287" type="curve" smooth="yes"/>
      <point x="34" y="464"/>
      <point x="144" y="660"/>
      <point x="388" y="660" type="curve" smooth="yes"/>
      <point x="494" y="660"/>
      <point x="567" y="623"/>
      <point x="606" y="583" type="curve"/>
      <point x="608" y="442" type="line"/>
      <point x="517" y="433" type="line"/>
      <point x="511" y="523" type="line"/>
      <point x="478" y="547"/>
      <point x="428" y="562"/>
      <point x="376" y="562" type="curve" smooth="yes"/>
      <point x="240" y="562"/>
      <point x="148" y="466"/>
      <point x="148" y="299" type="curve" smooth="yes"/>
      <point x="148" y="161"/>
      <point x="212" y="88"/>
      <point x="339" y="88" type="curve" smooth="yes"/>
      <point x="388" y="88"/>
      <point x="437" y="100"/>
      <point x="467" y="116" type="curve"/>
      <point x="493" y="213" type="line"/>
      <point x="581" y="204" type="line"/>
    </contour>
  </outline>
</glyph>
<glyph name="Eacute" format="1">
  <advance width="570"/>
  <unicode hex="00C9"/>
  <outline>
    <contour>
      <point x="510" y="727" type="line"/>
      <point x="487" y="826" type="line"/>
      <point x="283" y="743" type="line"/>
      <point x="295" y="694" type="line"/>
    </contour>
    <contour>
      <point x="491" y="0" type="line"/>
      <point x="10" y="0" type="line"/>
      <point x="19" y="95" type="line"/>
      <point x="93" y="95" type="line"/>
      <point x="141" y="555" type="line"/>
      <point x="68" y="555" type="line"/>
      <point x="78" y="650" type="line"/>
      <point x="554" y="650" type="line"/>
      <point x="554" y="462" type="line"/>
      <point x="462" y="454" type="line"/>
      <point x="453" y="555" type="line"/>
      <point x="247" y="555" type="line"/>
      <point x="228" y="375" type="line"/>
      <point x="511" y="375" type="line"/>
      <point x="501" y="280" type="line"/>
      <point x="218" y="280" type="line"/>
      <point x="199" y="95" type="line"/>
      <point x="410" y="95" type="line"/>
      <point x="440" y="196" type="line"/>
      <point x="530" y="188" type="line"/>
    </contour>
  </outline>
</glyph>
<glyph name="Igrave" format="1">
  <advance width="328"/>
  <unicode hex="00CC"/>
  <outline>
    <contour>
      <point x="20" y="95" type="line"/>
      <point x="92" y="95" type="line"/>
      <point x="140" y="555" type="line"/>
      <point x="68" y="555" type="line"/>
      <point x="78" y="650" type="line"/>
      <point x="328" y="650" type="line"/>
      <point x="318" y="555" type="line"/>
      <point x="246" y="555" type="line"/>
      <point x="198" y="95" type="line"/>
      <point x="270" y="95" type="line"/>
      <point x="260" y="0" type="line"/>
      <point x="10" y="0" type="line"/>
    </contour>
    <contour>
      <point x="274" y="694" type="line"/>
      <point x="285" y="743" type="line"/>
      <point x="81" y="826" type="line"/>
      <point x="59" y="727" type="line"/>
    </contour>
  </outline>
</glyph>
<glyph name="Iacute" format="1">
  <advance width="328"/>
  <unicode hex="00CD"/>
  <outline>
    <contour>
      <point x="20" y="95" type="line"/>
      <point x="92" y="95" type="line"/>
      <point x="140" y="555" type="line"/>
      <point x="68" y="555" type="line"/>
      <point x="78" y="650" type="line"/>
      <point x="328" y="650" type="line"/>
      <point x="318" y="555" type="line"/>
      <point x="246" y="555" type="line"/>
      <point x="198" y="95" type="line"/>
      <point x="270" y="95" type="line"/>
      <point x="260" y="0" type="line"/>
      <point x="10" y="0" type="line"/>
    </contour>
    <contour>
      <point x="357" y="727" type="line"/>
      <point x="334" y="826" type="line"/>
      <point x="130" y="743" type="line"/>
      <point x="142" y="694" type="line"/>
    </contour>
  </outline>
</glyph>
<glyph name="Idieresis" format="1">
  <advance width="328"/>
  <unicode hex="00CF"/>
  <outline>
    <contour>
      <point x="20" y="95" type="line"/>
      <point x="92" y="95" type="line"/>
      <point x="140" y="555" type="line"/>
      <point x="68" y="555" type="line"/>
      <point x="78" y="650" type="line"/>
      <point x="328" y="650" type="line"/>
      <point x="318" y="555" type="line"/>
      <point x="246" y="555" type="line"/>
      <point x="198" y="95" type="line"/>
      <point x="270" y="95" type="line"/>
      <point x="260" y="0" type="line"/>
      <point x="10" y="0" type="line"/>
    </contour>
    <contour>
      <point x="243" y="710" type="line"/>
      <point x="352" y="710" type="line"/>
      <point x="364" y="825" type="line"/>
      <point x="255" y="825" type="line"/>
    </contour>
    <contour>
      <point x="67" y="710" type="line"/>
      <point x="176" y="710" type="line"/>
      <point x="187" y="825" type="line"/>
      <point x="79" y="825" type="line"/>
    </contour>
  </outline>
</glyph>
<glyph name="Ucircumflex" format="1">
  <advance width="692"/>
  <unicode hex="00DB"/>
  <outline>
    <contour>
      <point x="464" y="650" type="line"/>
      <point x="702" y="650" type="line"/>
      <point x="692" y="555" type="line"/>
      <point x="633" y="555" type="line"/>
      <point x="603" y="268" type="line" smooth="yes"/>
      <point x="588" y="130"/>
      <point x="520" y="-10"/>
      <point x="322" y="-10" type="curve" smooth="yes"/>
      <point x="132" y="-10"/>
      <point x="72" y="117"/>
      <point x="87" y="257" type="curve" smooth="yes"/>
      <point x="118" y="555" type="line"/>
      <point x="59" y="555" type="line"/>
      <point x="69" y="650" type="line"/>
      <point x="313" y="650" type="line"/>
      <point x="303" y="555" type="line"/>
      <point x="225" y="555" type="line"/>
      <point x="194" y="260" type="line" smooth="yes"/>
      <point x="183" y="157"/>
      <point x="221" y="88"/>
      <point x="330" y="88" type="curve" smooth="yes"/>
      <point x="436" y="88"/>
      <point x="492" y="155"/>
      <point x="504" y="268" type="curve" smooth="yes"/>
      <point x="534" y="555" type="line"/>
      <point x="455" y="555" type="line"/>
    </contour>
    <contour>
      <point x="424" y="837" type="line"/>
      <point x="388" y="837" type="line"/>
      <point x="247" y="736" type="line"/>
      <point x="269" y="691" type="line"/>
      <point x="394" y="752" type="line"/>
      <point x="514" y="691" type="line"/>
      <point x="542" y="737" type="line"/>
    </contour>
  </outline>
</glyph>
<glyph name="Thorn" format="1">
  <advance width="565"/>
  <unicode hex="00DE"/>
  <outline>
    <contour>
      <point x="20" y="95" type="line"/>
      <point x="92" y="95" type="line"/>
      <point x="140" y="555" type="line"/>
      <point x="68" y="555" type="line"/>
      <point x="78" y="650" type="line"/>
      <point x="328" y="650" type="line"/>
      <point x="318" y="555" type="line"/>
      <point x="246" y="555" type="line"/>
      <point x="242" y="519" type="line"/>
      <point x="341" y="519" type="line" smooth="yes"/>
      <point x="486" y="519"/>
      <point x="557" y="460"/>
      <point x="557" y="355" type="curve" smooth="yes"/>
      <point x="557" y="208"/>
      <point x="443" y="143"/>
      <point x="307" y="143" type="curve" smooth="yes"/>
      <point x="203" y="143" type="line"/>
      <point x="198" y="95" type="line"/>
      <point x="270" y="95" type="line"/>
      <point x="260" y="0" type="line"/>
      <point x="10" y="0" type="line"/>
    </contour>
    <contour>
      <point x="295" y="214" type="line" smooth="yes"/>
      <point x="398" y="214"/>
      <point x="440" y="269"/>
      <point x="440" y="348" type="curve" smooth="yes"/>
      <point x="440" y="411"/>
      <point x="406" y="447"/>
      <point x="321" y="447" type="curve" smooth="yes"/>
      <point x="235" y="447" type="line"/>
      <point x="210" y="214" type="line"/>
    </contour>
  </outline>
</glyph>
<glyph name="germandbls" format="1">
  <advance width="630"/>
  <unicode hex="00DF"/>
  <outline>
    <contour>
      <point x="14" y="366" type="line"/>
      <point x="95" y="366" type="line"/>
      <point x="45" y="-35" type="line" smooth="yes"/>
      <point x="38" y="-87"/>
      <point x="22" y="-140"/>
      <point x="-22" y="-140" type="curve" smooth="yes"/>
      <point x="-46" y="-140"/>
      <point x="-75" y="-126"/>
      <point x="-74" y="-58" type="curve"/>
      <point x="-155" y="-82" type="line"/>
      <point x="-156" y="-181"/>
      <point x="-98" y="-222"/>
      <point x="-18" y="-222" type="curve" smooth="yes"/>
      <point x="99" y="-222"/>
      <point x="136" y="-131"/>
      <point x="148" y="-37" type="curve" smooth="yes"/>
      <point x="212" y="492" type="line" smooth="yes"/>
      <point x="222" y="572"/>
      <point x="262" y="617"/>
      <point x="355" y="617" type="curve" smooth="yes"/>
      <point x="433" y="617"/>
      <point x="467" y="586"/>
      <point x="467" y="544" type="curve" smooth="yes"/>
      <point x="467" y="435"/>
      <point x="264" y="462"/>
      <point x="264" y="316" type="curve" smooth="yes"/>
      <point x="264" y="224"/>
      <point x="344" y="206"/>
      <point x="410" y="189" type="curve" smooth="yes"/>
      <point x="460" y="177"/>
      <point x="496" y="167"/>
      <point x="496" y="129" type="curve" smooth="yes"/>
      <point x="496" y="92"/>
      <point x="462" y="72"/>
      <point x="412" y="72" type="curve" smooth="yes"/>
      <point x="391" y="72"/>
      <point x="354" y="75"/>
      <point x="329" y="86" type="curve"/>
      <point x="336" y="142" type="line"/>
      <point x="255" y="150" type="line"/>
      <point x="227" y="34" type="line"/>
      <point x="275" y="5"/>
      <point x="352" y="-10"/>
      <point x="424" y="-10" type="curve" smooth="yes"/>
      <point x="526" y="-10"/>
      <point x="604" y="39"/>
      <point x="604" y="136" type="curve" smooth="yes"/>
      <point x="604" y="239"/>
      <point x="514" y="254"/>
      <point x="445" y="272" type="curve" smooth="yes"/>
      <point x="402" y="283"/>
      <point x="371" y="295"/>
      <point x="371" y="328" type="curve" smooth="yes"/>
      <point x="371" y="414"/>
      <point x="573" y="399"/>
      <point x="573" y="551" type="curve" smooth="yes"/>
      <point x="573" y="637"/>
      <point x="508" y="698"/>
      <point x="364" y="698" type="curve" smooth="yes"/>
      <point x="234" y="698"/>
      <point x="130" y="646"/>
      <point x="112" y="501" type="curve" smooth="yes"/>
      <point x="105" y="449" type="line"/>
      <point x="49" y="449" type="line"/>
      <point x="19" y="422" type="line"/>
    </contour>
  </outline>
</glyph>
<glyph name="adieresis" format="1">
  <advance width="515"/>
  <unicode hex="00E4"/>
  <outline>
    <contour>
      <point x="477" y="449" type="line"/>
      <point x="462" y="398"/>
      <point x="449" y="348"/>
      <point x="443" y="297" type="curve" smooth="yes"/>
      <point x="416" y="82" type="line"/>
      <point x="477" y="82" type="line"/>
      <point x="470" y="22" type="line"/>
      <point x="444" y="0" type="line"/>
      <point x="320" y="0" type="line"/>
      <point x="318" y="91" type="line"/>
      <point x="290" y="36"/>
      <point x="243" y="-10"/>
      <point x="169" y="-10" type="curve" smooth="yes"/>
      <point x="71" y="-10"/>
      <point x="20" y="70"/>
      <point x="20" y="181" type="curve" smooth="yes"/>
      <point x="20" y="300"/>
      <point x="79" y="458"/>
      <point x="228" y="458" type="curve" smooth="yes"/>
      <point x="294" y="458"/>
      <point x="339" y="426"/>
      <point x="357" y="374" type="curve"/>
      <point x="363" y="399"/>
      <point x="369" y="424"/>
      <point x="378" y="449" type="curve"/>
    </contour>
    <contour>
      <point x="243" y="375" type="curve" smooth="yes"/>
      <point x="161" y="375"/>
      <point x="131" y="280"/>
      <point x="131" y="194" type="curve" smooth="yes"/>
      <point x="131" y="116"/>
      <point x="157" y="72"/>
      <point x="208" y="72" type="curve" smooth="yes"/>
      <point x="269" y="72"/>
      <point x="315" y="140"/>
      <point x="328" y="200" type="curve"/>
      <point x="336" y="261" type="line"/>
      <point x="339" y="331"/>
      <point x="296" y="375"/>
    </contour>
    <contour>
      <point x="335" y="540" type="line"/>
      <point x="444" y="540" type="line"/>
      <point x="456" y="655" type="line"/>
      <point x="346" y="655" type="line"/>
    </contour>
    <contour>
      <point x="159" y="540" type="line"/>
      <point x="267" y="540" type="line"/>
      <point x="279" y="655" type="line"/>
      <point x="171" y="655" type="line"/>
    </contour>
  </outline>
</glyph>
<glyph name="icircumflex" format="1">
  <advance width="267"/>
  <unicode hex="00EE"/>
  <outline>
    <contour>
      <point x="34" y="425" type="line"/>
      <point x="61" y="449" type="line"/>
      <point x="207" y="449" type="line"/>
      <point x="163" y="82" type="line"/>
      <point x="226" y="82" type="line"/>
      <point x="219" y="22" type="line"/>
      <point x="192" y="0" type="line"/>
      <point x="50" y="0" type="line"/>
      <point x="95" y="366" type="line"/>
      <point x="26" y="366" type="line"/>
    </contour>
    <contour>
      <point x="193" y="679" type="line"/>
      <point x="158" y="679" type="line"/>
      <point x="16" y="553" type="line"/>
      <point x="45" y="512" type="line"/>
      <point x="163" y="588" type="line"/>
      <point x="274" y="512" type="line"/>
      <point x="309" y="553" type="line"/>
    </contour>
  </outline>
</glyph>
<glyph name="idieresis" format="1">
  <advance width="267"/>
  <unicode hex="00EF"/>
  <outline>
    <contour>
      <point x="34" y="425" type="line"/>
      <point x="61" y="449" type="line"/>
      <point x="207" y="449" type="line"/>
      <point x="163" y="82" type="line"/>
      <point x="226" y="82" type="line"/>
      <point x="219" y="22" type="line"/>
      <point x="192" y="0" type="line"/>
      <point x="50" y="0" type="line"/>
      <point x="95" y="366" type="line"/>
      <point x="26" y="366" type="line"/>
    </contour>
    <contour>
      <point x="194" y="540" type="line"/>
      <point x="303" y="540" type="line"/>
      <point x="315" y="655" type="line"/>
      <point x="205" y="655" type="line"/>
    </contour>
    <contour>
      <point x="18" y="540" type="line"/>
      <point x="126" y="540" type="line"/>
      <point x="138" y="655" type="line"/>
      <point x="30" y="655" type="line"/>
    </contour>
  </outline>
</glyph>
<glyph name="ntilde" format="1">
  <advance width="534"/>
  <unicode hex="00F1"/>
  <outline>
    <contour>
      <point x="59" y="449" type="line"/>
      <point x="188" y="449" type="line"/>
      <point x="191" y="362" type="line"/>
      <point x="222" y="420"/>
      <point x="269" y="458"/>
      <point x="338" y="458" type="curve" smooth="yes"/>
      <point x="420" y="458"/>
      <point x="482" y="408"/>
      <point x="468" y="297" type="curve" smooth="yes"/>
      <point x="442" y="82" type="line"/>
      <point x="507" y="82" type="line"/>
      <point x="499" y="22" type="line"/>
      <point x="472" y="0" type="line"/>
      <point x="330" y="0" type="line"/>
      <point x="362" y="258" type="line" smooth="yes"/>
      <point x="372" y="343"/>
      <point x="346" y="375"/>
      <point x="291" y="375" type="curve" smooth="yes"/>
      <point x="225" y="375"/>
      <point x="190" y="322"/>
      <point x="182" y="257" type="curve"/>
      <point x="182" y="258" type="line"/>
      <point x="150" y="0" type="line"/>
      <point x="48" y="0" type="line"/>
      <point x="93" y="366" type="line"/>
      <point x="24" y="366" type="line"/>
      <point x="31" y="425" type="line"/>
    </contour>
    <contour>
      <point x="192" y="528" type="line"/>
      <point x="204" y="558"/>
      <point x="222" y="571"/>
      <point x="243" y="571" type="curve" smooth="yes"/>
      <point x="280" y="571"/>
      <point x="310" y="531"/>
      <point x="360" y="531" type="curve" smooth="yes"/>
      <point x="418" y="531"/>
      <point x="442" y="590"/>
      <point x="451" y="647" type="curve"/>
      <point x="406" y="657" type="line"/>
      <point x="393" y="625"/>
      <point x="374" y="615"/>
      <point x="356" y="615" type="curve" smooth="yes"/>
      <point x="317" y="615"/>
      <point x="288" y="653"/>
      <point x="245" y="653" type="curve" smooth="yes"/>
      <point x="186" y="653"/>
      <point x="154" y="579"/>
      <point x="150" y="542" type="curve"/>
    </contour>
  </outline>
</glyph>
<glyph name="oacute" format="1">
  <advance width="483"/>
  <unicode hex="00F3"/>
  <outline>
    <contour>
      <point x="434" y="609" type="line"/>
      <point x="384" y="693" type="line"/>
      <point x="214" y="555" type="line"/>
      <point x="239" y="512" type="line"/>
    </contour>
    <contour>
      <point x="22" y="192" type="curve" smooth="yes"/>
      <point x="22" y="330"/>
      <point x="99" y="458"/>
      <point x="260" y="458" type="curve" smooth="yes"/>
      <point x="395" y="458"/>
      <point x="451" y="369"/>
      <point x="451" y="251" type="curve" smooth="yes"/>
      <point x="451" y="99"/>
      <point x="357" y="-10"/>
      <point x="210" y="-10" type="curve" smooth="yes"/>
      <point x="88" y="-10"/>
      <point x="22" y="66"/>
    </contour>
    <contour>
      <point x="133" y="200" type="curve" smooth="yes"/>
      <point x="133" y="123"/>
      <point x="152" y="72"/>
      <point x="220" y="72" type="curve" smooth="yes"/>
      <point x="307" y="72"/>
      <point x="341" y="153"/>
      <point x="341" y="248" type="curve" smooth="yes"/>
      <point x="341" y="332"/>
      <point x="315" y="375"/>
      <point x="249" y="375" type="curve" smooth="yes"/>
      <point x="171" y="375"/>
      <point x="133" y="312"/>
    </contour>
  </outline>
</glyph>
<glyph name="ocircumflex" format="1">
  <advance width="483"/>
  <unicode hex="00F4"/>
  <outline>
    <contour>
      <point x="298" y="679" type="line"/>
      <point x="263" y="679" type="line"/>
      <point x="121" y="553" type="line"/>
      <point x="150" y="512" type="line"/>
      <point x="268" y="588" type="line"/>
      <point x="379" y="512" type="line"/>
      <point x="414" y="553" type="line"/>
    </contour>
    <contour>
      <point x="22" y="192" type="curve" smooth="yes"/>
      <point x="22" y="330"/>
      <point x="99" y="458"/>
      <point x="260" y="458" type="curve" smooth="yes"/>
      <point x="395" y="458"/>
      <point x="451" y="369"/>
      <point x="451" y="251" type="curve" smooth="yes"/>
      <point x="451" y="99"/>
      <point x="357" y="-10"/>
      <point x="210" y="-10" type="curve" smooth="yes"/>
      <point x="88" y="-10"/>
      <point x="22" y="66"/>
    </contour>
    <contour>
      <point x="133" y="200" type="curve" smooth="yes"/>
      <point x="133" y="123"/>
      <point x="152" y="72"/>
      <point x="220" y="72" type="curve" smooth="yes"/>
      <point x="307" y="72"/>
      <point x="341" y="153"/>
      <point x="341" y="248" type="curve" smooth="yes"/>
      <point x="341" y="332"/>
      <point x="315" y="375"/>
      <point x="249" y="375" type="curve" smooth="yes"/>
      <point x="171" y="375"/>
      <point x="133" y="312"/>
    </contour>
  </outline>
</glyph>
<glyph name="otilde" format="1">
  <advance width="483"/>
  <unicode hex="00F5"/>
  <outline>
    <contour>
      <point x="22" y="192" type="curve" smooth="yes"/>
      <point x="22" y="330"/>
      <point x="99" y="458"/>
      <point x="260" y="458" type="curve" smooth="yes"/>
      <point x="395" y="458"/>
      <point x="451" y="369"/>
      <point x="451" y="251" type="curve" smooth="yes"/>
      <point x="451" y="99"/>
      <point x="357" y="-10"/>
      <point x="210" y="-10" type="curve" smooth="yes"/>
      <point x="88" y="-10"/>
      <point x="22" y="66"/>
    </contour>
    <contour>
      <point x="133" y="200" type="curve" smooth="yes"/>
      <point x="133" y="123"/>
      <point x="152" y="72"/>
      <point x="220" y="72" type="curve" smooth="yes"/>
      <point x="307" y="72"/>
      <point x="341" y="153"/>
      <point x="341" y="248" type="curve" smooth="yes"/>
      <point x="341" y="332"/>
      <point x="315" y="375"/>
      <point x="249" y="375" type="curve" smooth="yes"/>
      <point x="171" y="375"/>
      <point x="133" y="312"/>
    </contour>
    <contour>
      <point x="164" y="528" type="line"/>
      <point x="176" y="558"/>
      <point x="194" y="571"/>
      <point x="215" y="571" type="curve" smooth="yes"/>
      <point x="252" y="571"/>
      <point x="282" y="531"/>
      <point x="332" y="531" type="curve" smooth="yes"/>
      <point x="390" y="531"/>
      <point x="414" y="590"/>
      <point x="423" y="647" type="curve"/>
      <point x="378" y="657" type="line"/>
      <point x="365" y="625"/>
      <point x="346" y="615"/>
      <point x="328" y="615" type="curve" smooth="yes"/>
      <point x="289" y="615"/>
      <point x="260" y="653"/>
      <point x="217" y="653" type="curve" smooth="yes"/>
      <point x="158" y="653"/>
      <point x="126" y="579"/>
      <point x="122" y="542" type="curve"/>
    </contour>
  </outline>
</glyph>
<glyph name="ugrave" format="1">
  <advance width="534"/>
  <unicode hex="00F9"/>
  <outline>
    <contour>
      <point x="500" y="82" type="line"/>
      <point x="493" y="24" type="line"/>
      <point x="465" y="0" type="line"/>
      <point x="336" y="0" type="line"/>
      <point x="333" y="86" type="line"/>
      <point x="303" y="29"/>
      <point x="255" y="-9"/>
      <point x="187" y="-9" type="curve" smooth="yes"/>
      <point x="105" y="-9"/>
      <point x="43" y="41"/>
      <point x="57" y="152" type="curve" smooth="yes"/>
      <point x="83" y="366" type="line"/>
      <point x="18" y="366" type="line"/>
      <point x="26" y="427" type="line"/>
      <point x="52" y="449" type="line"/>
      <point x="195" y="449" type="line"/>
      <point x="163" y="191" type="line" smooth="yes"/>
      <point x="152" y="106"/>
      <point x="178" y="73"/>
      <point x="234" y="73" type="curve" smooth="yes"/>
      <point x="296" y="73"/>
      <point x="330" y="121"/>
      <point x="341" y="181" type="curve"/>
      <point x="374" y="449" type="line"/>
      <point x="476" y="449" type="line"/>
      <point x="432" y="82" type="line"/>
    </contour>
    <contour>
      <point x="323" y="512" type="line"/>
      <point x="348" y="555" type="line"/>
      <point x="177" y="693" type="line"/>
      <point x="127" y="609" type="line"/>
    </contour>
  </outline>
</glyph>
<glyph name="yacute" format="1">
  <advance width="476"/>
  <unicode hex="00FD"/>
  <outline>
    <contour>
      <point x="246" y="123" type="line"/>
      <point x="252" y="123" type="line"/>
      <point x="323" y="212"/>
      <point x="355" y="278"/>
      <point x="355" y="356" type="curve" smooth="yes"/>
      <point x="355" y="384"/>
      <point x="350" y="416"/>
      <point x="336" y="449" type="curve"/>
      <point x="453" y="449" type="line"/>
      <point x="469" y="370"/>
      <point x="459" y="283"/>
      <point x="391" y="188" type="curve" smooth="yes"/>
      <point x="364" y="150"/>
      <point x="315" y="91"/>
      <point x="267" y="40" type="curve"/>
      <point x="242" y="-131" type="line"/>
      <point x="311" y="-131" type="line"/>
      <point x="303" y="-189" type="line"/>
      <point x="276" y="-213" type="line"/>
      <point x="56" y="-213" type="line"/>
      <point x="64" y="-155" type="line"/>
      <point x="91" y="-131" type="line"/>
      <point x="139" y="-131" type="line"/>
      <point x="165" y="43" type="line"/>
      <point x="61" y="366" type="line"/>
      <point x="10" y="366" type="line"/>
      <point x="18" y="425" type="line"/>
      <point x="45" y="449" type="line"/>
      <point x="246" y="449" type="line"/>
      <point x="239" y="390" type="line"/>
      <point x="211" y="366" type="line"/>
      <point x="171" y="366" type="line"/>
    </contour>
    <contour>
      <point x="436" y="609" type="line"/>
      <point x="386" y="693" type="line"/>
      <point x="216" y="555" type="line"/>
      <point x="241" y="512" type="line"/>
    </contour>
  </outline>
</glyph>
<glyph name="thorn" format="1">
  <advance width="508"/>
  <unicode hex="00FE"/>
  <outline>
    <contour>
      <point x="198" y="-189" type="line"/>
      <point x="170" y="-213" type="line"/>
      <point x="-59" y="-213" type="line"/>
      <point x="-52" y="-155" type="line"/>
      <point x="-25" y="-131" type="line"/>
      <point x="11" y="-131" type="line"/>
      <point x="102" y="606" type="line"/>
      <point x="34" y="606" type="line"/>
      <point x="41" y="664" type="line"/>
      <point x="68" y="688" type="line"/>
      <point x="215" y="688" type="line"/>
      <point x="199" y="549" type="line"/>
      <point x="176" y="368" type="line"/>
      <point x="204" y="418"/>
      <point x="248" y="458"/>
      <point x="317" y="458" type="curve" smooth="yes"/>
      <point x="423" y="458"/>
      <point x="476" y="374"/>
      <point x="476" y="267" type="curve" smooth="yes"/>
      <point x="476" y="143"/>
      <point x="413" y="-10"/>
      <point x="261" y="-10" type="curve" smooth="yes"/>
      <point x="201" y="-10"/>
      <point x="158" y="15"/>
      <point x="137" y="58" type="curve"/>
      <point x="114" y="-131" type="line"/>
      <point x="205" y="-131" type="line"/>
    </contour>
    <contour>
      <point x="249" y="72" type="curve" smooth="yes"/>
      <point x="328" y="72"/>
      <point x="364" y="175"/>
      <point x="364" y="255" type="curve" smooth="yes"/>
      <point x="364" y="324"/>
      <point x="337" y="375"/>
      <point x="281" y="375" type="curve" smooth="yes"/>
      <point x="214" y="375"/>
      <point x="174" y="309"/>
      <point x="161" y="247" type="curve"/>
      <point x="152" y="178" type="line"/>
      <point x="153" y="115"/>
      <point x="190" y="72"/>
    </contour>
  </outline>
</glyph>
<glyph name="abreve" format="1">
  <advance width="515"/>
  <unicode hex="0103"/>
  <outline>
    <contour>
      <point x="477" y="449" type="line"/>
      <point x="462" y="398"/>
      <point x="449" y="348"/>
      <point x="443" y="297" type="curve" smooth="yes"/>
      <point x="416" y="82" type="line"/>
      <point x="477" y="82" type="line"/>
      <point x="470" y="22" type="line"/>
      <point x="444" y="0" type="line"/>
      <point x="320" y="0" type="line"/>
      <point x="318" y="91" type="line"/>
      <point x="290" y="36"/>
      <point x="243" y="-10"/>
      <point x="169" y="-10" type="curve" smooth="yes"/>
      <point x="71" y="-10"/>
      <point x="20" y="70"/>
      <point x="20" y="181" type="curve" smooth="yes"/>
      <point x="20" y="300"/>
      <point x="79" y="458"/>
      <point x="228" y="458" type="curve" smooth="yes"/>
      <point x="294" y="458"/>
      <point x="339" y="426"/>
      <point x="357" y="374" type="curve"/>
      <point x="363" y="399"/>
      <point x="369" y="424"/>
      <point x="378" y="449" type="curve"/>
    </contour>
    <contour>
      <point x="243" y="375" type="curve" smooth="yes"/>
      <point x="161" y="375"/>
      <point x="131" y="280"/>
      <point x="131" y="194" type="curve" smooth="yes"/>
      <point x="131" y="116"/>
      <point x="157" y="72"/>
      <point x="208" y="72" type="curve" smooth="yes"/>
      <point x="269" y="72"/>
      <point x="315" y="140"/>
      <point x="328" y="200" type="curve"/>
      <point x="336" y="261" type="line"/>
      <point x="339" y="331"/>
      <point x="296" y="375"/>
    </contour>
    <contour>
      <point x="350" y="654" type="curve"/>
      <point x="434" y="654" type="line"/>
      <point x="424" y="563"/>
      <point x="368" y="522"/>
      <point x="287" y="522" type="curve" smooth="yes"/>
      <point x="206" y="522"/>
      <point x="164" y="566"/>
      <point x="173" y="654" type="curve"/>
      <point x="257" y="654" type="line"/>
      <point x="253" y="611"/>
      <point x="265" y="588"/>
      <point x="296" y="588" type="curve" smooth="yes"/>
      <point x="329" y="588"/>
      <point x="345" y="615"/>
    </contour>
  </outline>
</glyph>
<glyph name="aogonek" format="1">
  <advance width="515"/>
  <unicode hex="0105"/>
  <outline>
    <contour>
      <point x="458" y="-188" type="line"/>
      <point x="435" y="-200"/>
      <point x="406" y="-208"/>
      <point x="372" y="-208" type="curve" smooth="yes"/>
      <point x="313" y="-208"/>
      <point x="270" y="-182"/>
      <point x="270" y="-125" type="curve" smooth="yes"/>
      <point x="270" y="-72"/>
      <point x="308" y="-27"/>
      <point x="354" y="0" type="curve"/>
      <point x="320" y="0" type="line"/>
      <point x="318" y="91" type="line"/>
      <point x="290" y="36"/>
      <point x="243" y="-10"/>
      <point x="169" y="-10" type="curve" smooth="yes"/>
      <point x="71" y="-10"/>
      <point x="20" y="70"/>
      <point x="20" y="181" type="curve" smooth="yes"/>
      <point x="20" y="300"/>
      <point x="79" y="458"/>
      <point x="228" y="458" type="curve" smooth="yes"/>
      <point x="294" y="458"/>
      <point x="339" y="426"/>
      <point x="357" y="374" type="curve"/>
      <point x="363" y="399"/>
      <point x="369" y="424"/>
      <point x="378" y="449" type="curve"/>
      <point x="477" y="449" type="line"/>
      <point x="462" y="398"/>
      <point x="449" y="348"/>
      <point x="443" y="297" type="curve" smooth="yes"/>
      <point x="416" y="82" type="line"/>
      <point x="477" y="82" type="line"/>
      <point x="470" y="22" type="line"/>
      <point x="444" y="0" type="line"/>
      <point x="423" y="0" type="line"/>
      <point x="373" y="-31"/>
      <point x="364" y="-66"/>
      <point x="364" y="-88" type="curve" smooth="yes"/>
      <point x="364" y="-123"/>
      <point x="381" y="-132"/>
      <point x="407" y="-132" type="curve" smooth="yes"/>
      <point x="423" y="-132"/>
      <point x="441" y="-128"/>
      <point x="457" y="-119" type="curve"/>
    </contour>
    <contour>
      <point x="243" y="375" type="curve" smooth="yes"/>
      <point x="161" y="375"/>
      <point x="131" y="280"/>
      <point x="131" y="194" type="curve" smooth="yes"/>
      <point x="131" y="116"/>
      <point x="157" y="72"/>
      <point x="208" y="72" type="curve" smooth="yes"/>
      <point x="269" y="72"/>
      <point x="315" y="140"/>
      <point x="328" y="200" type="curve"/>
      <point x="336" y="261" type="line"/>
      <point x="339" y="331"/>
      <point x="296" y="375"/>
    </contour>
  </outline>
</glyph>
<glyph name="Cdotaccent" format="1">
  <advance width="622"/>
  <unicode hex="010A"/>
  <outline>
    <contour>
      <point x="329" y="710" type="line"/>
      <point x="438" y="710" type="line"/>
      <point x="450" y="825" type="line"/>
      <point x="341" y="825" type="line"/>
    </contour>
    <contour>
      <point x="552" y="62" type="line"/>
      <point x="503" y="18"/>
      <point x="404" y="-10"/>
      <point x="319" y="-10" type="curve" smooth="yes"/>
      <point x="136" y="-10"/>
      <point x="34" y="117"/>
      <point x="34" y="287" type="curve" smooth="yes"/>
      <point x="34" y="464"/>
      <point x="144" y="660"/>
      <point x="388" y="660" type="curve" smooth="yes"/>
      <point x="494" y="660"/>
      <point x="567" y="623"/>
      <point x="606" y="583" type="curve"/>
      <point x="608" y="442" type="line"/>
      <point x="517" y="433" type="line"/>
      <point x="511" y="523" type="line"/>
      <point x="478" y="547"/>
      <point x="428" y="562"/>
      <point x="376" y="562" type="curve" smooth="yes"/>
      <point x="240" y="562"/>
      <point x="148" y="466"/>
      <point x="148" y="299" type="curve" smooth="yes"/>
      <point x="148" y="161"/>
      <point x="212" y="88"/>
      <point x="339" y="88" type="curve" smooth="yes"/>
      <point x="388" y="88"/>
      <point x="437" y="100"/>
      <point x="467" y="116" type="curve"/>
      <point x="493" y="213" type="line"/>
      <point x="581" y="204" type="line"/>
    </contour>
  </outline>
</glyph>
<glyph name="Ccaron" format="1">
  <advance width="622"/>
  <unicode hex="010C"/>
  <outline>
    <contour>
      <point x="552" y="62" type="line"/>
      <point x="503" y="18"/>
      <point x="404" y="-10"/>
      <point x="319" y="-10" type="curve" smooth="yes"/>
      <point x="136" y="-10"/>
      <point x="34" y="117"/>
      <point x="34" y="287" type="curve" smooth="yes"/>
      <point x="34" y="464"/>
      <point x="144" y="660"/>
      <point x="388" y="660" type="curve" smooth="yes"/>
      <point x="494" y="660"/>
      <point x="567" y="623"/>
      <point x="606" y="583" type="curve"/>
      <point x="608" y="442" type="line"/>
      <point x="517" y="433" type="line"/>
      <point x="511" y="523" type="line"/>
      <point x="478" y="547"/>
      <point x="428" y="562"/>
      <point x="376" y="562" type="curve" smooth="yes"/>
      <point x="240" y="562"/>
      <point x="148" y="466"/>
      <point x="148" y="299" type="curve" smooth="yes"/>
      <point x="148" y="161"/>
      <point x="212" y="88"/>
      <point x="339" y="88" type="curve" smooth="yes"/>
      <point x="388" y="88"/>
      <point x="437" y="100"/>
      <point x="467" y="116" type="curve"/>
      <point x="493" y="213" type="line"/>
      <point x="581" y="204" type="line"/>
    </contour>
    <contour>
      <point x="362" y="691" type="line"/>
      <point x="398" y="691" type="line"/>
      <point x="538" y="791" type="line"/>
      <point x="517" y="837" type="line"/>
      <point x="391" y="774" type="line"/>
      <point x="271" y="836" type="line"/>
      <point x="243" y="791" type="line"/>
    </contour>
  </outline>
</glyph>
<glyph name="Dcaron" format="1">
  <advance width="678"/>
  <unicode hex="010E"/>
  <outline>
    <contour>
      <point x="10" y="0" type="line"/>
      <point x="20" y="95" type="line"/>
      <point x="93" y="95" type="line"/>
      <point x="141" y="555" type="line"/>
      <point x="68" y="555" type="line"/>
      <point x="78" y="650" type="line"/>
      <point x="363" y="650" type="line" smooth="yes"/>
      <point x="557" y="650"/>
      <point x="654" y="537"/>
      <point x="654" y="362" type="curve" smooth="yes"/>
      <point x="654" y="153"/>
      <point x="516" y="0"/>
      <point x="301" y="0" type="curve" smooth="yes"/>
    </contour>
    <contour>
      <point x="303" y="95" type="line" smooth="yes"/>
      <point x="453" y="95"/>
      <point x="540" y="191"/>
      <point x="540" y="352" type="curve" smooth="yes"/>
      <point x="540" y="485"/>
      <point x="478" y="555"/>
      <point x="351" y="555" type="curve" smooth="yes"/>
      <point x="246" y="555" type="line"/>
      <point x="198" y="95" type="line"/>
    </contour>
    <contour>
      <point x="352" y="691" type="line"/>
      <point x="388" y="691" type="line"/>
      <point x="528" y="791" type="line"/>
      <point x="507" y="837" type="line"/>
      <point x="381" y="774" type="line"/>
      <point x="261" y="836" type="line"/>
      <point x="233" y="791" type="line"/>
    </contour>
  </outline>
</glyph>
<glyph name="emacron" format="1">
  <advance width="441"/>
  <unicode hex="0113"/>
  <outline>
    <contour>
      <point x="222" y="72" type="curve" smooth="yes"/>
      <point x="287" y="72"/>
      <point x="309" y="117"/>
      <point x="321" y="152" type="curve"/>
      <point x="404" y="135" type="line"/>
      <point x="389" y="58"/>
      <point x="319" y="-10"/>
      <point x="206" y="-10" type="curve" smooth="yes"/>
      <point x="98" y="-10"/>
      <point x="20" y="53"/>
      <point x="20" y="189" type="curve" smooth="yes"/>
      <point x="20" y="336"/>
      <point x="110" y="458"/>
      <point x="257" y="458" type="curve" smooth="yes"/>
      <point x="347" y="458"/>
      <point x="413" y="411"/>
      <point x="413" y="339" type="curve" smooth="yes"/>
      <point x="413" y="272"/>
      <point x="372" y="225"/>
      <point x="253" y="200" type="curve" smooth="yes"/>
      <point x="218" y="192"/>
      <point x="177" y="186"/>
      <point x="132" y="181" type="curve"/>
      <point x="135" y="112"/>
      <point x="158" y="72"/>
    </contour>
    <contour>
      <point x="155" y="629" type="line"/>
      <point x="409" y="629" type="line"/>
      <point x="400" y="547" type="line"/>
      <point x="146" y="547" type="line"/>
    </contour>
    <contour>
      <point x="202" y="256" type="curve" smooth="yes"/>
      <point x="290" y="274"/>
      <point x="305" y="302"/>
      <point x="305" y="332" type="curve" smooth="yes"/>
      <point x="305" y="369"/>
      <point x="278" y="383"/>
      <point x="244" y="383" type="curve" smooth="yes"/>
      <point x="174" y="383"/>
      <point x="144" y="315"/>
      <point x="135" y="245" type="curve"/>
      <point x="161" y="248"/>
      <point x="184" y="253"/>
    </contour>
  </outline>
</glyph>
<glyph name="Edotaccent" format="1">
  <advance width="570"/>
  <unicode hex="0116"/>
  <outline>
    <contour>
      <point x="304" y="710" type="line"/>
      <point x="413" y="710" type="line"/>
      <point x="425" y="825" type="line"/>
      <point x="316" y="825" type="line"/>
    </contour>
    <contour>
      <point x="491" y="0" type="line"/>
      <point x="10" y="0" type="line"/>
      <point x="19" y="95" type="line"/>
      <point x="93" y="95" type="line"/>
      <point x="141" y="555" type="line"/>
      <point x="68" y="555" type="line"/>
      <point x="78" y="650" type="line"/>
      <point x="554" y="650" type="line"/>
      <point x="554" y="462" type="line"/>
      <point x="462" y="454" type="line"/>
      <point x="453" y="555" type="line"/>
      <point x="247" y="555" type="line"/>
      <point x="228" y="375" type="line"/>
      <point x="511" y="375" type="line"/>
      <point x="501" y="280" type="line"/>
      <point x="218" y="280" type="line"/>
      <point x="199" y="95" type="line"/>
      <point x="410" y="95" type="line"/>
      <point x="440" y="196" type="line"/>
      <point x="530" y="188" type="line"/>
    </contour>
  </outline>
</glyph>
<glyph name="Ecaron" format="1">
  <advance width="570"/>
  <unicode hex="011A"/>
  <outline>
    <contour>
      <point x="334" y="691" type="line"/>
      <point x="370" y="691" type="line"/>
      <point x="510" y="791" type="line"/>
      <point x="489" y="837" type="line"/>
      <point x="363" y="774" type="line"/>
      <point x="243" y="836" type="line"/>
      <point x="215" y="791" type="line"/>
    </contour>
    <contour>
      <point x="491" y="0" type="line"/>
      <point x="10" y="0" type="line"/>
      <point x="19" y="95" type="line"/>
      <point x="93" y="95" type="line"/>
      <point x="141" y="555" type="line"/>
      <point x="68" y="555" type="line"/>
      <point x="78" y="650" type="line"/>
      <point x="554" y="650" type="line"/>
      <point x="554" y="462" type="line"/>
      <point x="462" y="454" type="line"/>
      <point x="453" y="555" type="line"/>
      <point x="247" y="555" type="line"/>
      <point x="228" y="375" type="line"/>
      <point x="511" y="375" type="line"/>
      <point x="501" y="280" type="line"/>
      <point x="218" y="280" type="line"/>
      <point x="199" y="95" type="line"/>
      <point x="410" y="95" type="line"/>
      <point x="440" y="196" type="line"/>
      <point x="530" y="188" type="line"/>
    </contour>
  </outline>
</glyph>
<glyph name="itilde" format="1">
  <advance width="267"/>
  <unicode hex="0129"/>
  <outline>
    <contour>
      <point x="34" y="425" type="line"/>
      <point x="61" y="449" type="line"/>
      <point x="207" y="449" type="line"/>
      <point x="163" y="82" type="line"/>
      <point x="226" y="82" type="line"/>
      <point x="219" y="22" type="line"/>
      <point x="192" y="0" type="line"/>
      <point x="50" y="0" type="line"/>
      <point x="95" y="366" type="line"/>
      <point x="26" y="366" type="line"/>
    </contour>
    <contour>
      <point x="56" y="528" type="line"/>
      <point x="68" y="558"/>
      <point x="86" y="571"/>
      <point x="107" y="571" type="curve" smooth="yes"/>
      <point x="144" y="571"/>
      <point x="174" y="531"/>
      <point x="224" y="531" type="curve" smooth="yes"/>
      <point x="282" y="531"/>
      <point x="306" y="590"/>
      <point x="315" y="647" type="curve"/>
      <point x="270" y="657" type="line"/>
      <point x="257" y="625"/>
      <point x="238" y="615"/>
      <point x="220" y="615" type="curve" smooth="yes"/>
      <point x="181" y="615"/>
      <point x="152" y="653"/>
      <point x="109" y="653" type="curve" smooth="yes"/>
      <point x="50" y="653"/>
      <point x="18" y="579"/>
      <point x="14" y="542" type="curve"/>
    </contour>
  </outline>
</glyph>
<glyph name="ibreve" format="1">
  <advance width="267"/>
  <unicode hex="012D"/>
  <outline>
    <contour>
      <point x="34" y="425" type="line"/>
      <point x="61" y="449" type="line"/>
      <point x="207" y="449" type="line"/>
      <point x="163" y="82" type="line"/>
      <point x="226" y="82" type="line"/>
      <point x="219" y="22" type="line"/>
      <point x="192" y="0" type="line"/>
      <point x="50" y="0" type="line"/>
      <point x="95" y="366" type="line"/>
      <point x="26" y="366" type="line"/>
    </contour>
    <contour>
      <point x="221" y="654" type="curve"/>
      <point x="305" y="654" type="line"/>
      <point x="295" y="563"/>
      <point x="239" y="522"/>
      <point x="158" y="522" type="curve" smooth="yes"/>
      <point x="77" y="522"/>
      <point x="35" y="566"/>
      <point x="44" y="654" type="curve"/>
      <point x="128" y="654" type="line"/>
      <point x="124" y="611"/>
      <point x="136" y="588"/>
      <point x="167" y="588" type="curve" smooth="yes"/>
      <point x="200" y="588"/>
      <point x="216" y="615"/>
    </contour>
  </outline>
</glyph>
<glyph name="Iogonek" format="1">
  <advance width="329"/>
  <unicode hex="012E"/>
  <outline>
    <contour>
      <point x="208" y="-188" type="line"/>
      <point x="185" y="-200"/>
      <point x="156" y="-208"/>
      <point x="122" y="-208" type="curve" smooth="yes"/>
      <point x="63" y="-208"/>
      <point x="20" y="-182"/>
      <point x="20" y="-125" type="curve" smooth="yes"/>
      <point x="20" y="-72"/>
      <point x="58" y="-27"/>
      <point x="104" y="0" type="curve"/>
      <point x="11" y="0" type="line"/>
      <point x="21" y="95" type="line"/>
      <point x="93" y="95" type="line"/>
      <point x="141" y="555" type="line"/>
      <point x="69" y="555" type="line"/>
      <point x="79" y="650" type="line"/>
      <point x="329" y="650" type="line"/>
      <point x="319" y="555" type="line"/>
      <point x="247" y="555" type="line"/>
      <point x="199" y="95" type="line"/>
      <point x="271" y="95" type="line"/>
      <point x="261" y="0" type="line"/>
      <point x="173" y="0" type="line"/>
      <point x="123" y="-31"/>
      <point x="114" y="-66"/>
      <point x="114" y="-88" type="curve" smooth="yes"/>
      <point x="114" y="-123"/>
      <point x="131" y="-132"/>
      <point x="157" y="-132" type="curve" smooth="yes"/>
      <point x="173" y="-132"/>
      <point x="191" y="-128"/>
      <point x="207" y="-119" type="curve"/>
    </contour>
  </outline>
</glyph>
<glyph name="iogonek" format="1">
  <advance width="267"/>
  <unicode hex="012F"/>
  <outline>
    <contour>
      <point x="197" y="-188" type="line"/>
      <point x="174" y="-200"/>
      <point x="145" y="-208"/>
      <point x="111" y="-208" type="curve" smooth="yes"/>
      <point x="52" y="-208"/>
      <point x="9" y="-182"/>
      <point x="9" y="-125" type="curve" smooth="yes"/>
      <point x="9" y="-72"/>
      <point x="47" y="-27"/>
      <point x="93" y="0" type="curve"/>
      <point x="50" y="0" type="line"/>
      <point x="95" y="366" type="line"/>
      <point x="26" y="366" type="line"/>
      <point x="34" y="425" type="line"/>
      <point x="61" y="449" type="line"/>
      <point x="207" y="449" type="line"/>
      <point x="162" y="82" type="line"/>
      <point x="226" y="82" type="line"/>
      <point x="219" y="22" type="line"/>
      <point x="192" y="0" type="line"/>
      <point x="162" y="0" type="line"/>
      <point x="112" y="-31"/>
      <point x="103" y="-66"/>
      <point x="103" y="-88" type="curve" smooth="yes"/>
      <point x="103" y="-123"/>
      <point x="120" y="-132"/>
      <point x="146" y="-132" type="curve" smooth="yes"/>
      <point x="162" y="-132"/>
      <point x="180" y="-128"/>
      <point x="196" y="-119" type="curve"/>
    </contour>
    <contour>
      <point x="116" y="542" type="line"/>
      <point x="219" y="542" type="line"/>
      <point x="231" y="660" type="line"/>
      <point x="129" y="660" type="line"/>
    </contour>
  </outline>
</glyph>
<glyph name="Idotaccent" format="1">
  <advance width="328"/>
  <unicode hex="0130"/>
  <outline>
    <contour>
      <point x="20" y="95" type="line"/>
      <point x="92" y="95" type="line"/>
      <point x="140" y="555" type="line"/>
      <point x="68" y="555" type="line"/>
      <point x="78" y="650" type="line"/>
      <point x="328" y="650" type="line"/>
      <point x="318" y="555" type="line"/>
      <point x="246" y="555" type="line"/>
      <point x="198" y="95" type="line"/>
      <point x="270" y="95" type="line"/>
      <point x="260" y="0" type="line"/>
      <point x="10" y="0" type="line"/>
    </contour>
    <contour>
      <point x="155" y="710" type="line"/>
      <point x="264" y="710" type="line"/>
      <point x="276" y="825" type="line"/>
      <point x="167" y="825" type="line"/>
    </contour>
  </outline>
</glyph>
<glyph name="dotlessi" format="1">
  <advance width="267"/>
  <unicode hex="0131"/>
  <outline>
    <contour>
      <point x="34" y="425" type="line"/>
      <point x="61" y="449" type="line"/>
      <point x="207" y="449" type="line"/>
      <point x="163" y="82" type="line"/>
      <point x="226" y="82" type="line"/>
      <point x="219" y="22" type="line"/>
      <point x="192" y="0" type="line"/>
      <point x="50" y="0" type="line"/>
      <point x="95" y="366" type="line"/>
      <point x="26" y="366" type="line"/>
    </contour>
    <contour>
      <point x="251" y="566" type="move" name="top"/>
    </contour>
  </outline>
</glyph>
<glyph name="lcommaaccent" format="1">
  <advance width="250"/>
  <unicode hex="013C"/>
  <outline>
    <contour>
      <point x="49" y="664" type="line"/>
      <point x="76" y="688" type="line"/>
      <point x="222" y="688" type="line"/>
      <point x="148" y="82" type="line"/>
      <point x="212" y="82" type="line"/>
      <point x="205" y="22" type="line"/>
      <point x="178" y="0" type="line"/>
      <point x="35" y="0" type="line"/>
      <point x="109" y="606" type="line"/>
      <point x="41" y="606" type="line"/>
    </contour>
    <contour>
      <point x="149" y="-60" type="line"/>
      <point x="50" y="-60" type="line"/>
      <point x="29" y="-215" type="line"/>
      <point x="110" y="-215" type="line"/>
    </contour>
  </outline>
</glyph>
<glyph name="lcaron" format="1">
  <advance width="262"/>
  <unicode hex="013E"/>
  <outline>
    <contour>
      <point x="49" y="664" type="line"/>
      <point x="76" y="688" type="line"/>
      <point x="222" y="688" type="line"/>
      <point x="148" y="82" type="line"/>
      <point x="212" y="82" type="line"/>
      <point x="205" y="22" type="line"/>
      <point x="178" y="0" type="line"/>
      <point x="35" y="0" type="line"/>
      <point x="109" y="606" type="line"/>
      <point x="41" y="606" type="line"/>
    </contour>
    <contour>
      <point x="388" y="681" type="line"/>
      <point x="289" y="681" type="line"/>
      <point x="253" y="457" type="line"/>
      <point x="334" y="457" type="line"/>
    </contour>
  </outline>
</glyph>
<glyph name="Lslash" format="1">
  <advance width="534"/>
  <unicode hex="0141"/>
  <outline>
    <contour>
      <point x="479" y="0" type="line"/>
      <point x="521" y="222" type="line"/>
      <point x="431" y="230" type="line"/>
      <point x="398" y="95" type="line"/>
      <point x="201" y="95" type="line"/>
      <point x="222" y="301" type="line"/>
      <point x="368" y="350" type="line"/>
      <point x="376" y="434" type="line"/>
      <point x="231" y="384" type="line"/>
      <point x="249" y="555" type="line"/>
      <point x="346" y="555" type="line"/>
      <point x="356" y="650" type="line"/>
      <point x="79" y="650" type="line"/>
      <point x="69" y="555" type="line"/>
      <point x="142" y="555" type="line"/>
      <point x="120" y="347" type="line"/>
      <point x="37" y="319" type="line"/>
      <point x="28" y="235" type="line"/>
      <point x="111" y="263" type="line"/>
      <point x="94" y="95" type="line"/>
      <point x="21" y="95" type="line"/>
      <point x="11" y="0" type="line"/>
    </contour>
  </outline>
</glyph>
<glyph name="lslash" format="1">
  <advance width="275"/>
  <unicode hex="0142"/>
  <outline>
    <contour>
      <point x="21" y="320" type="line"/>
      <point x="98" y="355" type="line"/>
      <point x="129" y="606" type="line"/>
      <point x="61" y="606" type="line"/>
      <point x="69" y="664" type="line"/>
      <point x="96" y="688" type="line"/>
      <point x="242" y="688" type="line"/>
      <point x="207" y="404" type="line"/>
      <point x="285" y="439" type="line"/>
      <point x="276" y="354" type="line"/>
      <point x="197" y="318" type="line"/>
      <point x="168" y="82" type="line"/>
      <point x="232" y="82" type="line"/>
      <point x="225" y="22" type="line"/>
      <point x="198" y="0" type="line"/>
      <point x="55" y="0" type="line"/>
      <point x="88" y="270" type="line"/>
      <point x="12" y="236" type="line"/>
    </contour>
  </outline>
</glyph>
<glyph name="napostrophe" format="1">
  <advance width="534"/>
  <unicode hex="0149"/>
  <outline>
    <contour>
      <point x="59" y="449" type="line"/>
      <point x="188" y="449" type="line"/>
      <point x="191" y="362" type="line"/>
      <point x="222" y="420"/>
      <point x="269" y="458"/>
      <point x="338" y="458" type="curve" smooth="yes"/>
      <point x="420" y="458"/>
      <point x="482" y="408"/>
      <point x="468" y="297" type="curve" smooth="yes"/>
      <point x="442" y="82" type="line"/>
      <point x="507" y="82" type="line"/>
      <point x="499" y="22" type="line"/>
      <point x="472" y="0" type="line"/>
      <point x="330" y="0" type="line"/>
      <point x="362" y="258" type="line" smooth="yes"/>
      <point x="372" y="343"/>
      <point x="346" y="375"/>
      <point x="291" y="375" type="curve" smooth="yes"/>
      <point x="225" y="375"/>
      <point x="190" y="322"/>
      <point x="182" y="257" type="curve"/>
      <point x="182" y="258" type="line"/>
      <point x="150" y="0" type="line"/>
      <point x="48" y="0" type="line"/>
      <point x="93" y="366" type="line"/>
      <point x="24" y="366" type="line"/>
      <point x="31" y="425" type="line"/>
    </contour>
    <contour>
      <point x="33" y="505" type="line"/>
      <point x="127" y="505" type="line"/>
      <point x="200" y="713" type="line"/>
      <point x="107" y="713" type="line"/>
    </contour>
  </outline>
</glyph>
<glyph name="eng" format="1">
  <advance width="519"/>
  <unicode hex="014B"/>
  <outline>
    <contour>
      <point x="31" y="425" type="line"/>
      <point x="59" y="449" type="line"/>
      <point x="188" y="449" type="line"/>
      <point x="191" y="362" type="line"/>
      <point x="222" y="420"/>
      <point x="269" y="458"/>
      <point x="338" y="458" type="curve" smooth="yes"/>
      <point x="420" y="458"/>
      <point x="482" y="408"/>
      <point x="468" y="297" type="curve" smooth="yes"/>
      <point x="431" y="-12" type="line" smooth="yes"/>
      <point x="415" y="-146"/>
      <point x="368" y="-222"/>
      <point x="281" y="-222" type="curve" smooth="yes"/>
      <point x="245" y="-222"/>
      <point x="215" y="-212"/>
      <point x="190" y="-197" type="curve"/>
      <point x="195" y="-126" type="line"/>
      <point x="262" y="-153"/>
      <point x="310" y="-156"/>
      <point x="328" y="-12" type="curve" smooth="yes"/>
      <point x="362" y="258" type="line" smooth="yes"/>
      <point x="372" y="343"/>
      <point x="346" y="375"/>
      <point x="291" y="375" type="curve" smooth="yes"/>
      <point x="225" y="375"/>
      <point x="190" y="322"/>
      <point x="182" y="257" type="curve"/>
      <point x="182" y="258" type="line"/>
      <point x="150" y="0" type="line"/>
      <point x="48" y="0" type="line"/>
      <point x="93" y="366" type="line"/>
      <point x="24" y="366" type="line"/>
    </contour>
  </outline>
</glyph>
<glyph name="obreve" format="1">
  <advance width="483"/>
  <unicode hex="014F"/>
  <outline>
    <contour>
      <point x="22" y="192" type="curve" smooth="yes"/>
      <point x="22" y="330"/>
      <point x="99" y="458"/>
      <point x="260" y="458" type="curve" smooth="yes"/>
      <point x="395" y="458"/>
      <point x="451" y="369"/>
      <point x="451" y="251" type="curve" smooth="yes"/>
      <point x="451" y="99"/>
      <point x="357" y="-10"/>
      <point x="210" y="-10" type="curve" smooth="yes"/>
      <point x="88" y="-10"/>
      <point x="22" y="66"/>
    </contour>
    <contour>
      <point x="133" y="200" type="curve" smooth="yes"/>
      <point x="133" y="123"/>
      <point x="152" y="72"/>
      <point x="220" y="72" type="curve" smooth="yes"/>
      <point x="307" y="72"/>
      <point x="341" y="153"/>
      <point x="341" y="248" type="curve" smooth="yes"/>
      <point x="341" y="332"/>
      <point x="315" y="375"/>
      <point x="249" y="375" type="curve" smooth="yes"/>
      <point x="171" y="375"/>
      <point x="133" y="312"/>
    </contour>
    <contour>
      <point x="327" y="654" type="curve"/>
      <point x="411" y="654" type="line"/>
      <point x="401" y="563"/>
      <point x="345" y="522"/>
      <point x="264" y="522" type="curve" smooth="yes"/>
      <point x="183" y="522"/>
      <point x="141" y="566"/>
      <point x="150" y="654" type="curve"/>
      <point x="234" y="654" type="line"/>
      <point x="230" y="611"/>
      <point x="242" y="588"/>
      <point x="273" y="588" type="curve" smooth="yes"/>
      <point x="306" y="588"/>
      <point x="322" y="615"/>
    </contour>
  </outline>
</glyph>
<glyph name="Ohungarumlaut" format="1">
  <advance width="695"/>
  <unicode hex="0150"/>
  <outline>
    <contour>
      <point x="387" y="660" type="curve" smooth="yes"/>
      <point x="186" y="660"/>
      <point x="33" y="495"/>
      <point x="33" y="290" type="curve" smooth="yes"/>
      <point x="33" y="126"/>
      <point x="134" y="-10"/>
      <point x="317" y="-10" type="curve" smooth="yes"/>
      <point x="524" y="-10"/>
      <point x="674" y="160"/>
      <point x="674" y="360" type="curve" smooth="yes"/>
      <point x="674" y="526"/>
      <point x="566" y="660"/>
    </contour>
    <contour>
      <point x="333" y="88" type="curve" smooth="yes"/>
      <point x="202" y="88"/>
      <point x="149" y="190"/>
      <point x="149" y="300" type="curve" smooth="yes"/>
      <point x="149" y="443"/>
      <point x="237" y="562"/>
      <point x="375" y="562" type="curve" smooth="yes"/>
      <point x="489" y="562"/>
      <point x="558" y="481"/>
      <point x="558" y="352" type="curve" smooth="yes"/>
      <point x="558" y="215"/>
      <point x="479" y="88"/>
    </contour>
    <contour>
      <point x="641" y="727" type="line"/>
      <point x="619" y="823" type="line"/>
      <point x="425" y="743" type="line"/>
      <point x="437" y="694" type="line"/>
    </contour>
    <contour>
      <point x="501" y="826" type="line"/>
      <point x="440" y="897" type="line"/>
      <point x="294" y="728" type="line"/>
      <point x="326" y="693" type="line"/>
    </contour>
  </outline>
</glyph>
<glyph name="racute" format="1">
  <advance width="352"/>
  <unicode hex="0155"/>
  <outline>
    <contour>
      <point x="69" y="449" type="line"/>
      <point x="191" y="449" type="line"/>
      <point x="195" y="334" type="line"/>
      <point x="216" y="396"/>
      <point x="254" y="458"/>
      <point x="307" y="458" type="curve" smooth="yes"/>
      <point x="328" y="458"/>
      <point x="343" y="452"/>
      <point x="358" y="440" type="curve"/>
      <point x="341" y="331" type="line"/>
      <point x="320" y="343"/>
      <point x="305" y="346"/>
      <point x="289" y="346" type="curve" smooth="yes"/>
      <point x="244" y="346"/>
      <point x="208" y="311"/>
      <point x="195" y="258" type="curve"/>
      <point x="171" y="82" type="line"/>
      <point x="260" y="82" type="line"/>
      <point x="252" y="24" type="line"/>
      <point x="225" y="0" type="line"/>
      <point x="-5" y="0" type="line"/>
      <point x="3" y="58" type="line"/>
      <point x="30" y="82" type="line"/>
      <point x="68" y="82" type="line"/>
      <point x="102" y="366" type="line"/>
      <point x="35" y="366" type="line"/>
      <point x="42" y="425" type="line"/>
    </contour>
    <contour>
      <point x="405" y="609" type="line"/>
      <point x="355" y="693" type="line"/>
      <point x="185" y="555" type="line"/>
      <point x="210" y="512" type="line"/>
    </contour>
  </outline>
</glyph>
<glyph name="Rcaron" format="1">
  <advance width="608"/>
  <unicode hex="0158"/>
  <outline>
    <contour>
      <point x="20" y="95" type="line"/>
      <point x="92" y="95" type="line"/>
      <point x="140" y="555" type="line"/>
      <point x="68" y="555" type="line"/>
      <point x="78" y="650" type="line"/>
      <point x="354" y="650" type="line" smooth="yes"/>
      <point x="497" y="650"/>
      <point x="571" y="585"/>
      <point x="571" y="476" type="curve" smooth="yes"/>
      <point x="571" y="375"/>
      <point x="515" y="314"/>
      <point x="422" y="285" type="curve"/>
      <point x="501" y="95" type="line"/>
      <point x="578" y="95" type="line"/>
      <point x="568" y="0" type="line"/>
      <point x="421" y="0" type="line"/>
      <point x="320" y="257" type="line"/>
      <point x="216" y="257" type="line"/>
      <point x="199" y="95" type="line"/>
      <point x="273" y="95" type="line"/>
      <point x="263" y="0" type="line"/>
      <point x="10" y="0" type="line"/>
    </contour>
    <contour>
      <point x="307" y="346" type="line" smooth="yes"/>
      <point x="419" y="346"/>
      <point x="456" y="395"/>
      <point x="456" y="466" type="curve" smooth="yes"/>
      <point x="456" y="531"/>
      <point x="421" y="555"/>
      <point x="326" y="555" type="curve" smooth="yes"/>
      <point x="247" y="555" type="line"/>
      <point x="225" y="346" type="line"/>
    </contour>
    <contour>
      <point x="314" y="691" type="line"/>
      <point x="350" y="691" type="line"/>
      <point x="490" y="791" type="line"/>
      <point x="469" y="837" type="line"/>
      <point x="343" y="774" type="line"/>
      <point x="223" y="836" type="line"/>
      <point x="195" y="791" type="line"/>
    </contour>
  </outline>
</glyph>
<glyph name="Scedilla" format="1">
  <advance width="532"/>
  <unicode hex="015E"/>
  <outline>
    <contour>
      <point x="488" y="200" type="curve" smooth="yes"/>
      <point x="488" y="77"/>
      <point x="411" y="4"/>
      <point x="278" y="-8" type="curve"/>
      <point x="273" y="-43" type="line"/>
      <point x="281" y="-43" type="line" smooth="yes"/>
      <point x="339" y="-43"/>
      <point x="360" y="-76"/>
      <point x="360" y="-116" type="curve" smooth="yes"/>
      <point x="360" y="-184"/>
      <point x="294" y="-209"/>
      <point x="231" y="-209" type="curve" smooth="yes"/>
      <point x="188" y="-209"/>
      <point x="148" y="-198"/>
      <point x="128" y="-179" type="curve"/>
      <point x="154" y="-120" type="line"/>
      <point x="168" y="-131"/>
      <point x="194" y="-143"/>
      <point x="227" y="-143" type="curve" smooth="yes"/>
      <point x="257" y="-143"/>
      <point x="271" y="-133"/>
      <point x="271" y="-112" type="curve" smooth="yes"/>
      <point x="271" y="-92"/>
      <point x="259" y="-84"/>
      <point x="229" y="-84" type="curve" smooth="yes"/>
      <point x="196" y="-84" type="line"/>
      <point x="206" y="-9" type="line"/>
      <point x="129" y="-4"/>
      <point x="56" y="16"/>
      <point x="18" y="52" type="curve"/>
      <point x="51" y="201" type="line"/>
      <point x="137" y="192" type="line"/>
      <point x="128" y="112" type="line"/>
      <point x="168" y="89"/>
      <point x="207" y="86"/>
      <point x="233" y="86" type="curve" smooth="yes"/>
      <point x="316" y="86"/>
      <point x="371" y="111"/>
      <point x="371" y="191" type="curve" smooth="yes"/>
      <point x="371" y="267"/>
      <point x="322" y="276"/>
      <point x="247" y="292" type="curve" smooth="yes"/>
      <point x="161" y="310"/>
      <point x="67" y="339"/>
      <point x="67" y="463" type="curve" smooth="yes"/>
      <point x="67" y="606"/>
      <point x="190" y="660"/>
      <point x="306" y="660" type="curve" smooth="yes"/>
      <point x="387" y="660"/>
      <point x="465" y="634"/>
      <point x="502" y="595" type="curve"/>
      <point x="493" y="458" type="line"/>
      <point x="405" y="450" type="line"/>
      <point x="404" y="534" type="line"/>
      <point x="371" y="556"/>
      <point x="334" y="562"/>
      <point x="302" y="562" type="curve" smooth="yes"/>
      <point x="233" y="562"/>
      <point x="182" y="534"/>
      <point x="182" y="476" type="curve" smooth="yes"/>
      <point x="182" y="416"/>
      <point x="236" y="401"/>
      <point x="298" y="387" type="curve" smooth="yes"/>
      <point x="388" y="367"/>
      <point x="488" y="341"/>
    </contour>
  </outline>
</glyph>
<glyph name="scedilla" format="1">
  <advance width="432"/>
  <unicode hex="015F"/>
  <outline>
    <contour>
      <point x="192" y="72" type="curve" smooth="yes"/>
      <point x="245" y="72"/>
      <point x="277" y="92"/>
      <point x="277" y="128" type="curve" smooth="yes"/>
      <point x="277" y="173"/>
      <point x="224" y="180"/>
      <point x="162" y="197" type="curve" smooth="yes"/>
      <point x="104" y="213"/>
      <point x="45" y="238"/>
      <point x="45" y="317" type="curve" smooth="yes"/>
      <point x="45" y="417"/>
      <point x="135" y="458"/>
      <point x="226" y="458" type="curve" smooth="yes"/>
      <point x="279" y="458"/>
      <point x="346" y="445"/>
      <point x="392" y="417" type="curve"/>
      <point x="391" y="306" type="line"/>
      <point x="308" y="296" type="line"/>
      <point x="306" y="358" type="line"/>
      <point x="282" y="368"/>
      <point x="255" y="375"/>
      <point x="229" y="375" type="curve" smooth="yes"/>
      <point x="189" y="375"/>
      <point x="152" y="358"/>
      <point x="152" y="324" type="curve" smooth="yes"/>
      <point x="152" y="292"/>
      <point x="186" y="283"/>
      <point x="247" y="268" type="curve"/>
      <point x="307" y="252"/>
      <point x="385" y="230"/>
      <point x="385" y="136" type="curve" smooth="yes"/>
      <point x="385" y="46"/>
      <point x="315" y="-2"/>
      <point x="223" y="-9" type="curve"/>
      <point x="218" y="-43" type="line"/>
      <point x="226" y="-43" type="line" smooth="yes"/>
      <point x="284" y="-43"/>
      <point x="305" y="-76"/>
      <point x="305" y="-116" type="curve" smooth="yes"/>
      <point x="305" y="-184"/>
      <point x="239" y="-209"/>
      <point x="176" y="-209" type="curve" smooth="yes"/>
      <point x="133" y="-209"/>
      <point x="93" y="-198"/>
      <point x="73" y="-179" type="curve"/>
      <point x="99" y="-120" type="line"/>
      <point x="113" y="-131"/>
      <point x="139" y="-143"/>
      <point x="172" y="-143" type="curve" smooth="yes"/>
      <point x="202" y="-143"/>
      <point x="216" y="-133"/>
      <point x="216" y="-112" type="curve" smooth="yes"/>
      <point x="216" y="-92"/>
      <point x="204" y="-84"/>
      <point x="174" y="-84" type="curve" smooth="yes"/>
      <point x="141" y="-84" type="line"/>
      <point x="151" y="-7" type="line"/>
      <point x="100" y="-1"/>
      <point x="44" y="12"/>
      <point x="8" y="34" type="curve"/>
      <point x="36" y="150" type="line"/>
      <point x="118" y="142" type="line"/>
      <point x="111" y="86" type="line"/>
      <point x="135" y="75"/>
      <point x="171" y="72"/>
    </contour>
  </outline>
</glyph>
<glyph name="Tcaron" format="1">
  <advance width="618"/>
  <unicode hex="0164"/>
  <outline>
    <contour>
      <point x="328" y="691" type="line"/>
      <point x="364" y="691" type="line"/>
      <point x="504" y="791" type="line"/>
      <point x="483" y="837" type="line"/>
      <point x="357" y="774" type="line"/>
      <point x="237" y="836" type="line"/>
      <point x="209" y="791" type="line"/>
    </contour>
    <contour>
      <point x="616" y="438" type="line"/>
      <point x="619" y="650" type="line"/>
      <point x="77" y="650" type="line"/>
      <point x="37" y="438" type="line"/>
      <point x="129" y="430" type="line"/>
      <point x="161" y="555" type="line"/>
      <point x="285" y="555" type="line"/>
      <point x="237" y="95" type="line"/>
      <point x="135" y="95" type="line"/>
      <point x="125" y="0" type="line"/>
      <point x="440" y="0" type="line"/>
      <point x="450" y="95" type="line"/>
      <point x="343" y="95" type="line"/>
      <point x="391" y="555" type="line"/>
      <point x="515" y="555" type="line"/>
      <point x="522" y="430" type="line"/>
    </contour>
  </outline>
</glyph>
<glyph name="Uogonek" format="1">
  <advance width="693"/>
  <unicode hex="0172"/>
  <outline>
    <contour>
      <point x="69" y="650" type="line"/>
      <point x="313" y="650" type="line"/>
      <point x="303" y="555" type="line"/>
      <point x="225" y="555" type="line"/>
      <point x="194" y="260" type="line" smooth="yes"/>
      <point x="183" y="157"/>
      <point x="221" y="88"/>
      <point x="330" y="88" type="curve" smooth="yes"/>
      <point x="436" y="88"/>
      <point x="492" y="155"/>
      <point x="504" y="268" type="curve" smooth="yes"/>
      <point x="534" y="555" type="line"/>
      <point x="455" y="555" type="line"/>
      <point x="464" y="650" type="line"/>
      <point x="702" y="650" type="line"/>
      <point x="692" y="555" type="line"/>
      <point x="633" y="555" type="line"/>
      <point x="603" y="268" type="line" smooth="yes"/>
      <point x="590" y="147"/>
      <point x="536" y="25"/>
      <point x="390" y="-3" type="curve"/>
      <point x="344" y="-33"/>
      <point x="336" y="-67"/>
      <point x="336" y="-88" type="curve" smooth="yes"/>
      <point x="336" y="-123"/>
      <point x="353" y="-132"/>
      <point x="379" y="-132" type="curve" smooth="yes"/>
      <point x="395" y="-132"/>
      <point x="413" y="-128"/>
      <point x="429" y="-119" type="curve"/>
      <point x="430" y="-188" type="line"/>
      <point x="407" y="-200"/>
      <point x="378" y="-208"/>
      <point x="344" y="-208" type="curve" smooth="yes"/>
      <point x="285" y="-208"/>
      <point x="242" y="-182"/>
      <point x="242" y="-125" type="curve" smooth="yes"/>
      <point x="242" y="-78"/>
      <point x="272" y="-37"/>
      <point x="310" y="-10" type="curve"/>
      <point x="129" y="-5"/>
      <point x="72" y="120"/>
      <point x="87" y="257" type="curve" smooth="yes"/>
      <point x="118" y="555" type="line"/>
      <point x="59" y="555" type="line"/>
    </contour>
  </outline>
</glyph>
<glyph name="Zcaron" format="1">
  <advance width="565"/>
  <unicode hex="017D"/>
  <outline>
    <contour>
      <point x="301" y="691" type="line"/>
      <point x="337" y="691" type="line"/>
      <point x="477" y="791" type="line"/>
      <point x="456" y="837" type="line"/>
      <point x="330" y="774" type="line"/>
      <point x="210" y="836" type="line"/>
      <point x="182" y="791" type="line"/>
    </contour>
    <contour>
      <point x="495" y="0" type="line"/>
      <point x="540" y="212" type="line"/>
      <point x="448" y="222" type="line"/>
      <point x="412" y="95" type="line"/>
      <point x="160" y="95" type="line"/>
      <point x="161" y="97" type="line"/>
      <point x="553" y="597" type="line"/>
      <point x="551" y="650" type="line"/>
      <point x="99" y="650" type="line"/>
      <point x="56" y="451" type="line"/>
      <point x="148" y="442" type="line"/>
      <point x="181" y="555" type="line"/>
      <point x="392" y="555" type="line"/>
      <point x="392" y="553" type="line"/>
      <point x="1" y="59" type="line"/>
      <point x="2" y="0" type="line"/>
    </contour>
  </outline>
</glyph>
<glyph name="zcaron" format="1">
  <advance width="450"/>
  <unicode hex="017E"/>
  <outline>
    <contour>
      <point x="234" y="512" type="line"/>
      <point x="270" y="512" type="line"/>
      <point x="410" y="635" type="line"/>
      <point x="383" y="679" type="line"/>
      <point x="264" y="602" type="line"/>
      <point x="154" y="677" type="line"/>
      <point x="120" y="635" type="line"/>
    </contour>
    <contour>
      <point x="382" y="0" type="line"/>
      <point x="424" y="150" type="line"/>
      <point x="342" y="160" type="line"/>
      <point x="312" y="82" type="line"/>
      <point x="139" y="82" type="line"/>
      <point x="426" y="390" type="line"/>
      <point x="412" y="449" type="line"/>
      <point x="64" y="449" type="line"/>
      <point x="34" y="298" type="line"/>
      <point x="111" y="289" type="line"/>
      <point x="136" y="366" type="line"/>
      <point x="291" y="366" type="line"/>
      <point x="1" y="58" type="line"/>
      <point x="10" y="0" type="line"/>
    </contour>
  </outline>
</glyph>
<glyph name="florin" format="1">
  <advance width="364"/>
  <unicode hex="0192"/>
  <outline>
    <contour>
      <point x="37" y="282" type="line"/>
      <point x="106" y="282" type="line"/>
      <point x="122" y="381" type="line" smooth="yes"/>
      <point x="138" y="478"/>
      <point x="212" y="529"/>
      <point x="306" y="529" type="curve" smooth="yes"/>
      <point x="322" y="529"/>
      <point x="352" y="528"/>
      <point x="372" y="525" type="curve"/>
      <point x="363" y="452" type="line"/>
      <point x="343" y="455"/>
      <point x="325" y="457"/>
      <point x="310" y="457" type="curve" smooth="yes"/>
      <point x="263" y="457"/>
      <point x="235" y="439"/>
      <point x="226" y="379" type="curve" smooth="yes"/>
      <point x="210" y="282" type="line"/>
      <point x="313" y="282" type="line"/>
      <point x="306" y="218" type="line"/>
      <point x="200" y="218" type="line"/>
      <point x="168" y="18" type="line" smooth="yes"/>
      <point x="158" y="-46"/>
      <point x="119" y="-112"/>
      <point x="6" y="-112" type="curve" smooth="yes"/>
      <point x="-6" y="-112"/>
      <point x="-16" y="-111"/>
      <point x="-38" y="-108" type="curve"/>
      <point x="-30" y="-37" type="line"/>
      <point x="-12" y="-41"/>
      <point x="-5" y="-41"/>
      <point x="6" y="-41" type="curve" smooth="yes"/>
      <point x="41" y="-41"/>
      <point x="56" y="-31"/>
      <point x="67" y="38" type="curve" smooth="yes"/>
      <point x="96" y="218" type="line"/>
      <point x="30" y="218" type="line"/>
    </contour>
  </outline>
</glyph>
<glyph name="uni01C5" format="1">
  <advance width="1128"/>
  <unicode hex="01C5"/>
  <outline>
    <contour>
      <point x="363" y="650" type="line" smooth="yes"/>
      <point x="557" y="650"/>
      <point x="654" y="537"/>
      <point x="654" y="362" type="curve" smooth="yes"/>
      <point x="654" y="153"/>
      <point x="516" y="0"/>
      <point x="301" y="0" type="curve" smooth="yes"/>
      <point x="10" y="0" type="line"/>
      <point x="20" y="95" type="line"/>
      <point x="93" y="95" type="line"/>
      <point x="141" y="555" type="line"/>
      <point x="68" y="555" type="line"/>
      <point x="78" y="650" type="line"/>
    </contour>
    <contour>
      <point x="303" y="95" type="line" smooth="yes"/>
      <point x="453" y="95"/>
      <point x="540" y="191"/>
      <point x="540" y="352" type="curve" smooth="yes"/>
      <point x="540" y="485"/>
      <point x="478" y="555"/>
      <point x="351" y="555" type="curve" smooth="yes"/>
      <point x="246" y="555" type="line"/>
      <point x="198" y="95" type="line"/>
    </contour>
    <contour>
      <point x="1060" y="0" type="line"/>
      <point x="1102" y="150" type="line"/>
      <point x="1020" y="160" type="line"/>
      <point x="990" y="82" type="line"/>
      <point x="817" y="82" type="line"/>
      <point x="1104" y="390" type="line"/>
      <point x="1090" y="449" type="line"/>
      <point x="742" y="449" type="line"/>
      <point x="712" y="298" type="line"/>
      <point x="789" y="289" type="line"/>
      <point x="814" y="366" type="line"/>
      <point x="969" y="366" type="line"/>
      <point x="679" y="58" type="line"/>
      <point x="688" y="0" type="line"/>
    </contour>
    <contour>
      <point x="912" y="512" type="line"/>
      <point x="948" y="512" type="line"/>
      <point x="1088" y="635" type="line"/>
      <point x="1061" y="679" type="line"/>
      <point x="942" y="602" type="line"/>
      <point x="832" y="677" type="line"/>
      <point x="798" y="635" type="line"/>
    </contour>
  </outline>
</glyph>
<glyph name="uni01C8" format="1">
  <advance width="783"/>
  <unicode hex="01C8"/>
  <outline>
    <contour>
      <point x="477" y="0" type="line"/>
      <point x="519" y="222" type="line"/>
      <point x="429" y="230" type="line"/>
      <point x="396" y="95" type="line"/>
      <point x="199" y="95" type="line"/>
      <point x="247" y="555" type="line"/>
      <point x="344" y="555" type="line"/>
      <point x="354" y="650" type="line"/>
      <point x="77" y="650" type="line"/>
      <point x="67" y="555" type="line"/>
      <point x="140" y="555" type="line"/>
      <point x="92" y="95" type="line"/>
      <point x="19" y="95" type="line"/>
      <point x="9" y="0" type="line"/>
    </contour>
    <contour>
      <point x="556" y="425" type="line"/>
      <point x="583" y="449" type="line"/>
      <point x="744" y="449" type="line"/>
      <point x="689" y="3" type="line" smooth="yes"/>
      <point x="672" y="-130"/>
      <point x="626" y="-221"/>
      <point x="539" y="-222" type="curve" smooth="yes"/>
      <point x="503" y="-223"/>
      <point x="472" y="-212"/>
      <point x="447" y="-197" type="curve"/>
      <point x="451" y="-126" type="line"/>
      <point x="519" y="-153"/>
      <point x="569" y="-141"/>
      <point x="587" y="3" type="curve" smooth="yes"/>
      <point x="632" y="366" type="line"/>
      <point x="548" y="366" type="line"/>
    </contour>
    <contour>
      <point x="649" y="542" type="line"/>
      <point x="752" y="542" type="line"/>
      <point x="764" y="660" type="line"/>
      <point x="661" y="660" type="line"/>
    </contour>
  </outline>
</glyph>
<glyph name="uni01C9" format="1">
  <advance width="501"/>
  <unicode hex="01C9"/>
  <outline>
    <contour>
      <point x="49" y="664" type="line"/>
      <point x="76" y="688" type="line"/>
      <point x="222" y="688" type="line"/>
      <point x="148" y="82" type="line"/>
      <point x="212" y="82" type="line"/>
      <point x="205" y="22" type="line"/>
      <point x="178" y="0" type="line"/>
      <point x="35" y="0" type="line"/>
      <point x="109" y="606" type="line"/>
      <point x="41" y="606" type="line"/>
    </contour>
    <contour>
      <point x="274" y="425" type="line"/>
      <point x="301" y="449" type="line"/>
      <point x="462" y="449" type="line"/>
      <point x="407" y="3" type="line" smooth="yes"/>
      <point x="390" y="-130"/>
      <point x="344" y="-221"/>
      <point x="257" y="-222" type="curve" smooth="yes"/>
      <point x="221" y="-223"/>
      <point x="190" y="-212"/>
      <point x="165" y="-197" type="curve"/>
      <point x="169" y="-126" type="line"/>
      <point x="237" y="-153"/>
      <point x="287" y="-141"/>
      <point x="305" y="3" type="curve" smooth="yes"/>
      <point x="350" y="366" type="line"/>
      <point x="266" y="366" type="line"/>
    </contour>
    <contour>
      <point x="367" y="542" type="line"/>
      <point x="470" y="542" type="line"/>
      <point x="482" y="660" type="line"/>
      <point x="379" y="660" type="line"/>
    </contour>
  </outline>
</glyph>
<glyph name="uni01F1" format="1">
  <advance width="1237"/>
  <unicode hex="01F1"/>
  <outline>
    <contour>
      <point x="10" y="0" type="line"/>
      <point x="20" y="95" type="line"/>
      <point x="93" y="95" type="line"/>
      <point x="141" y="555" type="line"/>
      <point x="68" y="555" type="line"/>
      <point x="78" y="650" type="line"/>
      <point x="363" y="650" type="line" smooth="yes"/>
      <point x="557" y="650"/>
      <point x="654" y="537"/>
      <point x="654" y="362" type="curve" smooth="yes"/>
      <point x="654" y="153"/>
      <point x="516" y="0"/>
      <point x="301" y="0" type="curve" smooth="yes"/>
    </contour>
    <contour>
      <point x="1167" y="0" type="line"/>
      <point x="1212" y="212" type="line"/>
      <point x="1120" y="222" type="line"/>
      <point x="1084" y="95" type="line"/>
      <point x="832" y="95" type="line"/>
      <point x="833" y="97" type="line"/>
      <point x="1225" y="597" type="line"/>
      <point x="1223" y="650" type="line"/>
      <point x="771" y="650" type="line"/>
      <point x="728" y="451" type="line"/>
      <point x="820" y="442" type="line"/>
      <point x="853" y="555" type="line"/>
      <point x="1064" y="555" type="line"/>
      <point x="1064" y="553" type="line"/>
      <point x="673" y="59" type="line"/>
      <point x="674" y="0" type="line"/>
    </contour>
    <contour>
      <point x="303" y="95" type="line" smooth="yes"/>
      <point x="453" y="95"/>
      <point x="540" y="191"/>
      <point x="540" y="352" type="curve" smooth="yes"/>
      <point x="540" y="485"/>
      <point x="478" y="555"/>
      <point x="351" y="555" type="curve" smooth="yes"/>
      <point x="246" y="555" type="line"/>
      <point x="198" y="95" type="line"/>
    </contour>
  </outline>
</glyph>
<glyph name="dotlessj" format="1">
  <advance width="252"/>
  <unicode hex="0237"/>
  <outline>
    <contour>
      <point x="26" y="425" type="line"/>
      <point x="53" y="449" type="line"/>
      <point x="214" y="449" type="line"/>
      <point x="159" y="3" type="line" smooth="yes"/>
      <point x="142" y="-131"/>
      <point x="95" y="-221"/>
      <point x="8" y="-222" type="curve" smooth="yes"/>
      <point x="-28" y="-223"/>
      <point x="-58" y="-212"/>
      <point x="-83" y="-197" type="curve"/>
      <point x="-79" y="-126" type="line"/>
      <point x="-12" y="-153"/>
      <point x="39" y="-141"/>
      <point x="57" y="3" type="curve" smooth="yes"/>
      <point x="101" y="366" type="line"/>
      <point x="18" y="366" type="line"/>
    </contour>
  </outline>
</glyph>
<glyph name="schwa" format="1">
  <advance width="441"/>
  <unicode hex="0259"/>
  <outline>
    <contour>
      <point x="208" y="376" type="curve" smooth="yes"/>
      <point x="143" y="376"/>
      <point x="121" y="331"/>
      <point x="109" y="296" type="curve"/>
      <point x="26" y="313" type="line"/>
      <point x="41" y="390"/>
      <point x="111" y="458"/>
      <point x="224" y="458" type="curve" smooth="yes"/>
      <point x="332" y="458"/>
      <point x="410" y="395"/>
      <point x="410" y="259" type="curve" smooth="yes"/>
      <point x="410" y="112"/>
      <point x="320" y="-10"/>
      <point x="173" y="-10" type="curve" smooth="yes"/>
      <point x="83" y="-10"/>
      <point x="17" y="37"/>
      <point x="17" y="109" type="curve" smooth="yes"/>
      <point x="17" y="176"/>
      <point x="58" y="223"/>
      <point x="177" y="248" type="curve" smooth="yes"/>
      <point x="212" y="255"/>
      <point x="253" y="262"/>
      <point x="298" y="267" type="curve"/>
      <point x="295" y="336"/>
      <point x="271" y="376"/>
    </contour>
    <contour>
      <point x="228" y="192" type="curve" smooth="yes"/>
      <point x="140" y="174"/>
      <point x="125" y="146"/>
      <point x="125" y="116" type="curve" smooth="yes"/>
      <point x="125" y="79"/>
      <point x="152" y="65"/>
      <point x="186" y="65" type="curve" smooth="yes"/>
      <point x="255" y="65"/>
      <point x="286" y="132"/>
      <point x="295" y="202" type="curve"/>
      <point x="268" y="199"/>
      <point x="246" y="195"/>
    </contour>
  </outline>
</glyph>
<glyph name="caron" format="1">
  <advance width="331"/>
  <unicode hex="02C7"/>
  <outline>
    <contour>
      <point x="230" y="512" type="line"/>
      <point x="266" y="512" type="line"/>
      <point x="406" y="635" type="line"/>
      <point x="379" y="679" type="line"/>
      <point x="260" y="602" type="line"/>
      <point x="150" y="677" type="line"/>
      <point x="116" y="635" type="line"/>
    </contour>
  </outline>
</glyph>
<glyph name="breve" format="1">
  <advance width="391"/>
  <unicode hex="02D8"/>
  <outline>
    <contour>
      <point x="309" y="654" type="curve"/>
      <point x="393" y="654" type="line"/>
      <point x="383" y="563"/>
      <point x="327" y="522"/>
      <point x="246" y="522" type="curve" smooth="yes"/>
      <point x="165" y="522"/>
      <point x="123" y="566"/>
      <point x="132" y="654" type="curve"/>
      <point x="216" y="654" type="line"/>
      <point x="212" y="611"/>
      <point x="224" y="588"/>
      <point x="255" y="588" type="curve" smooth="yes"/>
      <point x="288" y="588"/>
      <point x="304" y="615"/>
    </contour>
  </outline>
</glyph>
<glyph name="dotaccent" format="1">
  <advance width="216"/>
  <unicode hex="02D9"/>
  <outline>
    <contour>
      <point x="105" y="539" type="line"/>
      <point x="212" y="539" type="line"/>
      <point x="224" y="657" type="line"/>
      <point x="117" y="657" type="line"/>
    </contour>
  </outline>
</glyph>
<glyph name="ring" format="1">
  <advance width="255"/>
  <unicode hex="02DA"/>
  <outline>
    <contour>
      <point x="181" y="514" type="curve" smooth="yes"/>
      <point x="256" y="514"/>
      <point x="293" y="561"/>
      <point x="293" y="617" type="curve" smooth="yes"/>
      <point x="293" y="666"/>
      <point x="264" y="698"/>
      <point x="202" y="698" type="curve" smooth="yes"/>
      <point x="129" y="698"/>
      <point x="90" y="655"/>
      <point x="90" y="596" type="curve" smooth="yes"/>
      <point x="90" y="545"/>
      <point x="120" y="514"/>
    </contour>
    <contour>
      <point x="186" y="566" type="curve"/>
      <point x="164" y="566"/>
      <point x="158" y="578"/>
      <point x="158" y="599" type="curve" smooth="yes"/>
      <point x="158" y="629"/>
      <point x="170" y="646"/>
      <point x="196" y="646" type="curve" smooth="yes"/>
      <point x="220" y="646"/>
      <point x="226" y="631"/>
      <point x="226" y="613" type="curve" smooth="yes"/>
      <point x="226" y="582"/>
      <point x="211" y="566"/>
    </contour>
  </outline>
</glyph>
<glyph name="ogonek" format="1">
  <advance width="274"/>
  <unicode hex="02DB"/>
  <outline>
    <contour>
      <point x="210" y="-188" type="line"/>
      <point x="187" y="-200"/>
      <point x="158" y="-208"/>
      <point x="124" y="-208" type="curve" smooth="yes"/>
      <point x="65" y="-208"/>
      <point x="22" y="-182"/>
      <point x="22" y="-125" type="curve" smooth="yes"/>
      <point x="22" y="-63"/>
      <point x="74" y="-12"/>
      <point x="130" y="12" type="curve"/>
      <point x="190" y="8" type="line"/>
      <point x="127" y="-25"/>
      <point x="116" y="-64"/>
      <point x="116" y="-88" type="curve" smooth="yes"/>
      <point x="116" y="-123"/>
      <point x="133" y="-132"/>
      <point x="159" y="-132" type="curve" smooth="yes"/>
      <point x="175" y="-132"/>
      <point x="193" y="-128"/>
      <point x="209" y="-119" type="curve"/>
    </contour>
  </outline>
</glyph>
<glyph name="uni0394" format="1">
  <advance width="472"/>
  <unicode hex="0394"/>
  <outline>
    <contour>
      <point x="-34" y="0" type="line"/>
      <point x="447" y="0" type="line"/>
      <point x="281" y="661" type="line"/>
    </contour>
    <contour>
      <point x="91" y="82" type="line"/>
      <point x="255" y="437" type="line"/>
      <point x="338" y="82" type="line"/>
    </contour>
  </outline>
</glyph>
<glyph name="Wacute" format="1">
  <advance width="934"/>
  <unicode hex="1E82"/>
  <outline>
    <contour>
      <point x="954" y="555" type="line"/>
      <point x="902" y="555" type="line"/>
      <point x="673" y="0" type="line"/>
      <point x="595" y="0" type="line"/>
      <point x="489" y="458" type="line"/>
      <point x="485" y="458" type="line"/>
      <point x="288" y="0" type="line"/>
      <point x="208" y="0" type="line"/>
      <point x="85" y="555" type="line"/>
      <point x="32" y="555" type="line"/>
      <point x="41" y="650" type="line"/>
      <point x="278" y="650" type="line"/>
      <point x="268" y="555" type="line"/>
      <point x="198" y="555" type="line"/>
      <point x="268" y="183" type="line"/>
      <point x="274" y="183" type="line"/>
      <point x="438" y="555" type="line"/>
      <point x="382" y="555" type="line"/>
      <point x="392" y="650" type="line"/>
      <point x="630" y="650" type="line"/>
      <point x="619" y="555" type="line"/>
      <point x="567" y="555" type="line"/>
      <point x="652" y="178" type="line"/>
      <point x="658" y="178" type="line"/>
      <point x="794" y="555" type="line"/>
      <point x="719" y="555" type="line"/>
      <point x="729" y="650" type="line"/>
      <point x="963" y="650" type="line"/>
    </contour>
    <contour>
      <point x="658" y="727" type="line"/>
      <point x="635" y="826" type="line"/>
      <point x="431" y="743" type="line"/>
      <point x="443" y="694" type="line"/>
    </contour>
  </outline>
</glyph>
<glyph name="wdieresis" format="1">
  <advance width="727"/>
  <unicode hex="1E85"/>
  <outline>
    <contour>
      <point x="503" y="123" type="line"/>
      <point x="508" y="123" type="line"/>
      <point x="577" y="213"/>
      <point x="604" y="278"/>
      <point x="604" y="354" type="curve" smooth="yes"/>
      <point x="604" y="387"/>
      <point x="599" y="416"/>
      <point x="586" y="449" type="curve"/>
      <point x="702" y="449" type="line"/>
      <point x="718" y="364"/>
      <point x="704" y="276"/>
      <point x="639" y="183" type="curve" smooth="yes"/>
      <point x="606" y="135"/>
      <point x="539" y="54"/>
      <point x="483" y="0" type="curve"/>
      <point x="437" y="0" type="line"/>
      <point x="368" y="288" type="line"/>
      <point x="363" y="288" type="line"/>
      <point x="212" y="0" type="line"/>
      <point x="156" y="0" type="line"/>
      <point x="58" y="366" type="line"/>
      <point x="11" y="366" type="line"/>
      <point x="19" y="425" type="line"/>
      <point x="46" y="449" type="line"/>
      <point x="244" y="449" type="line"/>
      <point x="237" y="390" type="line"/>
      <point x="209" y="366" type="line"/>
      <point x="165" y="366" type="line"/>
      <point x="211" y="150" type="line"/>
      <point x="216" y="150" type="line"/>
      <point x="365" y="449" type="line"/>
      <point x="428" y="449" type="line"/>
    </contour>
    <contour>
      <point x="430" y="540" type="line"/>
      <point x="539" y="540" type="line"/>
      <point x="551" y="655" type="line"/>
      <point x="441" y="655" type="line"/>
    </contour>
    <contour>
      <point x="254" y="540" type="line"/>
      <point x="362" y="540" type="line"/>
      <point x="374" y="655" type="line"/>
      <point x="266" y="655" type="line"/>
    </contour>
  </outline>
</glyph>
<glyph name="Ygrave" format="1">
  <advance width="612"/>
  <unicode hex="1EF2"/>
  <outline>
    <contour>
      <point x="635" y="555" type="line"/>
      <point x="579" y="555" type="line"/>
      <point x="359" y="253" type="line"/>
      <point x="343" y="95" type="line"/>
      <point x="447" y="95" type="line"/>
      <point x="437" y="0" type="line"/>
      <point x="125" y="0" type="line"/>
      <point x="135" y="95" type="line"/>
      <point x="236" y="95" type="line"/>
      <point x="252" y="253" type="line"/>
      <point x="90" y="555" type="line"/>
      <point x="32" y="555" type="line"/>
      <point x="42" y="650" type="line"/>
      <point x="289" y="650" type="line"/>
      <point x="279" y="555" type="line"/>
      <point x="214" y="555" type="line"/>
      <point x="319" y="351" type="line"/>
      <point x="324" y="351" type="line"/>
      <point x="468" y="555" type="line"/>
      <point x="398" y="555" type="line"/>
      <point x="408" y="650" type="line"/>
      <point x="644" y="650" type="line"/>
    </contour>
    <contour>
      <point x="403" y="694" type="line"/>
      <point x="414" y="743" type="line"/>
      <point x="210" y="826" type="line"/>
      <point x="188" y="727" type="line"/>
    </contour>
  </outline>
</glyph>
<glyph name="endash" format="1">
  <advance width="591"/>
  <unicode hex="2013"/>
  <outline>
    <contour>
      <point x="48" y="270" type="line"/>
      <point x="540" y="270" type="line"/>
      <point x="533" y="198" type="line"/>
      <point x="41" y="198" type="line"/>
    </contour>
  </outline>
</glyph>
<glyph name="emdash" format="1">
  <advance width="1026"/>
  <unicode hex="2014"/>
  <outline>
    <contour>
      <point x="53" y="270" type="line"/>
      <point x="974" y="270" type="line"/>
      <point x="966" y="198" type="line"/>
      <point x="45" y="198" type="line"/>
    </contour>
  </outline>
</glyph>
<glyph name="quoteright" format="1">
  <advance width="213"/>
  <unicode hex="2019"/>
  <outline>
    <contour>
      <point x="52" y="489" type="line"/>
      <point x="155" y="489" type="line"/>
      <point x="235" y="717" type="line"/>
      <point x="133" y="717" type="line"/>
    </contour>
  </outline>
</glyph>
<glyph name="quotedblleft" format="1">
  <advance width="382"/>
  <unicode hex="201C"/>
  <outline>
    <contour>
      <point x="235" y="669" type="line"/>
      <point x="132" y="669" type="line"/>
      <point x="52" y="441" type="line"/>
      <point x="154" y="441" type="line"/>
    </contour>
    <contour>
      <point x="403" y="669" type="line"/>
      <point x="300" y="669" type="line"/>
      <point x="220" y="441" type="line"/>
      <point x="322" y="441" type="line"/>
    </contour>
  </outline>
</glyph>
<glyph name="quotedblright" format="1">
  <advance width="376"/>
  <unicode hex="201D"/>
  <outline>
    <contour>
      <point x="39" y="442" type="line"/>
      <point x="142" y="442" type="line"/>
      <point x="222" y="670" type="line"/>
      <point x="120" y="670" type="line"/>
    </contour>
    <contour>
      <point x="207" y="442" type="line"/>
      <point x="310" y="442" type="line"/>
      <point x="390" y="670" type="line"/>
      <point x="288" y="670" type="line"/>
    </contour>
  </outline>
</glyph>
<glyph name="dagger" format="1">
  <advance width="452"/>
  <unicode hex="2020"/>
  <outline>
    <contour>
      <point x="42" y="436" type="line"/>
      <point x="198" y="436" type="line"/>
      <point x="221" y="650" type="line"/>
      <point x="310" y="650" type="line"/>
      <point x="287" y="436" type="line"/>
      <point x="443" y="436" type="line"/>
      <point x="434" y="344" type="line"/>
      <point x="278" y="344" type="line"/>
      <point x="227" y="-141" type="line"/>
      <point x="137" y="-141" type="line"/>
      <point x="188" y="344" type="line"/>
      <point x="33" y="344" type="line"/>
    </contour>
  </outline>
</glyph>
<glyph name="daggerdbl" format="1">
  <advance width="483"/>
  <unicode hex="2021"/>
  <outline>
    <contour>
      <point x="28" y="144" type="line"/>
      <point x="184" y="144" type="line"/>
      <point x="205" y="344" type="line"/>
      <point x="49" y="344" type="line"/>
      <point x="59" y="436" type="line"/>
      <point x="214" y="436" type="line"/>
      <point x="237" y="650" type="line"/>
      <point x="327" y="650" type="line"/>
      <point x="304" y="436" type="line"/>
      <point x="460" y="436" type="line"/>
      <point x="450" y="344" type="line"/>
      <point x="295" y="344" type="line"/>
      <point x="274" y="144" type="line"/>
      <point x="429" y="144" type="line"/>
      <point x="420" y="53" type="line"/>
      <point x="264" y="53" type="line"/>
      <point x="244" y="-141" type="line"/>
      <point x="154" y="-141" type="line"/>
      <point x="174" y="53" type="line"/>
      <point x="19" y="53" type="line"/>
    </contour>
  </outline>
</glyph>
<glyph name="bullet" format="1">
  <advance width="346"/>
  <unicode hex="2022"/>
  <outline>
    <contour>
      <point x="52" y="232" type="curve" smooth="yes"/>
      <point x="52" y="171"/>
      <point x="94" y="124"/>
      <point x="157" y="124" type="curve" smooth="yes"/>
      <point x="226" y="124"/>
      <point x="287" y="182"/>
      <point x="287" y="254" type="curve" smooth="yes"/>
      <point x="287" y="316"/>
      <point x="243" y="364"/>
      <point x="181" y="364" type="curve" smooth="yes"/>
      <point x="112" y="364"/>
      <point x="52" y="304"/>
    </contour>
  </outline>
</glyph>
<glyph name="ellipsis" format="1">
  <advance width="619"/>
  <unicode hex="2026"/>
  <outline>
    <contour>
      <point x="18" y="0" type="line"/>
      <point x="146" y="0" type="line"/>
      <point x="160" y="139" type="line"/>
      <point x="32" y="139" type="line"/>
    </contour>
    <contour>
      <point x="219" y="0" type="line"/>
      <point x="347" y="0" type="line"/>
      <point x="361" y="139" type="line"/>
      <point x="233" y="139" type="line"/>
    </contour>
    <contour>
      <point x="419" y="0" type="line"/>
      <point x="547" y="0" type="line"/>
      <point x="561" y="139" type="line"/>
      <point x="433" y="139" type="line"/>
    </contour>
  </outline>
</glyph>
<glyph name="guilsinglright" format="1">
  <advance width="289"/>
  <unicode hex="203A"/>
  <outline>
    <contour>
      <point x="97" y="25" type="line"/>
      <point x="258" y="271" type="line"/>
      <point x="148" y="511" type="line"/>
      <point x="61" y="511" type="line"/>
      <point x="155" y="271" type="line"/>
      <point x="10" y="25" type="line"/>
    </contour>
  </outline>
</glyph>
<glyph name="uni203D" format="1">
  <advance width="692"/>
  <unicode hex="203D"/>
  <outline>
    <contour>
      <point x="461" y="563" type="curve" smooth="yes"/>
      <point x="498" y="563"/>
      <point x="562" y="549"/>
      <point x="562" y="491" type="curve" smooth="yes"/>
      <point x="562" y="382"/>
      <point x="332" y="391"/>
      <point x="305" y="232" type="curve"/>
      <point x="372" y="207" type="line"/>
      <point x="417" y="347"/>
      <point x="686" y="326"/>
      <point x="686" y="503" type="curve" smooth="yes"/>
      <point x="686" y="611"/>
      <point x="585" y="652"/>
      <point x="476" y="652" type="curve" smooth="yes"/>
      <point x="424" y="652"/>
      <point x="374" y="639"/>
      <point x="337" y="622" type="curve"/>
      <point x="290" y="486" type="line"/>
      <point x="366" y="465" type="line"/>
      <point x="404" y="550" type="line"/>
      <point x="421" y="558"/>
      <point x="440" y="563"/>
    </contour>
    <contour>
      <point x="176" y="653" type="line"/>
      <point x="284" y="228" type="line"/>
      <point x="210" y="196" type="line"/>
      <point x="57" y="599" type="line"/>
    </contour>
    <contour>
      <point x="212" y="0" type="line"/>
      <point x="337" y="0" type="line"/>
      <point x="351" y="127" type="line"/>
      <point x="226" y="127" type="line"/>
    </contour>
  </outline>
</glyph>
<glyph name="fraction" format="1">
  <advance width="151"/>
  <unicode hex="2044"/>
  <outline>
    <contour>
      <point x="333" y="650" type="line"/>
      <point x="113" y="325" type="line"/>
      <point x="-100" y="0" type="line"/>
      <point x="-173" y="0" type="line"/>
      <point x="56" y="337" type="line"/>
      <point x="260" y="650" type="line"/>
    </contour>
  </outline>
</glyph>
<glyph name="i.superior" format="1">
  <advance width="194"/>
  <unicode hex="2071"/>
  <outline>
    <contour>
      <point x="62" y="690" type="line"/>
      <point x="81" y="707" type="line"/>
      <point x="184" y="707" type="line"/>
      <point x="155" y="477" type="line"/>
      <point x="195" y="477" type="line"/>
      <point x="190" y="431" type="line"/>
      <point x="170" y="415" type="line"/>
      <point x="71" y="415" type="line"/>
      <point x="100" y="646" type="line"/>
      <point x="56" y="646" type="line"/>
    </contour>
    <contour>
      <point x="117" y="768" type="line"/>
      <point x="194" y="768" type="line"/>
      <point x="203" y="851" type="line"/>
      <point x="125" y="851" type="line"/>
    </contour>
  </outline>
</glyph>
<glyph name="foursuperior" format="1">
  <advance width="356"/>
  <unicode hex="2074"/>
  <outline>
    <contour>
      <point x="208" y="415" type="line"/>
      <point x="290" y="415" type="line"/>
      <point x="299" y="507" type="line"/>
      <point x="352" y="507" type="line"/>
      <point x="365" y="565" type="line"/>
      <point x="305" y="565" type="line"/>
      <point x="328" y="779" type="line"/>
      <point x="183" y="779" type="line"/>
      <point x="48" y="568" type="line"/>
      <point x="50" y="507" type="line"/>
      <point x="217" y="507" type="line"/>
    </contour>
    <contour>
      <point x="213" y="715" type="line"/>
      <point x="239" y="715" type="line"/>
      <point x="223" y="565" type="line"/>
      <point x="118" y="565" type="line"/>
    </contour>
  </outline>
</glyph>
<glyph name="sixsuperior" format="1">
  <advance width="341"/>
  <unicode hex="2076"/>
  <outline>
    <contour>
      <point x="238" y="721" type="curve" smooth="yes"/>
      <point x="260" y="721"/>
      <point x="279" y="715"/>
      <point x="298" y="689" type="curve"/>
      <point x="348" y="737" type="line"/>
      <point x="320" y="771"/>
      <point x="277" y="785"/>
      <point x="234" y="785" type="curve" smooth="yes"/>
      <point x="112" y="785"/>
      <point x="61" y="673"/>
      <point x="61" y="564" type="curve" smooth="yes"/>
      <point x="61" y="468"/>
      <point x="104" y="409"/>
      <point x="191" y="409" type="curve" smooth="yes"/>
      <point x="280" y="409"/>
      <point x="339" y="470"/>
      <point x="339" y="548" type="curve" smooth="yes"/>
      <point x="339" y="601"/>
      <point x="311" y="650"/>
      <point x="241" y="650" type="curve" smooth="yes"/>
      <point x="193" y="650"/>
      <point x="164" y="626"/>
      <point x="149" y="600" type="curve"/>
      <point x="155" y="681"/>
      <point x="182" y="721"/>
    </contour>
    <contour>
      <point x="209" y="589" type="curve" smooth="yes"/>
      <point x="241" y="589"/>
      <point x="254" y="571"/>
      <point x="254" y="541" type="curve" smooth="yes"/>
      <point x="254" y="503"/>
      <point x="239" y="475"/>
      <point x="197" y="475" type="curve" smooth="yes"/>
      <point x="159" y="475"/>
      <point x="149" y="498"/>
      <point x="148" y="541" type="curve"/>
      <point x="154" y="569"/>
      <point x="174" y="589"/>
    </contour>
  </outline>
</glyph>
<glyph name="sevensuperior" format="1">
  <advance width="309"/>
  <unicode hex="2077"/>
  <outline>
    <contour>
      <point x="75" y="779" type="line"/>
      <point x="62" y="655" type="line"/>
      <point x="133" y="655" type="line"/>
      <point x="139" y="716" type="line"/>
      <point x="255" y="716" type="line"/>
      <point x="97" y="414" type="line"/>
      <point x="179" y="414" type="line"/>
      <point x="347" y="744" type="line"/>
      <point x="341" y="779" type="line"/>
    </contour>
  </outline>
</glyph>
<glyph name="eightsuperior" format="1">
  <advance width="345"/>
  <unicode hex="2078"/>
  <outline>
    <contour>
      <point x="182" y="409" type="curve" smooth="yes"/>
      <point x="272" y="409"/>
      <point x="341" y="449"/>
      <point x="341" y="521" type="curve" smooth="yes"/>
      <point x="341" y="569"/>
      <point x="308" y="595"/>
      <point x="271" y="615" type="curve"/>
      <point x="312" y="632"/>
      <point x="347" y="654"/>
      <point x="347" y="701" type="curve" smooth="yes"/>
      <point x="347" y="752"/>
      <point x="299" y="785"/>
      <point x="226" y="785" type="curve" smooth="yes"/>
      <point x="141" y="785"/>
      <point x="81" y="741"/>
      <point x="81" y="678" type="curve" smooth="yes"/>
      <point x="81" y="637"/>
      <point x="108" y="614"/>
      <point x="140" y="595" type="curve"/>
      <point x="96" y="577"/>
      <point x="54" y="553"/>
      <point x="54" y="497" type="curve" smooth="yes"/>
      <point x="54" y="438"/>
      <point x="107" y="409"/>
    </contour>
    <contour>
      <point x="172" y="689" type="curve" smooth="yes"/>
      <point x="172" y="708"/>
      <point x="187" y="725"/>
      <point x="220" y="725" type="curve" smooth="yes"/>
      <point x="241" y="725"/>
      <point x="262" y="716"/>
      <point x="262" y="688" type="curve" smooth="yes"/>
      <point x="262" y="665"/>
      <point x="247" y="649"/>
      <point x="228" y="637" type="curve"/>
      <point x="197" y="652"/>
      <point x="172" y="666"/>
    </contour>
    <contour>
      <point x="192" y="469" type="curve" smooth="yes"/>
      <point x="157" y="469"/>
      <point x="139" y="488"/>
      <point x="139" y="515" type="curve" smooth="yes"/>
      <point x="139" y="542"/>
      <point x="157" y="560"/>
      <point x="181" y="574" type="curve"/>
      <point x="217" y="555"/>
      <point x="251" y="540"/>
      <point x="251" y="511" type="curve" smooth="yes"/>
      <point x="251" y="489"/>
      <point x="230" y="469"/>
    </contour>
  </outline>
</glyph>
<glyph name="plussuperior" format="1">
  <advance width="275"/>
  <unicode hex="207A"/>
  <outline>
    <contour>
      <point x="55" y="571" type="line"/>
      <point x="142" y="571" type="line"/>
      <point x="133" y="485" type="line"/>
      <point x="189" y="485" type="line"/>
      <point x="198" y="571" type="line"/>
      <point x="282" y="571" type="line"/>
      <point x="287" y="624" type="line"/>
      <point x="203" y="624" type="line"/>
      <point x="213" y="711" type="line"/>
      <point x="157" y="711" type="line"/>
      <point x="147" y="624" type="line"/>
      <point x="60" y="624" type="line"/>
    </contour>
  </outline>
</glyph>
<glyph name="minussuperior" format="1">
  <advance width="308"/>
  <unicode hex="207B"/>
  <outline>
    <contour>
      <point x="71" y="571" type="line"/>
      <point x="298" y="571" type="line"/>
      <point x="303" y="624" type="line"/>
      <point x="76" y="624" type="line"/>
    </contour>
  </outline>
</glyph>
<glyph name="parenleftsuperior" format="1">
  <advance width="219"/>
  <unicode hex="207D"/>
  <outline>
    <contour>
      <point x="188" y="831" type="curve"/>
      <point x="258" y="831" type="line"/>
      <point x="174" y="739"/>
      <point x="128" y="644"/>
      <point x="128" y="540" type="curve" smooth="yes"/>
      <point x="128" y="461"/>
      <point x="153" y="377"/>
      <point x="203" y="309" type="curve"/>
      <point x="132" y="309" type="line"/>
      <point x="84" y="381"/>
      <point x="62" y="463"/>
      <point x="62" y="538" type="curve" smooth="yes"/>
      <point x="62" y="640"/>
      <point x="101" y="737"/>
    </contour>
  </outline>
</glyph>
<glyph name="n.superior" format="1">
  <advance width="380"/>
  <unicode hex="207F"/>
  <outline>
    <contour>
      <point x="82" y="707" type="line"/>
      <point x="172" y="707" type="line"/>
      <point x="174" y="654" type="line"/>
      <point x="196" y="690"/>
      <point x="227" y="713"/>
      <point x="272" y="713" type="curve" smooth="yes"/>
      <point x="326" y="713"/>
      <point x="369" y="682"/>
      <point x="359" y="612" type="curve"/>
      <point x="342" y="477" type="line"/>
      <point x="384" y="477" type="line"/>
      <point x="378" y="431" type="line"/>
      <point x="359" y="415" type="line"/>
      <point x="260" y="415" type="line"/>
      <point x="281" y="581" type="line" smooth="yes"/>
      <point x="288" y="632"/>
      <point x="272" y="652"/>
      <point x="237" y="652" type="curve" smooth="yes"/>
      <point x="200" y="652"/>
      <point x="179" y="630"/>
      <point x="170" y="597" type="curve"/>
      <point x="170" y="596" type="line"/>
      <point x="147" y="415" type="line"/>
      <point x="72" y="415" type="line"/>
      <point x="100" y="646" type="line"/>
      <point x="56" y="646" type="line"/>
      <point x="62" y="690" type="line"/>
    </contour>
  </outline>
</glyph>
<glyph name="zeroinferior" format="1">
  <advance width="380"/>
  <unicode hex="2080"/>
  <outline>
    <contour>
      <point x="19" y="152" type="curve" smooth="yes"/>
      <point x="19" y="242"/>
      <point x="57" y="370"/>
      <point x="198" y="370" type="curve" smooth="yes"/>
      <point x="312" y="370"/>
      <point x="341" y="288"/>
      <point x="341" y="207" type="curve" smooth="yes"/>
      <point x="341" y="99"/>
      <point x="289" y="-6"/>
      <point x="159" y="-6" type="curve" smooth="yes"/>
      <point x="54" y="-6"/>
      <point x="19" y="63"/>
    </contour>
    <contour>
      <point x="108" y="158" type="curve" smooth="yes"/>
      <point x="108" y="101"/>
      <point x="119" y="60"/>
      <point x="166" y="60" type="curve" smooth="yes"/>
      <point x="228" y="60"/>
      <point x="251" y="130"/>
      <point x="251" y="209" type="curve" smooth="yes"/>
      <point x="251" y="266"/>
      <point x="239" y="304"/>
      <point x="193" y="304" type="curve" smooth="yes"/>
      <point x="136" y="304"/>
      <point x="108" y="248"/>
    </contour>
  </outline>
</glyph>
<glyph name="oneinferior" format="1">
  <advance width="267"/>
  <unicode hex="2081"/>
  <outline>
    <contour>
      <point x="8" y="64" type="line"/>
      <point x="79" y="64" type="line"/>
      <point x="104" y="300" type="line"/>
      <point x="32" y="300" type="line"/>
      <point x="39" y="364" type="line"/>
      <point x="194" y="364" type="line"/>
      <point x="162" y="64" type="line"/>
      <point x="229" y="64" type="line"/>
      <point x="222" y="0" type="line"/>
      <point x="1" y="0" type="line"/>
    </contour>
  </outline>
</glyph>
<glyph name="fourinferior" format="1">
  <advance width="356"/>
  <unicode hex="2084"/>
  <outline>
    <contour>
      <point x="164" y="0" type="line"/>
      <point x="246" y="0" type="line"/>
      <point x="255" y="92" type="line"/>
      <point x="308" y="92" type="line"/>
      <point x="321" y="150" type="line"/>
      <point x="261" y="150" type="line"/>
      <point x="284" y="364" type="line"/>
      <point x="139" y="364" type="line"/>
      <point x="4" y="153" type="line"/>
      <point x="6" y="92" type="line"/>
      <point x="173" y="92" type="line"/>
    </contour>
    <contour>
      <point x="169" y="300" type="line"/>
      <point x="195" y="300" type="line"/>
      <point x="179" y="150" type="line"/>
      <point x="74" y="150" type="line"/>
    </contour>
  </outline>
</glyph>
<glyph name="sixinferior" format="1">
  <advance width="342"/>
  <unicode hex="2086"/>
  <outline>
    <contour>
      <point x="195" y="306" type="curve" smooth="yes"/>
      <point x="217" y="306"/>
      <point x="236" y="300"/>
      <point x="255" y="274" type="curve"/>
      <point x="305" y="322" type="line"/>
      <point x="277" y="356"/>
      <point x="234" y="370"/>
      <point x="191" y="370" type="curve" smooth="yes"/>
      <point x="69" y="370"/>
      <point x="18" y="258"/>
      <point x="18" y="149" type="curve" smooth="yes"/>
      <point x="18" y="53"/>
      <point x="61" y="-6"/>
      <point x="148" y="-6" type="curve" smooth="yes"/>
      <point x="237" y="-6"/>
      <point x="296" y="55"/>
      <point x="296" y="133" type="curve" smooth="yes"/>
      <point x="296" y="186"/>
      <point x="268" y="235"/>
      <point x="198" y="235" type="curve" smooth="yes"/>
      <point x="150" y="235"/>
      <point x="121" y="211"/>
      <point x="106" y="185" type="curve"/>
      <point x="112" y="266"/>
      <point x="139" y="306"/>
    </contour>
    <contour>
      <point x="166" y="174" type="curve" smooth="yes"/>
      <point x="198" y="174"/>
      <point x="211" y="156"/>
      <point x="211" y="126" type="curve" smooth="yes"/>
      <point x="211" y="88"/>
      <point x="196" y="60"/>
      <point x="154" y="60" type="curve" smooth="yes"/>
      <point x="116" y="60"/>
      <point x="106" y="83"/>
      <point x="105" y="126" type="curve"/>
      <point x="111" y="154"/>
      <point x="131" y="174"/>
    </contour>
  </outline>
</glyph>
<glyph name="eightinferior" format="1">
  <advance width="344"/>
  <unicode hex="2088"/>
  <outline>
    <contour>
      <point x="138" y="-6" type="curve" smooth="yes"/>
      <point x="228" y="-6"/>
      <point x="297" y="34"/>
      <point x="297" y="106" type="curve" smooth="yes"/>
      <point x="297" y="154"/>
      <point x="264" y="180"/>
      <point x="227" y="200" type="curve"/>
      <point x="268" y="217"/>
      <point x="303" y="239"/>
      <point x="303" y="286" type="curve" smooth="yes"/>
      <point x="303" y="337"/>
      <point x="255" y="370"/>
      <point x="182" y="370" type="curve" smooth="yes"/>
      <point x="97" y="370"/>
      <point x="37" y="326"/>
      <point x="37" y="263" type="curve" smooth="yes"/>
      <point x="37" y="222"/>
      <point x="64" y="199"/>
      <point x="96" y="180" type="curve"/>
      <point x="52" y="162"/>
      <point x="10" y="138"/>
      <point x="10" y="82" type="curve" smooth="yes"/>
      <point x="10" y="23"/>
      <point x="63" y="-6"/>
    </contour>
    <contour>
      <point x="128" y="274" type="curve" smooth="yes"/>
      <point x="128" y="293"/>
      <point x="143" y="310"/>
      <point x="176" y="310" type="curve" smooth="yes"/>
      <point x="197" y="310"/>
      <point x="218" y="301"/>
      <point x="218" y="273" type="curve" smooth="yes"/>
      <point x="218" y="250"/>
      <point x="203" y="234"/>
      <point x="184" y="222" type="curve"/>
      <point x="153" y="237"/>
      <point x="128" y="251"/>
    </contour>
    <contour>
      <point x="148" y="54" type="curve" smooth="yes"/>
      <point x="113" y="54"/>
      <point x="95" y="73"/>
      <point x="95" y="100" type="curve" smooth="yes"/>
      <point x="95" y="127"/>
      <point x="113" y="145"/>
      <point x="137" y="159" type="curve"/>
      <point x="173" y="140"/>
      <point x="207" y="125"/>
      <point x="207" y="96" type="curve" smooth="yes"/>
      <point x="207" y="74"/>
      <point x="186" y="54"/>
    </contour>
  </outline>
</glyph>
<glyph name="nineinferior" format="1">
  <advance width="343"/>
  <unicode hex="2089"/>
  <outline>
    <contour>
      <point x="129" y="58" type="curve" smooth="yes"/>
      <point x="107" y="58"/>
      <point x="87" y="65"/>
      <point x="69" y="90" type="curve"/>
      <point x="19" y="42" type="line"/>
      <point x="47" y="8"/>
      <point x="92" y="-6"/>
      <point x="134" y="-6" type="curve" smooth="yes"/>
      <point x="255" y="-6"/>
      <point x="306" y="106"/>
      <point x="306" y="215" type="curve" smooth="yes"/>
      <point x="306" y="311"/>
      <point x="260" y="370"/>
      <point x="174" y="370" type="curve" smooth="yes"/>
      <point x="84" y="370"/>
      <point x="27" y="310"/>
      <point x="27" y="232" type="curve" smooth="yes"/>
      <point x="27" y="179"/>
      <point x="56" y="129"/>
      <point x="126" y="129" type="curve" smooth="yes"/>
      <point x="174" y="129"/>
      <point x="202" y="152"/>
      <point x="217" y="178" type="curve"/>
      <point x="211" y="97"/>
      <point x="185" y="58"/>
    </contour>
    <contour>
      <point x="158" y="190" type="curve" smooth="yes"/>
      <point x="126" y="190"/>
      <point x="113" y="208"/>
      <point x="113" y="238" type="curve" smooth="yes"/>
      <point x="113" y="276"/>
      <point x="128" y="304"/>
      <point x="170" y="304" type="curve" smooth="yes"/>
      <point x="206" y="304"/>
      <point x="217" y="280"/>
      <point x="219" y="237" type="curve"/>
      <point x="213" y="210"/>
      <point x="192" y="190"/>
    </contour>
  </outline>
</glyph>
<glyph name="minus.inferior" format="1">
  <advance width="307"/>
  <unicode hex="208B"/>
  <outline>
    <contour>
      <point x="27" y="156" type="line"/>
      <point x="254" y="156" type="line"/>
      <point x="259" y="209" type="line"/>
      <point x="32" y="209" type="line"/>
    </contour>
  </outline>
</glyph>
<glyph name="equal.inferior" format="1">
  <advance width="365"/>
  <unicode hex="208C"/>
  <outline>
    <contour>
      <point x="34" y="220" type="line"/>
      <point x="318" y="220" type="line"/>
      <point x="324" y="273" type="line"/>
      <point x="40" y="273" type="line"/>
    </contour>
    <contour>
      <point x="21" y="91" type="line"/>
      <point x="305" y="91" type="line"/>
      <point x="310" y="144" type="line"/>
      <point x="26" y="144" type="line"/>
    </contour>
  </outline>
</glyph>
<glyph name="parenright.inferior" format="1">
  <advance width="218"/>
  <unicode hex="208E"/>
  <outline>
    <contour>
      <point x="48" y="-107" type="curve"/>
      <point x="-22" y="-107" type="line"/>
      <point x="63" y="-14"/>
      <point x="108" y="81"/>
      <point x="108" y="185" type="curve" smooth="yes"/>
      <point x="108" y="263"/>
      <point x="83" y="347"/>
      <point x="34" y="415" type="curve"/>
      <point x="104" y="415" type="line"/>
      <point x="153" y="344"/>
      <point x="175" y="262"/>
      <point x="175" y="187" type="curve" smooth="yes"/>
      <point x="175" y="85"/>
      <point x="134" y="-12"/>
    </contour>
  </outline>
</glyph>
<glyph name="o.inferior" format="1">
  <advance width="337"/>
  <unicode hex="2092"/>
  <outline>
    <contour>
      <point x="8" y="126" type="curve" smooth="yes"/>
      <point x="8" y="215"/>
      <point x="60" y="298"/>
      <point x="170" y="298" type="curve" smooth="yes"/>
      <point x="261" y="298"/>
      <point x="301" y="242"/>
      <point x="301" y="163" type="curve" smooth="yes"/>
      <point x="301" y="62"/>
      <point x="236" y="-7"/>
      <point x="137" y="-7" type="curve" smooth="yes"/>
      <point x="55" y="-7"/>
      <point x="8" y="40"/>
    </contour>
    <contour>
      <point x="91" y="133" type="curve" smooth="yes"/>
      <point x="91" y="85"/>
      <point x="102" y="55"/>
      <point x="144" y="55" type="curve" smooth="yes"/>
      <point x="199" y="55"/>
      <point x="220" y="104"/>
      <point x="220" y="161" type="curve" smooth="yes"/>
      <point x="220" y="213"/>
      <point x="203" y="237"/>
      <point x="162" y="237" type="curve" smooth="yes"/>
      <point x="113" y="237"/>
      <point x="91" y="203"/>
    </contour>
  </outline>
</glyph>
<glyph name="x.inferior" format="1">
  <advance width="358"/>
  <unicode hex="2093"/>
  <outline>
    <contour>
      <point x="321" y="18" type="line"/>
      <point x="301" y="0" type="line"/>
      <point x="151" y="0" type="line"/>
      <point x="156" y="45" type="line"/>
      <point x="176" y="62" type="line"/>
      <point x="193" y="62" type="line"/>
      <point x="149" y="117" type="line"/>
      <point x="94" y="82"/>
      <point x="85" y="42"/>
      <point x="97" y="0" type="curve"/>
      <point x="12" y="0" type="line"/>
      <point x="-10" y="61"/>
      <point x="53" y="97"/>
      <point x="124" y="144" type="curve"/>
      <point x="48" y="231" type="line"/>
      <point x="11" y="231" type="line"/>
      <point x="17" y="275" type="line"/>
      <point x="36" y="292" type="line"/>
      <point x="182" y="292" type="line"/>
      <point x="176" y="248" type="line"/>
      <point x="156" y="231" type="line"/>
      <point x="139" y="231" type="line"/>
      <point x="177" y="182" type="line"/>
      <point x="225" y="221"/>
      <point x="238" y="255"/>
      <point x="227" y="292" type="curve"/>
      <point x="312" y="292" type="line"/>
      <point x="333" y="232"/>
      <point x="254" y="188"/>
      <point x="206" y="155" type="curve"/>
      <point x="284" y="62" type="line"/>
      <point x="326" y="62" type="line"/>
    </contour>
  </outline>
</glyph>
<glyph name="h.inferior" format="1">
  <advance width="369"/>
  <unicode hex="2095"/>
  <outline>
    <contour>
      <point x="28" y="430" type="line"/>
      <point x="47" y="447" type="line"/>
      <point x="147" y="447" type="line"/>
      <point x="121" y="243" type="line"/>
      <point x="141" y="276"/>
      <point x="172" y="298"/>
      <point x="216" y="298" type="curve" smooth="yes"/>
      <point x="270" y="298"/>
      <point x="312" y="267"/>
      <point x="304" y="197" type="curve" smooth="yes"/>
      <point x="287" y="62" type="line"/>
      <point x="327" y="62" type="line"/>
      <point x="322" y="16" type="line"/>
      <point x="302" y="0" type="line"/>
      <point x="204" y="0" type="line"/>
      <point x="224" y="166" type="line" smooth="yes"/>
      <point x="230" y="215"/>
      <point x="218" y="237"/>
      <point x="180" y="237" type="curve" smooth="yes"/>
      <point x="138" y="237"/>
      <point x="117" y="208"/>
      <point x="112" y="167" type="curve"/>
      <point x="111" y="169" type="line"/>
      <point x="90" y="0" type="line"/>
      <point x="15" y="0" type="line"/>
      <point x="63" y="385" type="line"/>
      <point x="23" y="385" type="line"/>
    </contour>
    <contour>
      <point x="153" y="368" type="move" name="top"/>
    </contour>
  </outline>
</glyph>
<glyph name="k.inferior" format="1">
  <advance width="329"/>
  <unicode hex="2096"/>
  <outline>
    <contour>
      <point x="28" y="430" type="line"/>
      <point x="47" y="447" type="line"/>
      <point x="147" y="447" type="line"/>
      <point x="112" y="176" type="line"/>
      <point x="153" y="176" type="line"/>
      <point x="187" y="212"/>
      <point x="206" y="247"/>
      <point x="211" y="292" type="curve"/>
      <point x="288" y="292" type="line"/>
      <point x="288" y="241"/>
      <point x="252" y="188"/>
      <point x="197" y="152" type="curve"/>
      <point x="249" y="62" type="line"/>
      <point x="295" y="62" type="line"/>
      <point x="290" y="16" type="line"/>
      <point x="271" y="0" type="line"/>
      <point x="203" y="0" type="line"/>
      <point x="136" y="123" type="line"/>
      <point x="105" y="123" type="line"/>
      <point x="90" y="0" type="line"/>
      <point x="15" y="0" type="line"/>
      <point x="63" y="385" type="line"/>
      <point x="23" y="385" type="line"/>
    </contour>
  </outline>
</glyph>
<glyph name="l.inferior" format="1">
  <advance width="182"/>
  <unicode hex="2097"/>
  <outline>
    <contour>
      <point x="25" y="430" type="line"/>
      <point x="45" y="447" type="line"/>
      <point x="147" y="447" type="line"/>
      <point x="98" y="62" type="line"/>
      <point x="139" y="62" type="line"/>
      <point x="134" y="16" type="line"/>
      <point x="114" y="0" type="line"/>
      <point x="15" y="0" type="line"/>
      <point x="63" y="385" type="line"/>
      <point x="20" y="385" type="line"/>
    </contour>
    <contour>
      <point x="153" y="368" type="move" name="top"/>
    </contour>
  </outline>
</glyph>
<glyph name="s.inferior" format="1">
  <advance width="306"/>
  <unicode hex="209B"/>
  <outline>
    <contour>
      <point x="125" y="55" type="curve" smooth="yes"/>
      <point x="104" y="55"/>
      <point x="95" y="59"/>
      <point x="81" y="65" type="curve"/>
      <point x="83" y="102" type="line"/>
      <point x="20" y="109" type="line"/>
      <point x="5" y="28" type="line"/>
      <point x="36" y="7"/>
      <point x="85" y="-7"/>
      <point x="133" y="-7" type="curve"/>
      <point x="209" y="-7"/>
      <point x="260" y="29"/>
      <point x="260" y="92" type="curve" smooth="yes"/>
      <point x="260" y="158"/>
      <point x="201" y="169"/>
      <point x="157" y="177" type="curve" smooth="yes"/>
      <point x="127" y="184"/>
      <point x="105" y="190"/>
      <point x="105" y="210" type="curve" smooth="yes"/>
      <point x="105" y="231"/>
      <point x="130" y="237"/>
      <point x="150" y="237" type="curve"/>
      <point x="171" y="237"/>
      <point x="185" y="235"/>
      <point x="198" y="230" type="curve"/>
      <point x="202" y="198" type="line"/>
      <point x="266" y="205" type="line"/>
      <point x="263" y="270" type="line"/>
      <point x="230" y="292"/>
      <point x="186" y="298"/>
      <point x="150" y="298" type="curve"/>
      <point x="92" y="298"/>
      <point x="26" y="277"/>
      <point x="26" y="207" type="curve" smooth="yes"/>
      <point x="26" y="147"/>
      <point x="74" y="132"/>
      <point x="115" y="123" type="curve" smooth="yes"/>
      <point x="151" y="115"/>
      <point x="180" y="110"/>
      <point x="180" y="86" type="curve" smooth="yes"/>
      <point x="180" y="62"/>
      <point x="151" y="55"/>
    </contour>
  </outline>
</glyph>
<glyph name="t.inferior" format="1">
  <advance width="264"/>
  <unicode hex="209C"/>
  <outline>
    <contour>
      <point x="18" y="274" type="line"/>
      <point x="39" y="292" type="line"/>
      <point x="61" y="292" type="line"/>
      <point x="70" y="357" type="line"/>
      <point x="94" y="382" type="line"/>
      <point x="149" y="382" type="line"/>
      <point x="137" y="292" type="line"/>
      <point x="230" y="292" type="line"/>
      <point x="224" y="251" type="line"/>
      <point x="203" y="231" type="line"/>
      <point x="130" y="231" type="line"/>
      <point x="113" y="95" type="line" smooth="yes"/>
      <point x="110" y="67"/>
      <point x="116" y="55"/>
      <point x="136" y="55" type="curve" smooth="yes"/>
      <point x="151" y="55"/>
      <point x="166" y="63"/>
      <point x="178" y="108" type="curve"/>
      <point x="232" y="90" type="line"/>
      <point x="216" y="23"/>
      <point x="186" y="-7"/>
      <point x="128" y="-7" type="curve" smooth="yes"/>
      <point x="66" y="-7"/>
      <point x="28" y="28"/>
      <point x="36" y="88" type="curve" smooth="yes"/>
      <point x="54" y="231" type="line"/>
      <point x="12" y="231" type="line"/>
    </contour>
  </outline>
</glyph>
<glyph name="colonsign" format="1">
  <advance width="673"/>
  <unicode hex="20A1"/>
  <outline>
    <contour>
      <point x="608" y="689" type="line"/>
      <point x="682" y="689" type="line"/>
      <point x="412" y="96" type="line"/>
      <point x="434" y="101"/>
      <point x="454" y="108"/>
      <point x="470" y="116" type="curve"/>
      <point x="495" y="213" type="line"/>
      <point x="584" y="204" type="line"/>
      <point x="555" y="62" type="line"/>
      <point x="514" y="27"/>
      <point x="436" y="1"/>
      <point x="365" y="-7" type="curve"/>
      <point x="336" y="-71" type="line"/>
      <point x="262" y="-71" type="line"/>
      <point x="290" y="-9" type="line"/>
      <point x="273" y="-7"/>
      <point x="257" y="-5"/>
      <point x="242" y="-1" type="curve"/>
      <point x="210" y="-71" type="line"/>
      <point x="136" y="-71" type="line"/>
      <point x="178" y="23" type="line"/>
      <point x="92" y="70"/>
      <point x="41" y="165"/>
      <point x="41" y="289" type="curve" smooth="yes"/>
      <point x="41" y="489"/>
      <point x="173" y="660"/>
      <point x="369" y="660" type="curve" smooth="yes"/>
      <point x="404" y="660"/>
      <point x="435" y="655"/>
      <point x="462" y="645" type="curve"/>
      <point x="482" y="689" type="line"/>
      <point x="557" y="689" type="line"/>
      <point x="522" y="613" type="line"/>
      <point x="536" y="602"/>
      <point x="547" y="589"/>
      <point x="556" y="576" type="curve"/>
    </contour>
    <contour>
      <point x="374" y="562" type="curve" smooth="yes"/>
      <point x="238" y="562"/>
      <point x="157" y="453"/>
      <point x="157" y="300" type="curve" smooth="yes"/>
      <point x="157" y="214"/>
      <point x="181" y="157"/>
      <point x="224" y="123" type="curve"/>
      <point x="421" y="556" type="line"/>
      <point x="407" y="560"/>
      <point x="391" y="562"/>
    </contour>
    <contour>
      <point x="482" y="525" type="curve"/>
      <point x="285" y="94" type="line"/>
      <point x="300" y="90"/>
      <point x="317" y="88"/>
      <point x="334" y="88" type="curve"/>
      <point x="511" y="477" type="line"/>
      <point x="506" y="495"/>
      <point x="497" y="511"/>
    </contour>
  </outline>
</glyph>
<glyph name="cruzeiro" format="1">
  <advance width="644"/>
  <unicode hex="20A2"/>
  <outline>
    <contour>
      <point x="556" y="62" type="line"/>
      <point x="507" y="18"/>
      <point x="408" y="-10"/>
      <point x="323" y="-10" type="curve" smooth="yes"/>
      <point x="140" y="-10"/>
      <point x="38" y="117"/>
      <point x="38" y="287" type="curve" smooth="yes"/>
      <point x="38" y="464"/>
      <point x="148" y="660"/>
      <point x="392" y="660" type="curve" smooth="yes"/>
      <point x="498" y="660"/>
      <point x="571" y="623"/>
      <point x="610" y="583" type="curve"/>
      <point x="612" y="442" type="line"/>
      <point x="521" y="433" type="line"/>
      <point x="515" y="523" type="line"/>
      <point x="482" y="547"/>
      <point x="432" y="562"/>
      <point x="380" y="562" type="curve" smooth="yes"/>
      <point x="244" y="562"/>
      <point x="152" y="466"/>
      <point x="152" y="299" type="curve" smooth="yes"/>
      <point x="152" y="187"/>
      <point x="193" y="118"/>
      <point x="276" y="96" type="curve"/>
      <point x="300" y="298" type="line"/>
      <point x="233" y="298" type="line"/>
      <point x="240" y="357" type="line"/>
      <point x="267" y="381" type="line"/>
      <point x="389" y="381" type="line"/>
      <point x="393" y="266" type="line"/>
      <point x="414" y="328"/>
      <point x="452" y="390"/>
      <point x="505" y="390" type="curve" smooth="yes"/>
      <point x="526" y="390"/>
      <point x="541" y="384"/>
      <point x="556" y="372" type="curve"/>
      <point x="539" y="263" type="line"/>
      <point x="518" y="275"/>
      <point x="503" y="278"/>
      <point x="487" y="278" type="curve" smooth="yes"/>
      <point x="442" y="278"/>
      <point x="407" y="243"/>
      <point x="393" y="192" type="curve"/>
      <point x="380" y="90" type="line"/>
      <point x="415" y="94"/>
      <point x="448" y="104"/>
      <point x="471" y="116" type="curve"/>
      <point x="497" y="213" type="line"/>
      <point x="585" y="204" type="line"/>
    </contour>
  </outline>
</glyph>
<glyph name="lira" format="1">
  <advance width="566"/>
  <unicode hex="20A4"/>
  <outline>
    <contour>
      <point x="44" y="284" type="line"/>
      <point x="118" y="284" type="line"/>
      <point x="125" y="347" type="line"/>
      <point x="51" y="347" type="line"/>
      <point x="58" y="414" type="line"/>
      <point x="132" y="414" type="line"/>
      <point x="133" y="417" type="line"/>
      <point x="150" y="582"/>
      <point x="246" y="660"/>
      <point x="368" y="660" type="curve" smooth="yes"/>
      <point x="420" y="660"/>
      <point x="492" y="646"/>
      <point x="529" y="606" type="curve"/>
      <point x="530" y="465" type="line"/>
      <point x="440" y="456" type="line"/>
      <point x="434" y="543" type="line"/>
      <point x="414" y="556"/>
      <point x="383" y="562"/>
      <point x="357" y="562" type="curve" smooth="yes"/>
      <point x="292" y="562"/>
      <point x="252" y="526"/>
      <point x="241" y="418" type="curve"/>
      <point x="240" y="414" type="line"/>
      <point x="432" y="414" type="line"/>
      <point x="426" y="347" type="line"/>
      <point x="233" y="347" type="line"/>
      <point x="227" y="284" type="line"/>
      <point x="419" y="284" type="line"/>
      <point x="412" y="217" type="line"/>
      <point x="218" y="217" type="line"/>
      <point x="209" y="172"/>
      <point x="187" y="126"/>
      <point x="137" y="95" type="curve"/>
      <point x="328" y="95" type="line" smooth="yes"/>
      <point x="398" y="95"/>
      <point x="437" y="122"/>
      <point x="470" y="161" type="curve"/>
      <point x="516" y="104" type="line"/>
      <point x="497" y="69"/>
      <point x="433" y="0"/>
      <point x="340" y="0" type="curve" smooth="yes"/>
      <point x="14" y="0" type="line"/>
      <point x="24" y="92" type="line"/>
      <point x="79" y="120"/>
      <point x="99" y="162"/>
      <point x="109" y="217" type="curve"/>
      <point x="37" y="217" type="line"/>
    </contour>
  </outline>
</glyph>
<glyph name="mill" format="1">
  <advance width="833"/>
  <unicode hex="20A5"/>
  <outline>
    <contour>
      <point x="77" y="449" type="line"/>
      <point x="206" y="449" type="line"/>
      <point x="208" y="362" type="line"/>
      <point x="239" y="419"/>
      <point x="285" y="458"/>
      <point x="354" y="458" type="curve" smooth="yes"/>
      <point x="415" y="458"/>
      <point x="460" y="430"/>
      <point x="474" y="370" type="curve"/>
      <point x="578" y="565" type="line"/>
      <point x="653" y="565" type="line"/>
      <point x="594" y="455" type="line"/>
      <point x="604" y="457"/>
      <point x="614" y="458"/>
      <point x="625" y="458" type="curve" smooth="yes"/>
      <point x="707" y="458"/>
      <point x="761" y="407"/>
      <point x="748" y="297" type="curve" smooth="yes"/>
      <point x="722" y="82" type="line"/>
      <point x="786" y="82" type="line"/>
      <point x="779" y="22" type="line"/>
      <point x="752" y="0" type="line"/>
      <point x="610" y="0" type="line"/>
      <point x="641" y="258" type="line"/>
      <point x="652" y="343"/>
      <point x="628" y="375"/>
      <point x="574" y="375" type="curve" smooth="yes"/>
      <point x="565" y="375"/>
      <point x="557" y="374"/>
      <point x="550" y="372" type="curve"/>
      <point x="466" y="216" type="line"/>
      <point x="440" y="0" type="line"/>
      <point x="350" y="0" type="line"/>
      <point x="281" y="-130" type="line"/>
      <point x="206" y="-130" type="line"/>
      <point x="357" y="152" type="line"/>
      <point x="370" y="258" type="line" smooth="yes"/>
      <point x="380" y="343"/>
      <point x="356" y="375"/>
      <point x="303" y="375" type="curve" smooth="yes"/>
      <point x="235" y="375"/>
      <point x="208" y="323"/>
      <point x="200" y="257" type="curve"/>
      <point x="199" y="259" type="line"/>
      <point x="168" y="0" type="line"/>
      <point x="66" y="0" type="line"/>
      <point x="111" y="366" type="line"/>
      <point x="42" y="366" type="line"/>
      <point x="49" y="425" type="line"/>
    </contour>
  </outline>
</glyph>
<glyph name="pesetas" format="1">
  <advance width="1314"/>
  <unicode hex="20A7"/>
  <outline>
    <contour>
      <point x="19" y="95" type="line"/>
      <point x="91" y="95" type="line"/>
      <point x="139" y="555" type="line"/>
      <point x="67" y="555" type="line"/>
      <point x="77" y="650" type="line"/>
      <point x="354" y="650" type="line" smooth="yes"/>
      <point x="497" y="650"/>
      <point x="567" y="571"/>
      <point x="567" y="459" type="curve" smooth="yes"/>
      <point x="567" y="306"/>
      <point x="453" y="227"/>
      <point x="318" y="227" type="curve" smooth="yes"/>
      <point x="212" y="227" type="line"/>
      <point x="198" y="95" type="line"/>
      <point x="299" y="95" type="line"/>
      <point x="289" y="0" type="line"/>
      <point x="9" y="0" type="line"/>
    </contour>
    <contour>
      <point x="1071" y="72" type="curve" smooth="yes"/>
      <point x="1124" y="72"/>
      <point x="1156" y="92"/>
      <point x="1156" y="128" type="curve" smooth="yes"/>
      <point x="1156" y="173"/>
      <point x="1103" y="180"/>
      <point x="1041" y="197" type="curve" smooth="yes"/>
      <point x="983" y="213"/>
      <point x="924" y="238"/>
      <point x="924" y="317" type="curve" smooth="yes"/>
      <point x="924" y="417"/>
      <point x="1014" y="458"/>
      <point x="1105" y="458" type="curve" smooth="yes"/>
      <point x="1158" y="458"/>
      <point x="1225" y="445"/>
      <point x="1271" y="417" type="curve"/>
      <point x="1270" y="306" type="line"/>
      <point x="1187" y="296" type="line"/>
      <point x="1185" y="358" type="line"/>
      <point x="1161" y="368"/>
      <point x="1134" y="375"/>
      <point x="1108" y="375" type="curve" smooth="yes"/>
      <point x="1068" y="375"/>
      <point x="1031" y="358"/>
      <point x="1031" y="324" type="curve" smooth="yes"/>
      <point x="1031" y="292"/>
      <point x="1065" y="283"/>
      <point x="1126" y="268" type="curve"/>
      <point x="1186" y="252"/>
      <point x="1264" y="230"/>
      <point x="1264" y="136" type="curve" smooth="yes"/>
      <point x="1264" y="39"/>
      <point x="1182" y="-10"/>
      <point x="1078" y="-10" type="curve" smooth="yes"/>
      <point x="1019" y="-10"/>
      <point x="935" y="5"/>
      <point x="887" y="34" type="curve"/>
      <point x="915" y="150" type="line"/>
      <point x="997" y="142" type="line"/>
      <point x="990" y="86" type="line"/>
      <point x="1014" y="75"/>
      <point x="1050" y="72"/>
    </contour>
    <contour>
      <point x="576" y="422" type="line"/>
      <point x="605" y="449" type="line"/>
      <point x="644" y="449" type="line"/>
      <point x="657" y="554" type="line"/>
      <point x="690" y="588" type="line"/>
      <point x="764" y="588" type="line"/>
      <point x="747" y="449" type="line"/>
      <point x="888" y="449" type="line"/>
      <point x="880" y="394" type="line"/>
      <point x="851" y="366" type="line"/>
      <point x="737" y="366" type="line"/>
      <point x="710" y="143" type="line" smooth="yes"/>
      <point x="704" y="93"/>
      <point x="716" y="72"/>
      <point x="749" y="72" type="curve" smooth="yes"/>
      <point x="773" y="72"/>
      <point x="796" y="84"/>
      <point x="815" y="155" type="curve"/>
      <point x="888" y="130" type="line"/>
      <point x="863" y="33"/>
      <point x="821" y="-10"/>
      <point x="738" y="-10" type="curve" smooth="yes"/>
      <point x="647" y="-10"/>
      <point x="594" y="43"/>
      <point x="606" y="134" type="curve"/>
      <point x="634" y="366" type="line"/>
      <point x="568" y="366" type="line"/>
    </contour>
    <contour>
      <point x="309" y="321" type="line" smooth="yes"/>
      <point x="411" y="321"/>
      <point x="452" y="376"/>
      <point x="452" y="454" type="curve" smooth="yes"/>
      <point x="452" y="518"/>
      <point x="418" y="555"/>
      <point x="332" y="555" type="curve" smooth="yes"/>
      <point x="246" y="555" type="line"/>
      <point x="222" y="321" type="line"/>
    </contour>
  </outline>
</glyph>
